{"glyphs":{"0":{"ha":715,"x_min":-25,"x_max":710,"o":"m 477 707 l 483 365 l 196 375 l 177 694 l 477 707 m -23 503 q 10 310 -21 401 q 92 153 39 220 q 210 52 143 87 q 353 18 279 15 q 494 64 427 22 q 608 176 559 105 q 684 339 657 248 q 708 535 710 433 q 675 729 706 637 q 593 885 646 818 q 475 987 542 952 q 332 1020 406 1023 q 191 975 258 1017 q 77 863 125 934 q 2 700 27 791 q -23 503 -25 605 z "},"1":{"ha":716,"x_min":9,"x_max":715,"o":"m 694 278 l 590 271 l 477 966 l 196 901 l 9 663 l 122 536 l 267 661 l 332 213 l 147 190 l 186 -28 l 715 108 l 694 278 z "},"2":{"ha":716,"x_min":-56,"x_max":759,"o":"m 90 -29 l 759 44 l 733 292 l 488 280 q 553 685 620 500 q 410 854 510 803 q 210 886 324 897 q -3 828 94 874 l -9 825 l -16 822 q -29 814 -23 819 q -56 796 -45 806 l 39 519 q 107 569 71 549 q 123 578 116 574 q 141 587 133 583 q 183 602 164 597 q 258 587 234 616 q 249 439 297 536 q 205 366 232 405 q 182 337 195 352 q 165 315 174 326 q 121 264 152 299 l 90 -29 z "},"3":{"ha":716,"x_min":50,"x_max":703,"o":"m 668 163 q 678 333 703 244 q 579 490 654 421 q 637 578 618 532 q 624 777 680 680 q 425 905 568 875 q 300 918 371 916 q 240 918 273 919 q 211 918 227 918 l 197 918 l 184 917 q 123 916 136 916 l 89 642 q 208 677 146 667 q 360 632 334 699 q 317 534 392 552 q 288 530 304 530 q 262 529 276 528 q 251 530 256 529 q 242 530 246 530 l 239 531 l 236 531 q 234 531 234 531 l 221 349 q 436 321 386 359 q 450 307 445 314 q 454 294 453 300 q 454 281 456 286 q 389 239 437 245 q 217 262 330 231 l 193 269 l 170 275 q 119 288 142 283 l 50 20 q 96 8 71 15 q 141 -4 112 4 q 410 -45 324 -55 q 668 163 587 -26 z "},"4":{"ha":716,"x_min":-48,"x_max":779,"o":"m 336 597 l 245 597 l 242 696 l 349 684 l 336 597 m 779 500 l 583 523 l 620 910 l 290 943 l -28 632 l -48 359 l 291 305 l 262 -37 l 527 -68 l 555 261 l 747 235 l 779 500 z "},"5":{"ha":716,"x_min":-30,"x_max":762,"o":"m 142 964 q 94 738 132 959 q 56 517 74 627 q 248 550 152 543 q 382 540 332 556 q 446 466 443 519 q 300 284 452 307 q 163 287 243 275 q 35 314 106 294 q -30 105 -15 130 q 128 21 12 56 q 417 -3 267 -21 q 588 73 510 7 q 708 229 659 132 q 758 435 762 336 q 671 619 753 551 q 353 705 557 713 q 357 733 351 712 q 361 749 359 740 q 363 756 362 752 l 365 759 l 366 762 q 631 796 372 781 q 616 1016 621 987 l 142 964 z "},"6":{"ha":716,"x_min":-1,"x_max":756,"o":"m 516 120 l 277 127 l 319 425 l 530 406 l 516 120 m 463 663 q 610 758 526 728 l 579 922 q 148 686 302 878 q 53 528 91 616 q 11 395 26 463 q -1 296 -1 347 q 32 153 1 220 q 115 35 62 86 q 237 -42 168 -15 q 385 -69 308 -71 q 530 -37 461 -68 q 650 43 598 -9 q 728 162 701 96 q 755 307 756 232 q 669 536 752 436 q 463 663 587 633 z "},"7":{"ha":716,"x_min":24,"x_max":683,"o":"m 24 930 l 683 939 l 498 27 l 235 79 l 323 621 l 83 630 l 24 930 z "},"8":{"ha":716,"x_min":-18,"x_max":760,"o":"m 254 63 l 307 239 l 504 239 l 513 54 l 254 63 m 544 679 l 513 581 l 332 593 l 328 699 l 544 679 m 607 463 q 680 541 654 494 q 707 644 707 590 q 633 806 707 739 q 454 872 559 872 q 274 806 349 872 q 200 644 200 739 q 241 519 200 576 q 55 383 127 479 q -18 163 -18 284 q 13 16 -18 85 q 96 -104 42 -52 q 220 -186 150 -157 q 371 -216 292 -216 q 646 -104 532 -216 q 728 16 699 -52 q 760 163 760 85 q 718 333 760 252 q 607 463 677 410 z "},"9":{"ha":716,"x_min":-11,"x_max":700,"o":"m 238 584 l 241 740 l 462 788 l 452 545 l 238 584 m 357 989 q 104 884 211 985 q 25 774 54 836 q -7 642 -5 711 q 63 433 -11 523 q 252 319 136 343 q 124 213 210 257 q 47 182 81 191 q 52 31 52 32 q 170 67 52 24 q 254 98 212 82 q 300 117 293 113 q 656 446 558 237 q 697 627 695 530 q 664 804 700 724 q 552 940 626 892 q 357 989 470 993 z "},"\u0000":{"ha":0,"x_min":0,"x_max":0,"o":""}," ":{"ha":241,"x_min":0,"x_max":0,"o":""},"!":{"ha":292,"x_min":13,"x_max":297,"o":"m 297 966 l 45 966 l 75 347 l 205 339 l 297 966 m 214 256 l 50 277 l 13 66 l 233 20 l 214 256 z "},"\"":{"ha":340,"x_min":-47,"x_max":448,"o":"m 170 1103 l -47 1098 l -22 835 l 155 821 l 170 1103 m 448 1130 l 210 1122 l 243 853 l 401 880 l 448 1130 z "},"#":{"ha":745,"x_min":-1,"x_max":733,"o":"m 32 357 l 24 242 l 131 250 l 111 18 l 227 39 l 254 258 l 442 269 l 425 63 l 543 68 l 579 277 l 707 286 l 699 425 l 604 416 l 622 518 l 733 522 l 728 671 l 648 666 l 698 950 l 500 926 l 476 655 l 304 644 l 339 918 l 186 902 l 163 634 l -1 623 l 12 498 l 153 503 l 141 368 l 32 357 m 464 513 l 454 400 l 271 381 l 286 507 l 464 513 z "},"$":{"ha":612,"x_min":5,"x_max":623,"o":"m 597 368 q 456 475 562 433 q 410 490 438 483 l 385 496 l 361 503 q 271 541 302 517 q 254 555 261 548 q 240 572 245 564 q 250 608 228 593 q 309 621 281 629 q 347 591 330 615 q 368 550 360 573 q 371 534 370 541 q 371 528 372 528 q 565 565 372 528 q 501 690 551 642 q 406 745 463 728 l 417 842 l 264 865 l 245 748 q 47 599 83 714 q 42 491 28 541 q 124 385 54 431 q 193 351 159 361 q 205 346 198 349 l 220 342 q 248 333 238 336 q 295 303 281 321 q 305 259 310 285 q 279 221 300 233 q 191 204 244 200 q 102 229 140 208 l 102 229 l 101 230 l 99 231 q 93 235 96 233 q 77 245 84 240 q 58 264 56 259 q 5 90 58 264 q 167 45 90 58 l 156 -21 l 314 -60 l 325 38 q 467 83 405 47 q 553 158 517 113 q 608 258 595 210 q 597 368 623 320 z "},"%":{"ha":808,"x_min":-16,"x_max":842,"o":"m 548 909 l 178 146 l 280 50 l 695 865 l 548 909 m 134 804 l 252 770 l 239 663 l 124 682 l 134 804 m 1 671 q 83 550 16 593 q 228 524 150 507 q 350 608 307 541 q 378 753 393 675 q 295 874 361 831 q 150 901 228 918 q 28 816 72 883 q 1 671 -16 749 m 673 354 l 680 186 l 574 173 l 553 332 l 673 354 m 453 203 q 535 72 469 119 q 678 44 602 26 q 799 135 755 62 q 826 292 842 208 q 745 422 810 376 q 602 450 678 469 q 480 359 524 432 q 453 203 437 287 z "},"&":{"ha":415,"x_min":-1,"x_max":414,"o":"m 211 184 l 298 205 l 298 241 q 414 267 334 250 l 374 437 q 344 427 360 433 l 329 422 l 315 417 q 208 394 246 392 q 165 415 178 395 q 164 422 164 418 q 167 430 165 426 q 174 439 169 434 q 294 459 203 464 l 287 572 l 286 572 l 283 572 l 282 571 q 276 570 279 570 q 269 569 273 569 q 253 568 260 568 q 235 569 243 568 q 202 624 186 576 q 326 659 214 664 l 331 801 l 294 798 l 285 798 l 277 798 q 258 796 267 797 q 220 793 237 795 q 212 791 216 792 l 203 878 l 71 836 l 90 757 q 28 693 46 732 q 32 577 -1 634 q 74 530 47 551 q 22 433 31 486 q 39 335 12 380 q 199 229 98 237 l 211 184 z "},"'":{"ha":99,"x_min":-38,"x_max":208,"o":"m 208 1095 l -14 1149 l -38 861 l 125 853 l 208 1095 z "},"(":{"ha":397,"x_min":20,"x_max":450,"o":"m 396 89 l 241 -7 q 74 240 128 113 q 20 517 20 366 q 74 795 20 669 q 283 1075 128 922 l 450 1022 q 372 938 416 987 q 292 823 329 888 q 235 682 257 759 q 213 517 213 605 q 234 352 213 426 q 292 212 256 278 q 396 89 328 149 z "},")":{"ha":376,"x_min":-67,"x_max":363,"o":"m -14 -3 q 91 121 55 58 q 148 260 127 186 q 170 426 170 334 q 148 590 170 513 q 91 731 125 667 q 10 846 54 797 q -67 930 -33 896 l 100 983 q 309 704 254 830 q 363 426 363 577 q 309 148 363 275 q 142 -98 254 22 l -14 -3 z "},"*":{"ha":1264,"x_min":14,"x_max":1249,"o":"m 1041 872 q 1041 872 1041 872 l 1041 872 m 1079 457 q 995 498 1042 484 q 905 497 937 515 q 956 469 914 483 l 971 464 q 987 458 980 460 q 1012 441 1003 450 q 1049 363 1041 410 q 1037 279 1059 313 q 1019 253 1029 266 l 1015 248 l 1011 243 l 1005 235 q 984 186 991 216 q 941 131 977 153 q 876 112 907 111 q 853 115 864 113 l 850 116 l 846 117 l 840 117 q 804 107 828 119 q 741 94 774 93 q 703 123 697 94 q 713 149 705 132 l 720 163 q 726 178 724 172 q 711 243 734 202 l 701 259 l 691 275 q 678 306 681 293 q 673 343 675 321 q 670 393 670 369 q 690 476 671 456 q 713 445 707 467 q 716 423 715 435 l 717 412 l 718 400 q 722 356 718 369 q 747 327 728 334 q 755 351 757 336 q 744 380 753 360 l 741 387 l 738 395 q 733 409 734 403 q 739 435 730 425 q 760 420 750 433 q 767 408 763 416 l 770 401 l 774 394 q 790 372 783 378 q 816 370 801 364 q 806 409 825 389 l 799 417 l 791 425 q 782 445 783 435 q 814 433 790 446 q 836 420 821 429 l 848 414 l 859 407 q 897 391 885 393 q 911 407 913 389 q 846 475 907 454 q 793 489 827 482 l 781 492 l 769 494 q 749 499 757 496 q 842 559 785 545 q 865 561 850 562 l 877 559 l 890 558 q 935 570 920 556 q 886 609 928 608 q 794 587 854 610 l 769 576 l 744 566 q 698 547 712 553 q 635 536 649 529 q 635 570 627 541 q 659 629 642 595 q 692 685 676 663 q 719 707 711 709 q 709 661 711 684 q 739 674 729 656 q 749 711 747 688 q 724 637 790 710 q 698 610 713 626 l 691 603 l 685 597 q 673 585 677 589 q 649 555 648 559 q 730 577 671 551 l 753 588 q 775 598 768 595 q 812 612 800 609 q 867 650 823 639 q 885 655 875 653 l 903 659 q 934 666 925 663 q 852 686 914 707 q 804 665 834 680 l 792 659 q 782 654 786 656 q 764 647 771 649 q 804 716 763 678 l 821 731 q 838 745 833 741 q 864 775 857 762 q 880 806 870 785 l 887 821 l 895 837 q 939 886 913 872 q 961 897 951 892 q 986 907 975 904 q 1037 911 1017 918 q 1053 892 1051 907 q 1041 872 1054 878 q 1049 869 1043 872 q 1065 861 1057 866 q 1105 838 1089 850 q 1098 801 1154 805 q 1127 765 1117 789 q 1130 715 1138 739 q 1120 667 1118 678 q 1147 618 1122 662 q 1156 568 1156 603 q 1148 503 1156 534 q 1122 455 1138 469 q 1079 457 1103 439 m 655 290 l 656 277 q 659 250 659 261 q 649 199 660 218 q 621 172 639 180 q 587 163 609 167 l 578 163 l 570 161 q 553 158 559 160 q 526 140 535 153 q 441 116 505 109 q 389 126 421 119 l 377 129 l 366 131 q 346 135 353 134 q 290 172 310 140 q 274 243 270 202 q 262 296 276 269 q 248 319 257 306 l 240 331 l 233 342 q 213 390 216 370 q 228 448 209 418 q 244 475 234 458 l 252 488 l 258 499 q 289 541 275 526 q 382 588 324 581 q 392 589 388 588 q 403 590 397 589 q 427 593 416 591 q 484 595 458 595 q 581 573 555 595 q 553 542 603 555 l 543 540 l 533 537 q 514 532 520 534 q 490 522 493 527 q 512 514 492 518 l 522 513 l 532 511 q 551 507 544 509 q 557 467 600 494 q 525 450 545 458 l 507 444 l 489 436 q 427 395 446 419 q 446 370 402 363 q 480 378 461 372 q 502 387 497 384 q 525 406 512 393 l 536 417 l 546 429 q 592 465 573 457 q 581 387 604 429 l 572 370 q 564 353 567 361 q 555 314 555 333 q 596 353 583 326 q 614 409 604 368 q 616 414 614 410 q 621 425 618 419 q 635 449 629 439 q 660 449 657 479 q 660 412 661 433 l 659 394 l 656 376 q 654 302 651 328 l 655 290 m 207 672 q 180 670 203 672 q 161 669 168 669 q 142 669 150 669 q 107 711 96 673 q 140 754 115 734 q 189 766 169 776 q 187 795 163 785 q 198 799 191 796 l 204 801 l 210 803 q 224 814 222 808 q 212 832 226 821 l 207 837 q 203 842 204 839 q 199 851 198 846 q 208 863 201 860 q 213 864 210 863 l 218 865 q 224 893 231 867 q 233 917 220 910 q 258 920 241 922 q 286 931 273 919 l 291 937 l 296 942 q 312 950 304 947 q 355 945 331 956 q 375 934 363 941 l 385 928 l 393 922 q 422 917 414 909 q 431 943 429 922 l 431 951 l 433 959 q 436 972 434 968 q 460 979 443 985 q 489 949 474 974 q 503 924 495 939 l 509 911 l 515 897 q 540 848 531 862 q 568 826 554 827 q 583 798 574 814 q 600 772 593 781 q 606 852 610 814 q 578 926 602 901 q 566 938 572 932 q 561 942 564 940 l 556 946 q 545 958 547 954 q 556 1003 541 967 q 612 1078 540 1060 q 673 1087 635 1084 l 686 1088 l 693 1089 l 699 1089 q 718 1092 712 1090 q 814 1044 768 1101 q 850 993 832 1023 q 864 967 857 981 q 870 955 867 961 l 873 949 l 876 943 q 843 830 903 889 q 789 787 823 810 l 776 778 q 763 769 770 774 q 741 755 746 759 q 747 800 739 779 q 711 760 727 794 l 705 748 q 698 736 701 741 q 675 720 689 724 q 675 730 675 721 q 675 751 675 739 q 670 809 673 784 q 646 846 661 888 q 643 806 642 832 q 644 781 643 796 l 646 769 l 647 756 q 629 673 652 693 l 626 681 l 622 689 l 614 706 q 595 739 604 725 q 537 774 570 772 q 547 740 535 757 q 557 726 551 734 l 564 719 l 570 711 q 591 682 587 694 q 589 645 598 665 q 544 670 571 648 l 532 680 l 520 690 q 496 711 505 703 q 447 734 468 732 q 396 709 420 736 q 433 688 409 695 q 454 684 441 686 l 465 682 l 476 680 q 515 662 501 673 q 541 616 534 646 q 468 612 516 608 l 449 614 l 431 615 q 393 613 410 616 q 373 608 387 611 l 362 604 l 351 602 q 309 600 324 595 q 275 593 292 604 q 262 584 269 590 l 257 579 l 254 577 l 252 575 q 241 572 243 568 q 246 612 239 579 q 209 627 220 612 q 207 672 196 644 m 631 1183 q 391 1134 506 1183 q 195 1002 281 1087 q 63 806 110 916 q 14 565 14 691 q 63 325 14 439 q 195 129 110 214 q 391 -3 281 43 q 631 -52 506 -52 q 872 -3 758 -52 q 1068 129 983 43 q 1200 325 1154 214 q 1249 565 1249 439 q 1200 806 1249 691 q 1068 1002 1154 916 q 872 1134 983 1087 q 631 1183 758 1183 z "},"+":{"ha":562,"x_min":-9,"x_max":563,"o":"m 206 403 l -9 389 l 14 566 l 205 587 l 203 764 l 382 779 l 385 606 l 547 624 l 563 427 l 389 415 l 391 238 l 208 218 l 206 403 z "},",":{"ha":271,"x_min":8,"x_max":255,"o":"m 81 -162 l 145 -153 l 204 -39 l 255 175 l 15 165 l 8 -41 l 115 -40 l 81 -162 z "},"-":{"ha":423,"x_min":15,"x_max":406,"o":"m 393 581 l 15 581 l 28 372 l 406 393 l 393 581 z "},".":{"ha":291,"x_min":12,"x_max":271,"o":"m 271 -22 l 12 -22 l 19 146 l 252 168 l 271 -22 z "},"/":{"ha":426,"x_min":-28,"x_max":488,"o":"m 341 904 l -28 141 l 73 45 l 488 859 l 341 904 z "},":":{"ha":294,"x_min":16,"x_max":298,"o":"m 256 713 l 16 693 l 37 496 l 273 530 l 256 713 m 267 327 l 48 312 l 112 71 l 298 130 l 267 327 z "},";":{"ha":278,"x_min":25,"x_max":296,"o":"m 296 691 l 57 711 l 44 514 l 283 508 l 296 691 m 140 -4 l 187 -31 l 241 109 l 243 309 l 25 331 l 47 83 l 153 97 l 140 -4 z "},"<":{"ha":1287,"x_min":10,"x_max":1292,"o":"m 1187 680 q 1159 687 1175 682 l 1145 692 l 1131 697 q 1065 715 1092 713 q 930 707 1013 720 q 899 702 918 705 l 884 699 l 869 696 q 814 689 834 690 q 945 798 871 724 l 974 827 l 1004 857 q 1065 914 1038 891 q 1070 957 1061 937 l 1074 965 l 1078 973 q 1083 992 1082 983 l 1048 1010 l 1014 1027 q 942 1059 975 1046 q 772 1096 858 1091 q 660 918 690 1041 q 650 689 634 813 q 641 677 643 689 l 640 672 l 639 668 q 633 663 637 664 q 628 697 631 677 l 626 715 l 623 733 q 612 806 617 778 q 564 940 595 892 q 537 959 559 946 q 519 970 526 966 q 503 983 509 977 q 482 1011 492 996 q 475 1023 479 1016 l 471 1029 l 468 1035 q 434 1061 454 1058 q 345 1034 392 1068 q 326 1019 336 1027 l 307 1003 q 270 975 283 983 q 239 957 257 966 l 223 949 l 208 941 q 157 905 174 922 q 265 821 198 863 q 326 785 290 805 l 356 768 l 387 750 q 598 576 543 662 q 574 589 578 572 l 574 597 l 572 606 q 564 620 570 615 q 429 667 527 652 q 261 672 338 682 q 102 614 174 661 q 19 516 31 568 q 25 486 16 503 l 28 479 l 33 473 q 36 456 36 464 q 24 408 37 440 l 20 395 q 16 382 18 389 q 10 352 11 366 q 64 299 39 313 q 149 291 97 281 q 246 338 182 298 q 302 376 267 351 l 330 395 q 356 412 345 405 q 395 439 374 425 l 414 453 l 431 466 q 497 513 476 499 q 625 542 568 556 q 607 646 597 602 q 628 645 622 651 q 633 629 632 642 l 634 624 l 635 619 q 637 610 635 614 q 650 603 640 602 q 656 621 654 609 l 659 630 l 661 640 q 685 663 669 661 q 680 609 687 626 q 675 601 678 606 l 673 597 l 671 592 q 659 568 664 580 q 672 566 665 564 q 678 569 675 567 l 683 572 q 690 576 688 576 q 694 568 693 576 q 673 547 680 550 q 642 551 661 541 q 644 537 642 545 l 646 532 q 647 528 647 530 q 633 516 648 521 q 621 522 627 517 l 616 525 l 610 528 q 581 534 597 536 q 508 432 531 509 q 492 362 501 408 l 485 326 q 477 291 481 306 q 469 269 475 281 l 464 259 l 458 248 q 443 205 444 222 q 462 104 439 154 q 521 32 484 54 q 614 -1 547 15 q 657 -8 642 -7 q 667 -3 674 -9 q 682 -23 682 -10 l 681 -28 l 681 -34 q 685 -46 681 -41 q 798 17 758 -40 q 839 151 833 67 q 827 307 844 224 q 780 438 810 385 q 873 388 808 406 q 902 381 886 385 l 931 374 q 987 361 968 367 q 1017 348 1000 357 l 1031 339 l 1046 330 q 1109 309 1084 309 q 1157 319 1127 308 l 1168 324 l 1180 329 q 1204 334 1193 333 q 1221 383 1204 357 q 1237 404 1227 393 q 1255 424 1243 412 q 1282 457 1278 448 q 1282 481 1292 473 l 1281 476 l 1280 471 q 1273 465 1278 465 q 1272 505 1270 484 q 1274 523 1272 513 l 1275 531 l 1276 539 q 1273 585 1281 575 q 1261 604 1272 581 q 1251 624 1255 617 q 1238 637 1244 634 q 1227 627 1230 627 q 1227 634 1225 628 l 1228 640 q 1228 647 1228 644 q 1221 654 1227 654 q 1215 644 1220 648 q 1210 640 1213 642 l 1204 637 q 1206 658 1209 653 q 1199 661 1205 661 l 1196 661 l 1194 661 q 1190 662 1191 661 q 1187 680 1185 666 m 1281 476 l 1280 471 q 1273 465 1278 465 q 1272 505 1270 484 q 1274 523 1272 513 l 1275 531 l 1276 539 q 1273 585 1281 575 q 1261 604 1272 581 q 1251 624 1255 617 q 1238 637 1244 634 q 1227 627 1230 627 q 1227 634 1225 628 l 1228 640 q 1228 647 1228 644 q 1221 654 1227 654 q 1215 644 1220 648 q 1210 640 1213 642 l 1204 637 q 1206 658 1209 653 q 1199 661 1205 661 l 1196 661 l 1194 661 q 1190 662 1191 661 q 1187 680 1185 666 q 1159 687 1175 682 l 1145 692 l 1131 697 q 1065 715 1092 713 q 930 707 1013 720 q 899 702 918 705 l 884 699 l 869 696 q 814 689 834 690 q 945 798 871 724 l 974 827 l 1004 857 q 1065 914 1038 891 q 1070 957 1061 937 l 1074 965 l 1078 973 q 1083 992 1082 983 l 1048 1010 l 1014 1027 q 942 1059 975 1046 q 772 1096 858 1091 q 660 918 690 1041 q 650 689 634 813 q 641 677 643 689 l 640 672 l 639 668 q 633 663 637 664 q 628 697 631 677 l 626 715 l 623 733 q 612 806 617 778 q 564 940 595 892 q 537 959 559 946 q 519 970 526 966 q 503 983 509 977 q 482 1011 492 996 q 475 1023 479 1016 l 471 1029 l 468 1035 q 434 1061 454 1058 q 345 1034 392 1068 q 326 1019 336 1027 l 307 1003 q 270 975 283 983 q 239 957 257 966 l 223 949 l 208 941 q 157 905 174 922 q 265 821 198 863 q 326 785 290 805 l 356 768 l 387 750 q 598 576 543 662 q 574 589 578 572 l 574 597 l 572 606 q 564 620 570 615 q 429 667 527 652 q 261 672 338 682 q 102 614 174 661 q 19 516 31 568 q 25 486 16 503 l 28 479 l 33 473 q 36 456 36 464 q 24 408 37 440 l 20 395 q 16 382 18 389 q 10 352 11 366 q 64 299 39 313 q 149 291 97 281 q 246 338 182 298 q 302 376 267 351 l 330 395 q 356 412 345 405 q 395 439 374 425 l 414 453 l 431 466 q 497 513 476 499 q 625 542 568 556 q 607 646 597 602 q 628 645 622 651 q 633 629 632 642 l 634 624 l 635 619 q 637 610 635 614 q 650 603 640 602 q 656 621 654 609 l 659 630 l 661 640 q 685 663 669 661 q 680 609 687 626 q 675 601 678 606 l 673 597 l 671 592 q 659 568 664 580 q 672 566 665 564 q 678 569 675 567 l 683 572 q 690 576 688 576 q 694 568 693 576 q 673 547 680 550 q 642 551 661 541 q 644 537 642 545 l 646 532 q 647 528 647 530 q 633 516 648 521 q 621 522 627 517 l 616 525 l 610 528 q 581 534 597 536 q 508 432 531 509 q 492 362 501 408 l 485 326 q 477 291 481 306 q 469 269 475 281 l 464 259 l 458 248 q 443 205 444 222 q 462 104 439 154 q 521 32 484 54 q 614 -1 547 15 q 657 -8 642 -7 q 667 -3 674 -9 q 682 -23 682 -10 l 681 -28 l 681 -34 q 685 -46 681 -41 q 798 17 758 -40 q 839 151 833 67 q 827 307 844 224 q 780 438 810 385 q 873 388 808 406 q 902 381 886 385 l 931 374 q 987 361 968 367 q 1017 348 1000 357 l 1031 339 l 1046 330 q 1109 309 1084 309 q 1157 319 1127 308 l 1168 324 l 1180 329 q 1204 334 1193 333 q 1221 383 1204 357 q 1237 404 1227 393 q 1255 424 1243 412 q 1282 457 1278 448 q 1282 481 1292 473 l 1281 476 z "},"=":{"ha":585,"x_min":12,"x_max":578,"o":"m 14 724 l 578 755 l 572 572 l 12 576 l 14 724 m 34 468 l 26 317 l 542 279 l 534 475 l 34 468 z "},">":{"ha":1263,"x_min":-14,"x_max":1268,"o":"m 644 574 q 709 656 661 592 q 810 798 763 728 q 906 1003 941 991 q 823 899 895 1006 q 795 859 811 882 q 783 840 790 850 l 777 831 l 771 822 q 742 779 746 783 q 669 698 699 727 q 582 633 625 656 q 583 577 568 596 q 644 574 599 556 m 945 1130 q 937 1112 945 1120 q 920 1105 930 1105 q 902 1112 909 1105 q 895 1130 895 1120 q 902 1147 895 1140 q 920 1154 909 1154 q 937 1147 930 1154 q 945 1130 945 1140 m 1020 1143 q 1013 1125 1020 1133 q 996 1118 1006 1118 q 978 1125 985 1118 q 971 1143 971 1133 q 978 1160 971 1153 q 996 1168 985 1168 q 1013 1160 1006 1168 q 1020 1143 1020 1153 m 1069 1080 q 1063 1062 1069 1069 q 1045 1055 1055 1055 q 1027 1062 1035 1055 q 1020 1080 1020 1069 q 1027 1097 1020 1090 q 1045 1105 1035 1105 q 1063 1097 1055 1105 q 1069 1080 1069 1090 m 1018 1021 q 1010 1004 1018 1011 q 993 997 1003 997 q 975 1004 983 997 q 968 1021 968 1011 q 975 1039 968 1031 q 993 1046 983 1046 q 1010 1039 1003 1046 q 1018 1021 1018 1031 m 937 1048 q 930 1031 937 1038 q 912 1024 922 1024 q 895 1031 902 1024 q 888 1048 888 1038 q 895 1066 888 1059 q 912 1073 902 1073 q 930 1066 922 1073 q 937 1048 937 1059 m 98 548 q 205 553 140 566 l 232 549 q 258 545 247 547 q 315 549 289 543 q 352 545 319 550 l 367 542 l 382 539 q 414 536 400 536 q 467 580 494 530 q 404 623 448 612 q 362 629 387 627 l 340 631 l 317 632 q 227 643 256 635 q 160 693 181 657 q 245 706 204 711 q 329 680 278 702 q 334 677 331 679 l 337 676 l 340 675 q 356 667 349 670 q 391 655 376 659 q 424 687 434 646 q 397 723 419 707 q 376 737 389 730 l 365 743 l 354 749 q 313 777 325 766 q 295 817 295 795 q 364 802 332 827 q 391 777 377 793 l 403 762 l 415 747 q 463 705 444 711 q 526 728 492 695 q 534 853 564 766 q 465 975 510 922 q 532 954 513 999 q 539 933 536 946 l 543 922 l 546 911 q 561 869 553 882 q 587 835 578 836 q 597 854 594 834 l 599 863 l 600 873 q 604 893 602 886 q 616 919 608 916 q 637 822 642 891 q 633 793 635 810 l 631 779 l 629 765 q 624 715 625 731 q 728 867 692 787 q 755 1047 770 962 q 728 1105 745 1103 q 693 1080 715 1107 l 684 1068 l 675 1057 q 659 1038 665 1044 q 633 1046 642 1023 q 630 1059 631 1051 l 627 1072 q 619 1099 623 1090 q 581 1133 607 1132 q 555 1116 568 1133 l 549 1109 l 544 1103 q 530 1095 538 1097 q 484 1101 513 1091 l 472 1105 l 460 1108 q 437 1111 448 1112 q 401 1074 438 1083 q 370 1069 389 1071 l 361 1069 l 355 1068 q 342 1067 347 1067 q 297 1029 311 1062 q 288 998 293 1017 l 285 981 l 281 964 q 161 913 218 996 q 118 840 144 889 l 109 821 l 99 804 q 81 773 89 785 q 45 706 65 748 q 12 614 21 653 q 98 548 -14 500 m 591 437 q 565 403 574 436 q 553 329 559 381 l 550 309 l 548 288 q 542 249 545 264 q 519 197 534 209 q 473 233 452 140 q 495 307 479 262 q 500 323 498 314 l 503 330 l 506 336 q 511 353 511 350 q 466 354 488 367 q 427 317 451 346 l 417 307 l 407 296 q 386 277 395 284 q 338 265 362 259 q 349 290 334 278 q 386 312 359 298 l 397 318 l 407 323 q 426 335 418 330 q 446 364 445 349 q 397 354 435 368 q 361 340 385 350 l 341 332 l 322 325 q 253 304 275 307 q 223 323 223 302 q 294 375 222 356 q 326 382 307 378 l 360 390 q 423 406 401 399 q 468 425 448 410 q 483 458 491 441 q 479 463 481 460 l 479 464 l 478 464 q 410 477 463 475 l 390 477 q 371 477 382 477 q 345 477 349 477 l 316 479 l 288 481 q 229 484 252 484 q 115 471 162 485 l 104 468 l 92 465 q 71 456 80 460 q 41 422 50 444 q 41 416 41 420 q 43 410 43 412 q 46 407 45 408 l 47 406 l 48 405 q 138 420 76 406 q 210 427 171 427 q 245 425 226 426 l 281 421 q 125 380 164 393 q 96 366 111 374 q 68 347 78 357 q 78 304 41 321 q 99 246 110 289 q 93 228 97 239 l 86 210 q 78 176 79 188 q 142 157 119 178 q 159 135 151 148 l 165 123 l 170 111 q 198 71 185 80 q 258 66 219 56 q 311 47 292 76 q 326 20 318 38 l 331 5 q 337 -9 335 -4 q 398 -49 361 -60 q 415 -43 405 -47 l 424 -39 l 433 -35 q 473 -22 456 -24 q 515 -25 490 -20 l 536 -31 q 556 -36 549 -35 q 630 -9 604 -45 q 663 90 658 28 q 661 196 667 131 q 659 205 660 199 l 659 211 l 659 218 q 656 250 657 236 q 644 333 651 298 q 591 437 625 440 m 1190 641 l 1187 650 q 1181 669 1184 661 q 1165 704 1174 691 q 1099 718 1141 739 q 1004 692 1054 695 q 981 691 994 691 l 969 691 l 957 690 q 903 688 925 690 q 863 683 887 687 q 808 670 833 677 q 736 619 738 648 q 803 620 747 618 q 827 621 818 621 l 852 622 q 905 622 882 623 q 1034 567 1040 618 q 985 559 1022 559 q 951 560 972 559 l 932 561 l 913 562 q 804 537 817 564 q 843 526 821 532 l 863 522 l 883 518 q 962 496 935 507 q 992 475 976 491 q 1018 439 1009 457 q 989 388 1041 391 q 905 418 955 386 l 885 431 l 865 444 q 825 463 842 457 q 794 425 764 483 q 823 379 804 406 q 837 360 829 370 l 840 357 l 842 353 q 846 349 845 350 q 790 380 820 351 q 764 408 779 391 l 751 423 l 739 439 q 686 490 707 477 q 626 499 655 510 q 622 460 583 484 q 656 444 635 452 l 663 440 q 670 438 667 439 q 680 435 678 435 q 735 378 708 422 l 745 360 l 755 341 q 775 308 768 318 q 803 273 784 294 l 819 256 l 834 239 q 870 158 869 196 q 899 113 870 136 q 949 83 922 94 q 956 170 1013 56 q 932 213 946 189 q 909 254 923 231 q 882 300 883 298 q 926 264 902 288 l 947 243 l 968 223 q 1065 162 1021 173 q 1081 256 1139 144 q 1057 298 1072 275 q 1033 338 1046 317 q 1022 354 1027 345 l 1017 361 l 1013 368 q 1004 382 1004 380 q 1056 376 1023 389 q 1085 363 1068 372 l 1100 355 l 1115 347 q 1173 323 1152 328 q 1219 336 1202 318 q 1223 378 1236 353 l 1217 387 l 1212 397 q 1209 417 1207 408 q 1253 460 1259 433 q 1248 473 1251 466 l 1244 479 l 1241 486 q 1230 517 1232 505 q 1262 539 1255 521 q 1259 578 1268 555 q 1231 614 1249 599 q 1193 632 1212 631 l 1190 641 m 43 410 l 43 410 l 43 410 l 43 410 z "},"?":{"ha":675,"x_min":-2,"x_max":662,"o":"m 242 169 l 521 225 l 507 376 l 662 422 l 647 793 q -2 717 261 1006 l 41 414 l 218 450 l 216 568 q 431 629 308 699 l 437 539 l 255 500 l 242 169 m 267 -75 l 513 -50 l 494 140 l 266 100 l 267 -75 z "},"@":{"ha":1143,"x_min":1,"x_max":1142,"o":"m 97 391 q 98 391 98 391 l 97 391 m 1076 511 q 1062 462 1062 492 q 1063 436 1062 452 l 1065 422 l 1067 410 q 1063 361 1069 378 q 1021 321 1053 336 q 995 308 1012 316 l 983 301 l 970 295 q 924 277 943 282 q 819 286 874 262 q 810 290 814 289 q 800 295 805 292 q 777 305 787 300 q 724 332 747 319 q 648 399 661 369 q 654 416 641 415 q 687 410 663 418 l 697 408 l 707 404 q 727 398 720 400 q 753 395 748 392 q 736 412 753 399 l 729 418 l 721 425 q 705 438 711 433 q 718 474 667 473 q 755 471 733 474 l 774 467 l 793 464 q 868 466 840 456 q 863 496 905 479 q 828 507 848 502 q 805 511 810 511 q 776 507 792 511 l 761 503 l 746 499 q 688 494 709 490 q 733 551 694 528 l 749 559 q 765 570 759 565 q 791 597 782 581 q 736 587 762 602 q 694 549 722 578 q 690 547 693 549 q 681 541 686 544 q 656 528 667 533 q 635 541 623 514 q 651 570 641 555 l 661 585 l 671 598 q 708 656 699 634 l 713 667 l 717 679 q 728 702 723 692 q 760 739 741 728 q 798 746 777 748 q 832 735 810 745 l 840 732 l 848 728 q 865 723 858 724 q 897 724 883 718 q 985 699 930 739 q 1027 665 1002 688 l 1036 656 l 1045 649 q 1061 635 1055 640 q 1095 577 1090 613 q 1076 511 1098 543 m 1008 46 q 959 28 991 31 q 910 43 924 24 q 898 18 925 14 q 886 21 894 19 l 880 22 l 874 23 q 857 22 861 26 q 859 1 852 18 l 861 -5 q 863 -12 863 -9 q 861 -21 864 -18 q 849 -26 856 -27 q 843 -24 846 -26 l 838 -22 q 819 -43 825 -18 q 801 -58 814 -58 q 777 -47 790 -57 q 747 -42 764 -39 l 740 -44 l 732 -45 q 714 -44 723 -46 q 678 -18 694 -39 q 665 1 672 -11 l 660 11 l 654 20 q 631 39 642 42 q 612 22 623 38 l 607 16 l 602 10 q 593 1 597 4 q 568 7 581 -6 q 556 47 558 19 q 555 74 555 58 l 556 88 l 557 102 q 557 155 559 139 q 543 187 555 180 q 542 217 543 200 q 539 248 541 237 q 496 185 511 218 q 488 111 477 144 q 493 96 490 103 l 495 89 l 498 83 q 502 68 502 73 q 471 37 502 58 q 386 5 460 -17 q 328 28 363 12 q 315 35 323 31 l 309 37 l 303 40 q 285 47 291 45 q 220 136 236 65 q 213 195 214 161 q 212 224 212 208 l 212 237 l 213 249 q 294 324 214 307 q 362 332 321 330 l 379 332 l 394 332 q 421 333 414 333 q 394 300 412 313 q 445 313 415 294 l 456 321 q 468 326 463 324 q 495 328 481 332 q 491 321 494 328 q 481 303 487 313 q 458 253 468 275 q 463 211 431 185 q 485 242 474 220 q 494 262 489 250 l 499 273 l 504 284 q 558 343 529 338 l 557 335 l 557 326 l 557 309 q 559 273 557 288 q 594 214 566 231 q 602 246 604 227 q 598 264 601 254 l 595 273 l 593 281 q 588 316 587 304 q 607 345 590 334 q 636 301 622 334 l 642 288 l 648 273 q 661 245 655 255 q 694 200 675 213 q 751 195 717 184 q 727 231 745 213 q 710 245 721 236 l 701 252 l 692 260 q 666 294 673 277 q 665 344 656 315 q 731 310 690 338 l 747 299 l 763 288 q 798 272 782 277 q 818 266 804 269 l 829 262 l 840 259 q 880 239 867 251 q 912 227 892 228 q 928 228 920 227 l 935 229 l 941 230 q 952 227 954 232 q 930 197 951 220 q 956 165 953 184 q 937 129 960 146 q 962 116 941 126 q 980 107 972 111 q 996 97 989 102 q 1008 46 1036 71 m 183 328 q 158 330 168 329 q 130 334 142 332 q 83 357 98 341 q 78 380 72 368 q 97 391 83 393 q 92 397 96 392 q 81 412 86 404 q 56 451 64 433 q 79 478 28 503 q 70 522 68 497 q 90 564 73 549 q 121 598 118 588 q 120 651 123 603 q 135 696 119 669 q 172 745 151 724 q 218 771 197 768 q 256 748 242 774 q 311 672 276 707 q 393 627 355 628 q 361 675 391 643 l 349 688 q 338 700 342 694 q 323 727 327 715 q 325 808 311 766 q 376 871 340 854 q 404 883 389 878 l 410 885 l 415 887 l 425 890 q 466 920 446 899 q 530 942 488 942 q 597 924 570 942 q 616 911 608 918 l 618 908 l 621 906 q 627 902 625 903 q 663 892 636 895 q 726 871 697 888 q 747 828 765 848 q 726 811 741 821 l 713 803 q 701 795 706 798 q 685 734 682 779 l 686 716 q 687 698 687 704 q 684 667 688 678 q 672 633 680 652 q 651 591 663 610 q 595 534 622 541 q 589 571 584 550 q 596 591 591 580 l 601 600 l 606 610 q 622 648 619 635 q 613 684 626 669 q 595 669 600 682 q 591 640 592 660 l 591 632 l 590 625 q 587 610 589 616 q 571 592 583 596 q 558 614 561 600 q 557 629 557 621 l 557 636 l 557 644 q 553 669 557 661 q 532 685 548 682 q 522 648 515 673 l 525 637 l 528 627 q 528 606 530 614 q 504 633 519 610 q 490 654 499 640 l 483 665 l 476 676 q 449 709 459 701 q 429 703 435 718 q 456 614 410 663 q 496 576 470 599 l 507 568 l 516 560 q 532 545 526 551 q 421 543 477 527 q 399 554 412 546 l 389 562 l 378 569 q 332 583 352 587 q 358 526 321 547 q 451 497 387 509 l 478 492 l 505 488 q 555 480 540 483 q 616 457 607 471 q 602 430 622 449 q 552 394 583 413 q 496 366 522 375 q 463 361 469 355 q 492 394 480 375 q 459 398 477 407 q 433 373 446 391 q 490 420 397 395 q 526 429 505 424 l 535 431 l 544 433 q 560 437 555 436 q 595 449 594 446 q 513 472 578 463 l 487 475 q 462 478 470 477 q 422 486 435 482 q 356 482 401 469 q 337 488 348 484 l 328 491 l 319 494 q 288 504 298 502 q 352 446 288 460 q 406 439 372 442 l 418 437 l 430 436 q 450 433 443 435 q 382 397 436 407 l 359 394 q 338 391 345 392 q 301 379 313 386 q 273 362 291 374 l 259 353 l 245 345 q 183 328 212 326 m 1107 455 q 1135 572 1142 510 q 1114 639 1132 608 q 1067 693 1097 671 q 1059 700 1065 696 q 1048 709 1056 703 l 1042 715 l 1036 721 q 1021 733 1027 728 q 988 758 1003 748 q 878 796 931 796 q 847 793 862 796 l 846 793 q 833 798 838 796 q 827 833 832 817 q 803 874 819 855 q 760 909 787 893 l 760 909 l 760 909 q 668 941 717 935 q 648 955 659 948 q 592 979 623 970 q 534 986 564 986 q 407 937 455 986 q 404 935 406 935 q 402 933 403 933 l 399 932 l 396 930 l 392 929 l 388 928 q 378 924 382 926 q 354 913 366 919 q 273 834 302 888 l 261 835 q 138 774 195 835 q 93 711 111 745 q 71 623 68 665 l 71 618 q 29 543 39 587 q 10 507 16 527 q 8 446 1 478 q 18 416 12 432 q 32 391 24 404 q 66 296 27 336 q 114 263 86 276 q 153 250 132 255 q 154 201 153 223 q 162 148 157 172 q 196 66 172 100 q 232 26 212 43 q 283 -2 255 8 q 290 -5 285 -3 l 295 -7 l 300 -10 l 306 -13 l 312 -16 q 326 -22 319 -19 q 355 -35 342 -29 q 439 -52 402 -52 q 481 -47 461 -52 q 517 -31 500 -41 q 528 -37 522 -35 q 583 -52 554 -52 q 606 -50 595 -52 q 625 -64 615 -58 q 675 -87 648 -81 l 675 -87 q 708 -91 692 -91 q 724 -90 715 -91 q 777 -102 750 -102 q 812 -96 795 -102 q 848 -76 832 -90 q 859 -67 854 -72 l 867 -64 q 902 -37 886 -54 q 911 -27 907 -33 l 913 -26 q 968 -16 941 -25 q 1025 15 1002 -5 q 1059 58 1047 34 q 1069 125 1074 90 q 1038 190 1063 161 q 1012 214 1027 203 q 1008 231 1010 222 l 1009 241 l 1009 241 l 1015 244 q 1080 296 1055 264 q 1106 351 1099 321 q 1112 399 1112 374 q 1111 421 1112 410 l 1110 431 l 1109 440 l 1108 444 l 1108 448 q 1107 455 1107 452 z "},"A":{"ha":854,"x_min":-25,"x_max":899,"o":"m 363 615 l 375 743 l 459 734 l 462 608 l 363 615 m 899 -50 l 667 937 l 254 966 l -25 109 l 233 12 l 318 424 l 471 387 l 470 -34 l 899 -50 z "},"B":{"ha":699,"x_min":22,"x_max":696,"o":"m 343 78 l 220 78 l 220 254 l 364 248 l 343 78 m 353 682 l 353 564 l 271 564 l 257 679 l 353 682 m 685 233 q 543 389 675 333 q 412 425 476 417 q 538 482 486 441 q 608 562 581 515 q 642 661 638 614 q 545 853 642 787 q 332 917 468 905 q 22 896 177 929 l 38 -24 q 471 -40 309 -71 q 656 54 601 -16 q 695 174 696 104 q 685 233 694 208 z "},"C":{"ha":795,"x_min":12,"x_max":836,"o":"m 376 300 l 391 747 l 808 767 q 651 930 749 869 q 434 990 549 991 q 268 951 347 989 q 134 849 192 915 q 16 517 12 711 q 150 188 20 323 q 289 90 211 125 q 456 55 370 54 q 685 130 581 56 q 836 319 785 201 l 376 300 z "},"D":{"ha":724,"x_min":5,"x_max":723,"o":"m 498 384 l 264 367 l 256 669 l 475 704 l 498 384 m 86 27 q 407 89 247 33 q 625 216 546 138 q 720 450 723 313 l 719 465 q 668 727 710 623 q 543 896 625 836 q 5 947 376 1015 l 86 27 z "},"E":{"ha":668,"x_min":5,"x_max":647,"o":"m 583 982 l 5 916 l 45 77 l 639 47 l 619 370 l 312 340 l 307 543 l 627 546 l 647 751 l 268 707 l 272 787 l 623 850 l 583 982 z "},"F":{"ha":686,"x_min":22,"x_max":731,"o":"m 50 3 l 22 863 l 731 973 l 731 670 l 270 622 l 270 505 l 600 532 l 600 305 l 277 250 l 277 -18 l 50 3 z "},"G":{"ha":979,"x_min":0,"x_max":984,"o":"m 984 401 l 962 566 l 563 470 l 585 240 l 403 199 l 336 532 l 826 751 q 648 881 755 842 q 416 895 538 922 q 243 822 324 876 q 110 692 166 769 q 27 523 54 614 q 9 334 0 429 q 62 161 18 240 q 173 34 104 84 q 326 -35 241 -18 q 505 -35 414 -54 q 739 89 636 -7 q 885 310 840 181 l 984 401 z "},"H":{"ha":839,"x_min":5,"x_max":843,"o":"m 549 887 l 562 559 l 385 564 l 358 937 l 5 861 l 149 -16 l 423 39 l 404 312 l 570 353 l 583 56 l 770 49 l 843 926 l 549 887 z "},"I":{"ha":348,"x_min":22,"x_max":352,"o":"m 352 893 l 22 869 l 32 -16 l 249 -16 l 352 893 z "},"J":{"ha":774,"x_min":1,"x_max":781,"o":"m 566 629 l 781 613 l 740 907 l 1 949 l 7 670 l 270 650 q 281 510 280 573 q 269 380 282 431 q 105 319 233 251 l 90 -12 q 169 -16 121 -16 q 342 10 264 -14 q 512 119 452 44 q 580 365 587 212 l 566 629 z "},"K":{"ha":941,"x_min":10,"x_max":1004,"o":"m 937 46 l 519 476 l 1004 891 l 599 924 l 391 728 l 432 984 l 65 986 l 10 97 l 277 35 l 326 329 l 574 -63 l 937 46 z "},"L":{"ha":719,"x_min":10,"x_max":732,"o":"m 96 1010 l 10 95 l 723 10 l 732 393 l 284 388 l 385 991 l 96 1010 z "},"M":{"ha":994,"x_min":10,"x_max":979,"o":"m 10 44 l 54 1017 l 313 987 l 522 590 l 725 997 l 979 972 l 968 -16 l 690 24 l 715 382 l 561 94 l 377 74 l 293 391 l 258 5 l 10 44 z "},"N":{"ha":1063,"x_min":12,"x_max":1043,"o":"m 79 -115 l 12 751 l 278 799 l 691 478 l 674 947 l 1010 1014 l 1043 80 l 699 7 l 368 328 l 403 -71 l 79 -115 z "},"O":{"ha":973,"x_min":12,"x_max":972,"o":"m 716 402 l 332 466 l 359 746 l 730 721 l 716 402 m 492 1044 q 305 1004 394 1044 q 152 896 218 966 q 50 736 86 827 q 12 540 12 642 q 50 345 12 437 q 152 184 86 254 q 305 76 218 115 q 492 37 394 37 q 679 76 589 37 q 831 184 765 115 q 935 345 898 254 q 972 540 972 437 q 935 736 972 642 q 831 896 898 827 q 679 1004 765 966 q 492 1044 589 1044 z "},"P":{"ha":707,"x_min":-13,"x_max":707,"o":"m 317 530 l 224 753 l 447 797 l 516 608 l 317 530 m 138 -109 l 484 -20 l 404 332 q 694 624 707 439 l 694 635 q 637 828 680 753 q 511 945 593 907 q -13 945 346 1023 l 138 -109 z "},"Q":{"ha":955,"x_min":-25,"x_max":960,"o":"m 247 387 l 404 752 l 665 651 l 471 283 l 247 387 m 954 102 l 806 176 q 887 327 857 245 q 889 708 960 526 q 793 854 855 793 q 644 946 729 918 q 467 962 558 974 q 296 902 378 949 q 149 778 213 854 q 47 602 83 699 q 46 220 -25 402 q 142 74 79 135 q 291 -18 205 10 q 568 -7 426 -62 l 740 -143 l 954 102 z "},"R":{"ha":848,"x_min":5,"x_max":882,"o":"m 271 574 l 237 851 l 456 830 l 477 616 l 271 574 m 882 263 l 635 514 q 697 657 699 577 l 696 667 q 648 852 687 781 q 526 969 606 929 q 5 987 365 1048 l 117 -18 l 463 54 l 397 391 q 433 403 414 397 l 737 83 l 882 263 z "},"S":{"ha":825,"x_min":-37,"x_max":828,"o":"m -37 110 q 83 335 83 334 q 102 302 80 328 q 119 284 110 294 q 126 278 123 281 q 128 276 127 277 l 129 275 l 130 274 q 235 216 172 235 q 355 215 303 196 q 399 260 385 226 q 399 323 413 294 q 347 377 387 351 q 314 397 336 385 l 297 406 q 282 416 288 412 q 204 482 243 440 q 130 650 127 565 q 135 703 130 671 q 150 756 140 730 q 180 816 161 788 q 308 918 226 885 q 564 941 410 960 q 699 882 632 930 q 789 781 757 841 q 824 608 828 707 q 564 611 565 611 q 566 619 565 611 q 566 641 566 629 q 552 704 563 675 q 511 755 537 741 q 432 753 479 773 q 409 706 400 739 q 422 679 413 694 q 439 655 429 667 q 543 578 472 615 l 573 563 l 602 548 q 658 514 636 530 q 806 328 781 427 q 787 176 825 256 q 743 110 773 146 q 684 50 716 77 q 600 -6 645 17 q 345 -47 486 -64 q -37 110 170 -26 z "},"T":{"ha":888,"x_min":-18,"x_max":912,"o":"m 912 636 l 830 936 l -18 794 l 78 465 l 359 522 l 467 -42 l 761 74 l 669 587 l 912 636 z "},"U":{"ha":899,"x_min":7,"x_max":912,"o":"m 7 763 l 87 154 q 106 103 91 133 q 138 54 119 77 q 189 1 159 24 q 697 -60 359 -136 q 806 7 752 -44 q 880 115 854 52 q 910 295 912 193 l 861 941 l 494 861 q 589 376 589 380 q 586 300 596 337 q 544 240 574 260 q 448 255 499 212 q 414 309 425 273 q 406 342 410 323 l 403 357 l 400 374 l 390 428 l 380 481 q 357 602 370 530 l 337 721 l 327 776 l 7 763 z "},"V":{"ha":821,"x_min":-20,"x_max":821,"o":"m -20 873 l 212 39 l 749 151 l 821 1088 l 541 1062 l 447 393 l 283 989 l -20 873 z "},"W":{"ha":1090,"x_min":-16,"x_max":1069,"o":"m -16 699 l 220 -79 l 498 -23 l 544 239 l 712 -16 l 1063 85 l 1069 856 l 754 821 l 734 504 l 583 800 l 419 780 l 378 552 l 288 785 l -16 699 z "},"X":{"ha":1026,"x_min":-32,"x_max":1059,"o":"m 1059 277 l 763 520 l 943 985 l 582 935 l 492 742 l 275 920 l -32 724 l 340 417 l 115 -62 l 549 -29 l 629 178 l 848 -2 l 1059 277 z "},"Y":{"ha":866,"x_min":-98,"x_max":967,"o":"m 588 977 l 967 930 l 685 524 l 685 -58 l 298 -33 l 243 493 l -98 1008 l 265 1026 l 419 705 l 588 977 z "},"Z":{"ha":988,"x_min":10,"x_max":1010,"o":"m 69 1056 l 39 714 l 429 761 l 10 346 l 13 113 l 1010 195 l 951 570 l 531 493 l 829 808 l 819 1104 l 69 1056 z "},"[":{"ha":1396,"x_min":-24,"x_max":1402,"o":"m 292 671 q 290 669 290 670 l 287 666 q 283 659 284 662 q 288 661 286 660 q 294 665 292 663 q 292 671 298 669 m 254 642 q 256 637 253 638 l 258 637 l 259 636 q 262 635 261 635 q 260 640 262 639 l 258 640 l 256 641 q 254 642 255 642 m 395 626 q 387 623 390 626 q 384 620 385 622 l 381 616 q 389 620 386 616 q 392 623 391 621 l 395 626 m 412 597 q 419 595 416 595 q 420 597 421 595 q 417 600 420 599 q 412 597 414 600 m 205 565 q 210 568 204 568 l 212 568 l 214 567 q 218 567 216 567 q 212 564 218 564 l 210 565 l 208 565 q 205 565 205 566 m 220 557 q 226 559 220 560 l 229 559 l 231 559 q 235 559 233 558 q 229 556 235 555 l 227 556 l 224 557 q 220 557 221 557 m 248 553 q 240 549 245 550 q 232 551 235 548 q 238 553 233 554 l 241 553 l 243 553 q 248 553 246 553 m 326 537 q 328 539 327 538 q 334 541 330 542 l 333 538 q 331 536 332 537 q 324 534 328 534 l 326 537 m 330 533 l 332 535 q 334 538 333 537 q 345 541 338 542 l 343 539 l 342 537 q 339 534 340 535 q 329 531 335 530 l 330 533 m 260 534 q 258 536 259 535 l 258 537 l 257 538 q 252 540 255 540 q 256 542 253 542 l 260 542 q 262 542 262 542 l 262 537 q 260 534 260 537 m 265 536 q 268 539 267 536 q 270 538 269 539 q 271 534 271 536 q 269 531 270 532 q 264 532 267 530 l 265 536 m 343 513 q 351 517 349 512 l 349 517 q 346 517 347 517 q 343 513 343 516 m 309 498 q 307 491 307 495 l 301 492 q 299 494 302 494 q 309 498 300 500 m 200 414 l 201 419 l 195 419 l 195 414 l 200 414 m 333 395 q 333 398 334 396 q 333 401 333 399 q 332 402 332 402 q 331 400 331 402 q 331 397 330 399 q 331 395 331 395 q 332 393 332 393 q 333 395 333 393 m 435 385 q 435 380 435 385 l 435 376 l 435 373 q 437 370 435 365 q 437 375 437 371 l 438 378 l 438 382 q 435 385 438 390 m 440 375 q 440 370 440 374 l 439 366 l 439 363 q 442 359 439 355 q 442 365 442 360 l 443 368 l 443 372 q 440 375 443 380 m 338 379 q 342 363 336 367 q 338 379 342 375 m 384 375 q 378 378 380 378 q 378 375 377 377 q 380 373 378 373 q 384 375 381 372 m 448 364 q 447 358 448 363 l 447 355 l 447 351 q 449 346 446 342 q 450 352 449 347 l 450 356 l 450 359 q 448 364 450 369 m 277 344 q 273 358 279 351 q 265 362 269 366 q 268 357 267 360 l 269 355 l 271 353 q 277 344 274 346 m 344 351 q 345 345 345 349 l 345 342 l 345 340 q 349 330 346 333 l 349 334 l 349 336 q 349 342 349 340 q 344 351 348 349 m 320 280 q 330 291 326 281 q 329 305 333 300 q 327 299 328 302 l 326 296 l 323 294 q 320 280 320 287 m 358 196 l 353 196 l 353 191 l 357 191 l 358 196 m 195 419 l 201 419 l 200 414 l 195 414 l 195 419 m 216 539 q 214 538 215 538 l 210 537 q 203 535 206 536 q 200 527 196 531 q 208 533 203 529 l 212 536 q 216 539 214 537 m 231 536 q 210 526 218 533 q 222 529 217 526 q 227 532 224 530 l 229 534 l 231 536 m 248 553 q 243 553 246 553 l 241 553 l 238 553 q 232 551 233 554 q 240 549 235 548 q 248 553 245 550 m 240 319 q 241 340 237 328 q 252 357 245 353 q 246 338 250 351 l 243 329 q 240 319 241 323 m 257 362 q 256 361 257 361 l 255 361 l 254 361 q 252 360 252 363 q 252 372 248 364 l 254 376 l 256 379 q 258 385 258 383 q 259 382 260 385 q 258 378 259 380 l 256 375 q 254 368 254 371 q 257 362 254 364 m 267 403 q 267 399 267 401 q 265 399 266 399 q 264 400 264 399 q 264 403 264 401 q 268 416 264 410 l 269 418 l 271 420 q 273 423 272 422 q 275 429 277 433 q 271 416 275 425 l 269 410 q 267 403 267 406 m 277 344 q 271 353 274 346 l 269 355 l 268 357 q 265 362 267 360 q 273 358 269 366 q 277 344 279 351 m 283 315 q 275 319 279 311 l 274 323 l 273 326 q 269 331 271 330 q 277 327 273 335 l 278 323 l 280 320 q 283 315 281 316 m 292 671 q 294 665 298 669 q 288 661 292 663 q 283 659 286 660 q 287 666 284 662 l 290 669 q 292 671 290 670 m 307 491 q 309 498 307 495 q 299 494 300 500 q 301 492 302 494 l 307 491 m 314 306 q 302 339 304 315 q 301 359 301 348 q 301 367 301 362 l 301 370 l 301 373 q 306 370 304 369 q 309 376 307 370 q 311 370 313 374 l 309 369 l 309 367 q 309 363 308 365 q 314 370 312 365 l 315 375 l 317 380 q 316 362 316 372 l 316 359 q 316 355 316 357 q 315 345 316 350 q 320 349 318 347 l 321 351 l 323 352 q 329 359 326 355 q 322 335 330 352 q 316 321 318 327 q 314 306 314 313 m 321 290 q 317 315 311 296 q 333 336 323 332 q 324 319 326 330 l 323 314 l 323 309 q 321 298 322 302 q 320 304 317 299 l 321 306 l 322 308 q 322 313 323 311 q 321 290 314 304 m 329 305 q 330 291 333 300 q 320 280 326 281 q 323 294 320 287 l 326 296 l 327 299 q 329 305 328 302 m 337 256 q 332 291 323 269 q 341 310 334 298 l 344 315 l 347 319 q 351 328 349 324 q 356 330 355 327 q 361 319 360 328 q 345 312 353 326 q 338 299 342 307 q 336 293 338 296 l 334 290 l 334 287 q 342 302 340 292 q 345 300 345 302 q 347 297 344 297 q 345 296 346 295 l 345 296 l 344 296 q 342 297 342 297 q 343 291 343 294 l 342 288 l 342 286 q 343 274 341 279 q 340 275 340 277 q 339 271 339 275 l 340 269 l 340 267 l 339 263 q 337 256 339 258 m 448 364 q 450 359 450 369 l 450 356 l 450 352 q 449 346 449 347 q 447 351 446 342 l 447 355 l 447 358 q 448 364 448 363 m 444 390 q 441 391 442 391 l 441 393 l 441 394 q 439 398 441 398 q 441 399 439 400 q 444 397 442 399 q 446 393 446 395 q 444 390 446 391 m 440 375 q 443 372 443 380 l 443 368 l 442 365 q 442 359 442 360 q 439 363 439 355 l 439 366 l 440 370 q 440 375 440 374 m 435 385 q 438 382 438 390 l 438 378 l 437 375 q 437 370 437 371 q 435 373 435 365 l 435 376 l 435 380 q 435 385 435 385 m 430 375 q 429 385 428 378 q 430 390 429 387 l 432 396 q 427 414 435 410 q 431 413 428 418 q 435 409 433 412 l 435 408 q 436 406 436 406 q 435 398 435 403 l 433 391 q 430 375 432 380 m 340 251 q 341 258 339 255 l 342 260 l 342 262 q 343 266 343 263 q 344 258 347 264 l 343 256 l 342 254 q 342 248 341 251 q 346 254 345 250 l 347 257 l 348 260 q 349 257 351 263 l 349 254 l 347 251 q 347 245 347 248 q 351 252 350 247 l 351 254 l 351 256 q 353 260 352 259 q 357 248 359 260 q 360 250 359 248 l 361 252 l 361 255 q 366 255 361 260 q 366 258 366 257 l 365 260 l 364 261 q 363 268 362 264 q 368 257 368 265 q 369 265 372 259 q 366 270 368 267 l 365 271 q 363 273 364 272 q 373 275 368 279 l 375 273 l 377 271 q 381 267 380 268 q 357 304 371 290 q 355 302 356 304 l 355 300 l 355 299 q 354 306 351 301 l 355 307 l 357 310 q 358 314 358 312 q 353 307 355 312 q 351 312 348 309 l 353 313 l 354 314 q 355 317 355 316 q 361 310 361 315 l 361 308 l 362 306 q 365 301 363 303 q 368 303 368 301 q 367 307 368 304 q 368 311 365 312 q 378 307 373 315 l 380 304 l 382 302 q 388 298 385 298 q 384 303 386 300 l 382 307 l 380 310 q 371 321 376 319 q 377 321 374 321 l 380 322 l 382 323 q 397 323 390 324 q 385 341 387 328 q 391 338 388 341 q 397 333 393 336 q 399 330 401 328 q 396 335 398 332 l 395 338 l 393 341 q 385 342 389 348 l 385 348 q 384 353 385 351 q 378 365 382 359 q 387 361 380 367 q 395 351 393 356 q 397 355 397 353 l 397 357 l 397 359 q 401 366 397 364 q 404 368 403 369 q 404 366 404 368 q 402 362 403 363 q 399 361 400 360 q 399 358 398 359 q 401 357 400 357 l 403 357 q 406 351 407 355 q 411 361 412 351 q 416 345 416 357 q 425 334 429 347 q 431 339 430 333 q 434 338 433 340 q 436 334 435 336 q 435 329 437 331 q 433 326 435 327 q 435 323 433 325 l 437 321 l 439 319 q 439 308 442 315 q 444 305 441 307 l 446 304 l 448 304 q 452 295 454 301 q 454 296 454 295 l 454 298 l 455 300 q 458 292 460 298 l 457 288 l 456 284 q 456 277 456 280 q 459 279 458 277 l 460 281 q 460 283 460 282 q 461 276 462 284 q 469 279 466 279 q 467 294 469 286 q 465 302 466 298 l 462 309 q 456 340 456 326 q 462 328 461 338 l 463 324 l 463 320 q 463 312 463 315 q 464 345 466 326 q 456 377 462 366 q 467 366 463 372 l 468 363 q 469 361 469 362 q 475 355 471 358 q 473 344 467 354 l 475 341 l 476 339 l 479 334 q 481 324 481 328 q 485 334 488 328 l 484 337 l 481 340 q 480 347 480 345 q 481 347 480 347 l 481 347 l 482 346 q 485 345 485 344 q 476 365 488 350 l 471 371 l 467 376 q 458 387 460 384 q 466 385 461 390 l 468 383 l 470 381 q 474 378 472 379 q 470 386 473 382 q 467 389 469 387 l 464 391 q 454 405 455 398 q 460 403 458 406 l 460 401 l 462 401 q 465 399 463 399 q 459 410 466 404 q 454 412 457 411 q 452 413 452 413 q 452 414 452 413 l 453 414 l 454 416 q 455 418 456 418 q 450 420 452 420 q 449 420 450 420 l 448 420 q 445 423 447 420 q 442 428 443 427 q 435 427 441 428 q 437 431 437 430 q 435 433 436 432 q 433 433 434 433 q 431 434 431 433 q 435 437 431 435 q 430 440 433 437 l 429 441 l 427 442 q 422 445 425 444 q 429 484 424 466 q 432 468 432 479 l 432 464 l 432 460 q 433 452 432 455 q 436 465 437 458 l 435 469 l 435 472 q 435 480 434 476 q 439 473 439 480 l 439 469 l 439 466 q 439 460 439 462 q 441 464 441 460 l 441 467 q 441 470 441 469 q 445 464 444 468 l 446 460 l 447 456 q 456 446 450 447 q 455 452 456 450 l 454 455 l 452 457 q 450 469 449 464 q 452 466 451 468 l 454 464 l 455 463 q 462 456 458 458 q 445 483 457 467 q 450 481 447 486 l 452 479 l 454 477 q 457 474 456 474 q 453 484 460 477 q 448 489 451 486 l 445 491 q 443 493 444 492 q 458 486 448 494 l 462 483 l 466 479 q 473 473 471 475 q 472 479 475 476 q 469 481 471 480 l 465 484 q 458 497 454 492 q 465 495 461 497 l 468 493 l 471 492 q 484 491 478 487 q 479 495 483 494 l 477 496 l 473 498 q 467 507 466 501 q 486 494 481 500 q 490 500 487 500 q 496 495 492 499 l 498 493 l 500 492 q 505 488 503 490 q 512 490 509 486 q 517 484 514 489 l 519 481 l 522 477 q 532 476 528 469 l 534 473 l 536 469 q 539 460 538 465 q 541 463 541 460 l 542 466 l 542 468 q 558 431 546 450 q 553 463 560 446 q 535 489 546 477 q 485 517 517 508 l 481 522 l 478 526 q 471 535 474 532 q 475 536 472 537 q 477 533 475 535 l 479 530 q 486 526 483 527 q 493 529 489 526 q 484 545 491 540 q 494 541 487 547 q 503 529 500 534 q 502 536 506 530 l 500 538 l 498 541 q 496 547 496 545 q 514 536 505 541 q 507 549 513 547 q 518 545 511 552 l 522 541 l 524 538 q 530 533 527 534 q 536 542 536 534 l 536 545 l 536 547 q 538 553 536 551 q 538 551 538 552 q 539 550 539 551 q 539 549 539 549 q 541 549 540 549 q 541 549 541 549 q 543 547 542 548 q 544 550 545 548 l 543 551 l 543 553 q 543 555 543 554 q 549 549 547 551 q 552 548 551 549 l 554 547 q 553 536 551 540 q 556 536 553 535 l 558 538 q 560 539 560 539 l 562 537 q 557 527 561 533 l 555 522 q 553 518 553 519 q 557 502 548 508 q 562 517 557 509 q 567 525 564 520 l 569 528 l 572 532 q 577 544 576 540 q 572 552 578 550 q 576 556 574 555 q 583 548 579 554 l 585 543 q 589 538 587 540 q 587 481 583 505 q 589 494 588 486 l 589 501 l 590 508 q 600 528 591 524 q 589 475 600 504 l 584 464 q 580 452 581 457 q 574 427 575 439 q 587 422 580 427 q 589 433 587 435 q 590 430 589 432 l 591 429 l 591 427 q 595 422 593 424 q 596 435 597 428 q 595 441 595 438 l 594 444 l 593 447 q 593 456 592 453 q 600 460 594 459 q 600 457 600 459 l 600 454 q 604 452 601 452 q 610 466 600 463 l 614 467 l 618 468 q 625 473 623 470 q 627 491 621 484 q 629 494 628 492 l 633 496 q 637 502 636 499 q 633 507 634 503 q 633 514 632 510 q 636 521 633 518 q 642 523 639 524 q 650 515 642 513 q 667 532 645 536 q 675 557 667 550 q 684 540 673 541 q 689 549 682 547 l 692 550 q 694 551 693 551 q 696 557 696 553 q 690 558 693 555 q 688 564 689 561 q 689 569 688 568 q 692 565 690 570 q 698 552 699 562 l 698 549 q 698 545 698 547 q 701 540 698 542 q 715 556 705 548 q 730 561 726 565 q 719 543 722 553 q 717 534 718 539 l 716 530 l 716 526 q 704 524 711 534 l 701 519 l 698 513 q 692 507 694 508 q 692 505 690 503 q 694 507 692 505 l 696 509 l 697 511 q 706 519 703 515 q 715 523 711 523 q 711 507 715 512 q 696 494 707 498 q 719 492 707 496 l 724 491 l 728 490 q 738 490 733 489 q 722 471 730 486 l 720 466 l 716 461 q 709 452 713 455 q 718 458 713 453 q 722 463 720 460 l 726 467 q 743 473 734 478 q 746 471 746 473 q 745 469 746 470 l 744 467 l 743 465 q 741 459 741 461 q 747 456 741 456 q 751 463 750 459 q 753 467 752 465 l 753 470 q 764 481 754 477 q 766 477 763 479 l 768 474 l 770 472 q 768 465 775 467 q 759 477 764 473 q 760 469 758 473 q 762 466 761 468 l 764 463 q 764 452 770 455 q 763 454 763 452 l 762 457 q 759 460 762 460 q 717 401 736 439 q 725 407 720 403 l 728 411 q 732 414 730 413 q 747 410 740 420 q 745 408 745 408 q 742 404 743 406 q 737 397 739 400 q 738 385 732 387 q 747 401 739 397 q 745 390 748 395 l 744 388 q 743 386 743 387 q 743 380 742 384 q 749 385 747 385 q 750 380 750 384 l 750 376 q 751 372 751 374 q 755 368 752 368 q 755 382 754 378 q 764 389 757 388 q 765 382 764 387 l 766 378 l 766 375 q 772 363 768 366 q 772 373 772 367 l 770 378 l 770 380 l 769 383 q 768 390 768 389 q 772 389 768 391 q 773 382 772 387 l 774 380 l 774 376 q 780 368 777 370 q 781 377 782 372 q 779 381 781 378 l 778 385 q 780 397 774 394 q 780 389 779 393 q 781 387 781 388 l 782 385 q 785 372 786 378 q 772 349 777 363 q 768 326 768 337 q 767 328 767 326 l 766 331 q 764 334 766 334 q 726 298 753 334 q 715 283 721 292 l 710 277 q 705 271 709 275 q 692 252 694 255 q 663 224 675 231 q 622 206 654 218 q 441 130 546 177 l 434 146 q 410 157 415 154 q 393 175 403 162 q 385 186 391 177 l 382 191 l 380 195 q 374 204 376 200 q 351 227 357 227 q 349 225 350 227 l 349 224 l 349 222 q 347 236 349 229 q 340 251 344 245 m 357 191 l 353 191 l 353 196 l 358 196 l 357 191 m 368 178 q 376 190 367 192 q 375 186 376 189 l 374 185 l 374 184 q 375 185 373 182 q 377 184 377 184 q 375 182 376 182 q 378 177 374 178 q 374 176 377 174 l 373 177 l 371 178 q 368 178 369 179 m 734 254 q 728 255 731 256 q 725 254 726 255 l 724 253 l 722 252 q 719 250 720 250 q 717 254 718 250 q 722 262 722 256 q 719 264 720 262 q 722 267 718 267 q 724 264 725 262 l 724 266 l 723 267 l 722 269 q 722 275 721 273 q 733 270 730 277 q 734 254 734 265 m 751 283 l 759 283 l 759 275 l 751 275 l 751 283 m 789 380 q 785 392 786 385 q 786 398 785 395 l 786 401 l 786 404 q 786 412 787 410 q 780 410 785 414 q 783 429 784 418 l 782 433 q 782 437 782 435 q 785 448 782 443 q 781 447 783 448 l 780 446 l 779 446 q 776 448 777 444 q 780 452 781 448 q 785 456 781 456 q 797 431 787 439 q 795 435 796 433 l 793 440 q 789 451 791 446 q 780 472 785 464 q 755 486 768 495 q 764 502 756 498 q 772 498 765 497 q 779 484 774 492 l 782 476 l 786 469 q 800 437 796 448 q 789 380 813 399 m 818 418 q 804 437 809 420 q 806 460 799 452 q 809 450 806 456 l 811 446 l 814 441 q 818 418 819 429 m 801 511 q 815 497 808 507 q 826 474 822 487 q 828 450 830 460 q 818 435 827 439 q 825 454 824 446 q 818 473 825 464 q 817 464 816 469 q 819 460 817 463 l 819 458 l 820 457 q 822 451 822 453 q 818 448 822 449 q 816 465 817 454 l 815 473 q 814 481 814 478 q 801 511 812 499 m 856 569 q 856 564 856 568 l 856 562 l 856 559 q 855 545 855 551 q 852 514 854 528 q 831 460 848 474 q 827 486 831 472 q 819 509 825 494 q 810 548 807 536 q 819 536 814 541 l 821 534 q 824 531 823 532 q 831 523 827 528 q 830 540 830 532 q 830 547 830 543 l 831 553 q 831 582 832 568 l 831 578 l 833 574 q 835 566 834 568 q 843 553 838 556 q 844 559 845 556 q 842 563 843 561 l 840 566 q 839 570 839 569 q 843 574 839 572 q 848 564 847 564 q 856 569 850 562 m 868 767 q 864 763 863 766 l 856 763 q 852 775 856 768 q 868 767 867 777 m 806 607 q 805 612 805 609 q 806 616 806 614 q 808 618 807 618 q 810 616 809 618 q 810 610 810 614 q 808 606 809 608 q 807 604 808 604 q 806 607 806 604 m 789 557 q 797 582 789 575 q 789 557 798 562 m 776 502 l 776 507 l 776 513 q 777 523 776 519 q 785 536 778 533 q 783 527 783 532 l 782 522 l 781 517 q 776 502 780 507 m 780 565 q 768 523 777 541 q 780 565 768 546 m 722 578 q 730 582 727 583 q 731 578 732 581 q 728 574 730 575 q 722 578 725 573 m 772 800 q 790 797 781 796 q 798 798 793 797 l 802 798 l 806 799 q 839 788 824 802 q 734 742 778 764 q 730 741 732 741 q 726 741 728 741 q 722 742 722 742 q 718 738 719 741 l 717 736 l 715 734 q 709 729 714 729 q 708 730 708 729 l 708 732 l 708 734 q 705 737 707 739 q 703 733 705 737 q 701 730 702 731 q 700 726 701 728 q 688 725 694 716 q 688 742 690 732 q 688 750 688 745 l 686 753 l 686 758 q 688 783 682 777 q 691 772 690 779 l 692 766 l 694 760 q 705 742 697 745 q 703 751 705 745 l 702 756 l 701 762 q 705 779 697 774 q 722 746 709 759 l 719 757 l 716 768 q 709 788 713 781 q 726 776 719 788 l 729 771 q 732 767 730 768 q 743 763 736 763 q 741 770 743 766 q 739 773 740 771 l 736 776 q 738 788 730 783 l 739 787 l 739 785 q 741 781 741 783 q 746 774 744 777 q 755 771 752 765 q 758 787 748 779 l 762 790 l 766 793 q 772 800 770 797 m 814 846 q 825 843 821 847 q 828 839 826 842 l 829 836 l 831 834 q 820 838 824 833 q 817 842 818 840 l 815 844 l 814 846 m 797 846 q 813 842 807 848 q 818 836 815 840 l 820 833 l 822 830 q 806 835 812 829 q 801 840 804 837 l 799 844 l 797 846 m 785 809 l 787 809 l 789 808 q 794 808 792 808 q 797 800 798 806 q 785 809 787 800 m 726 926 q 738 927 734 928 q 739 924 741 926 q 733 922 737 922 q 726 926 728 922 m 722 989 q 734 984 729 989 q 739 979 736 982 l 741 975 l 743 972 q 729 979 734 973 q 725 984 728 981 l 723 987 l 722 989 m 692 943 q 679 941 683 940 q 677 945 675 941 q 682 947 678 947 q 692 943 687 947 m 667 704 q 667 722 669 712 q 666 730 667 726 l 665 734 l 665 739 q 667 767 661 758 q 672 753 668 762 l 675 746 l 680 739 q 680 708 687 720 q 674 709 678 715 l 673 707 l 671 705 q 667 704 669 703 m 583 565 l 583 565 l 585 567 l 586 570 q 589 574 587 572 q 604 586 594 580 q 593 562 598 577 l 593 562 l 593 562 l 592 562 l 591 563 l 590 563 l 589 563 l 588 564 l 587 564 l 585 564 l 585 564 l 584 565 l 583 565 m 591 552 l 591 549 l 588 551 l 585 553 q 579 556 582 556 q 585 557 582 559 q 588 555 586 557 l 591 552 m 616 565 q 616 555 616 563 l 616 549 q 616 543 616 545 q 612 536 616 528 q 612 545 612 538 l 612 551 q 612 558 612 555 q 616 565 612 572 m 654 645 q 643 633 645 642 q 644 616 642 627 l 645 611 l 646 606 q 648 597 648 601 q 646 582 649 587 q 641 607 643 590 l 640 613 l 640 620 q 637 632 638 627 q 639 635 638 633 q 641 637 640 636 q 646 644 644 642 q 654 645 652 651 m 633 574 q 633 582 633 575 l 633 588 q 633 593 633 591 q 637 599 633 607 q 637 590 637 597 l 637 585 q 637 578 637 581 q 633 574 637 566 m 625 607 q 621 612 621 609 q 625 618 622 615 q 629 623 627 622 q 633 620 633 623 q 629 614 629 620 l 628 612 q 627 610 628 610 q 625 607 627 608 m 625 557 q 625 566 625 558 l 625 571 q 625 576 625 574 q 629 582 625 590 q 629 573 629 581 l 629 568 q 629 562 629 564 q 625 557 629 549 m 558 554 l 556 551 q 553 560 553 556 q 558 554 558 558 m 475 528 q 480 522 474 523 q 475 522 477 522 q 469 523 472 522 q 460 531 463 525 q 475 528 463 528 m 654 758 q 663 695 663 730 q 655 691 659 694 l 652 689 l 650 688 q 642 683 644 684 q 649 677 649 679 q 645 676 649 677 q 642 675 642 676 q 639 674 640 675 q 642 666 637 671 q 630 669 631 669 q 625 662 628 668 q 620 656 621 656 l 619 656 l 618 656 q 616 656 617 657 q 608 653 613 656 q 609 649 607 653 l 610 648 l 611 647 q 612 645 612 646 q 608 644 612 646 q 600 640 604 642 q 591 624 589 632 q 595 626 594 624 l 597 627 l 598 629 q 608 632 602 634 q 592 610 606 621 l 586 607 q 581 602 583 604 q 574 590 576 597 q 581 595 576 591 l 584 597 l 587 601 q 600 603 596 608 q 585 585 595 597 l 580 580 l 575 575 q 566 564 570 569 q 559 568 564 570 q 564 562 563 566 q 560 557 562 559 l 559 558 l 559 559 q 562 562 559 561 q 559 564 562 564 l 556 565 l 554 565 q 559 572 555 570 q 563 573 560 572 l 565 574 l 567 575 q 557 576 564 580 l 555 575 l 552 574 q 547 573 549 573 q 548 572 547 572 l 549 571 l 550 570 q 551 565 552 568 q 545 568 548 565 l 543 568 l 542 570 q 538 571 541 570 q 575 582 549 582 q 561 585 571 587 l 556 585 l 552 584 q 545 583 547 583 q 548 586 547 585 l 548 588 l 549 589 q 555 593 549 593 q 548 594 553 597 l 545 593 q 543 591 544 592 q 537 591 540 590 q 538 593 537 592 l 538 594 q 540 597 540 595 q 532 594 536 597 q 529 593 530 593 q 524 592 527 592 q 532 597 526 597 q 507 591 522 600 l 500 587 l 494 583 q 482 576 487 578 q 487 585 480 579 l 490 588 l 492 591 q 496 596 495 594 q 491 593 494 594 l 488 591 l 485 589 q 475 581 478 585 q 475 585 471 582 q 477 587 476 587 q 480 589 479 589 q 475 588 479 593 l 474 586 q 472 585 473 585 q 467 585 470 583 q 469 587 468 585 l 470 588 q 473 592 473 590 q 465 588 470 591 l 462 587 l 458 585 q 444 583 452 582 q 438 592 443 590 q 427 591 433 595 q 418 603 433 597 q 404 608 412 606 q 397 610 401 608 q 391 611 395 610 q 409 611 397 615 l 414 610 l 418 608 q 427 607 424 607 q 416 614 424 611 q 409 616 414 614 l 406 617 l 402 618 q 425 622 408 625 q 437 619 429 621 l 440 618 l 444 617 q 448 616 446 616 q 441 621 447 619 l 439 622 l 437 623 q 433 625 435 623 q 438 627 433 627 l 440 627 l 442 627 q 446 627 445 626 q 430 642 441 638 q 406 641 421 644 q 394 638 402 640 l 387 637 l 381 636 q 359 635 367 633 q 385 644 370 643 q 383 648 385 646 l 381 650 l 380 650 l 380 650 q 386 652 377 652 q 382 654 385 654 l 378 655 q 376 655 376 655 l 384 661 l 391 667 q 407 677 400 673 q 439 694 424 688 q 439 683 439 688 q 450 697 445 690 q 493 704 469 703 q 470 707 483 713 q 475 712 471 711 l 477 713 q 479 714 478 713 q 481 718 481 715 q 477 715 479 716 l 474 714 l 472 713 q 465 708 467 711 q 463 709 463 708 q 463 712 462 711 q 465 715 464 713 q 468 715 467 715 q 465 716 467 719 l 463 715 l 462 713 q 458 713 460 712 q 463 724 461 720 q 466 728 465 726 l 465 728 q 469 742 467 735 l 469 740 l 469 738 q 470 734 469 735 q 473 729 470 730 q 479 743 475 736 l 482 749 l 486 754 q 503 755 492 742 q 507 761 505 757 l 511 766 q 519 775 516 774 q 532 772 524 769 q 538 777 535 774 l 542 780 l 545 783 q 557 789 553 789 q 562 779 561 790 q 595 800 570 790 q 583 785 595 790 l 578 783 q 573 782 575 783 q 566 775 568 779 q 587 774 574 768 l 591 778 l 597 781 q 608 783 603 783 q 608 772 612 778 q 597 763 606 768 l 593 761 l 590 759 q 585 754 587 756 q 583 746 580 749 q 595 755 587 748 l 602 760 l 608 765 q 633 775 625 777 q 629 772 632 774 l 627 770 l 625 768 q 615 760 618 764 q 608 746 604 750 q 614 749 611 746 q 617 753 615 751 l 620 756 q 629 758 626 764 q 600 716 608 734 q 611 726 606 718 l 613 729 l 615 732 q 621 737 618 735 q 615 718 621 728 l 612 714 q 610 710 611 711 q 608 700 608 705 q 624 715 618 701 l 625 722 l 627 727 q 633 737 630 734 q 633 732 633 736 l 633 730 l 633 727 q 637 721 633 722 q 637 731 637 724 l 637 736 q 637 742 637 740 q 646 754 637 753 q 645 741 646 747 q 644 735 645 738 l 643 730 q 646 708 640 718 q 648 720 648 712 q 649 727 649 723 l 649 734 q 654 758 650 752 m 583 834 q 608 838 602 833 q 591 826 603 829 q 582 825 587 825 q 574 825 578 825 q 583 834 584 827 m 429 691 q 433 705 427 696 q 439 711 435 708 q 445 718 441 714 q 442 709 444 713 q 435 700 439 705 l 431 695 q 429 691 429 693 m 395 626 l 392 623 q 389 620 391 621 q 381 616 386 616 l 384 620 q 387 623 385 622 q 395 626 390 626 m 412 597 q 417 600 414 600 q 420 597 420 599 q 419 595 421 595 q 412 597 416 595 m 422 489 q 422 471 426 484 l 421 467 l 420 461 q 420 450 419 455 q 418 451 419 450 l 417 452 l 416 454 q 413 453 414 457 q 414 472 408 461 l 416 476 l 418 480 q 422 489 421 486 m 384 375 q 380 373 381 372 q 378 375 378 373 q 378 378 377 377 q 384 375 380 378 m 354 342 q 347 369 349 353 q 354 342 355 357 m 344 351 q 349 342 348 349 q 349 336 349 340 l 349 334 l 349 330 q 345 340 346 333 l 345 342 l 345 345 q 344 351 345 349 m 342 363 q 338 379 336 367 q 342 363 342 375 m 333 395 q 332 393 333 393 q 331 395 332 393 q 331 397 331 395 q 331 400 330 399 q 332 402 331 402 q 333 401 332 402 q 333 398 333 399 q 333 395 334 396 m 317 506 q 338 512 327 514 l 342 511 q 347 510 345 511 q 359 512 353 510 q 362 507 359 510 l 365 505 l 367 503 q 368 494 372 498 q 374 495 370 490 q 377 500 375 496 l 378 502 l 378 503 l 379 503 q 380 496 384 500 l 378 494 l 377 492 q 376 488 375 490 q 382 490 380 488 q 385 493 383 492 l 386 496 q 397 503 391 503 q 392 490 395 498 l 390 484 l 388 477 q 399 497 396 485 q 401 486 404 494 l 400 484 l 399 480 q 398 474 398 477 q 406 486 403 477 l 406 489 l 407 493 q 410 500 408 497 q 410 484 413 495 l 409 479 l 408 474 q 408 464 407 468 q 401 465 404 458 l 400 467 l 399 469 q 398 472 398 472 q 396 470 397 473 l 396 469 l 396 468 q 395 467 395 467 q 391 470 392 467 l 391 471 l 390 473 q 388 475 389 474 q 385 475 388 475 q 382 475 384 474 q 380 475 381 475 q 351 490 370 481 q 317 506 332 500 m 343 513 q 346 517 343 516 q 349 517 347 517 l 351 517 q 343 513 349 512 m 324 534 q 331 536 328 534 q 333 538 332 537 l 334 541 q 328 539 330 542 q 326 537 327 538 l 324 534 m 268 539 q 265 536 267 536 l 264 532 q 269 531 267 530 q 271 534 270 532 q 270 538 271 536 q 268 539 269 539 m 252 540 q 257 538 255 540 l 258 537 l 258 536 q 260 534 259 535 q 262 537 260 537 l 262 542 q 260 542 262 542 l 256 542 q 252 540 253 542 m 254 642 q 256 641 255 642 l 258 640 l 260 640 q 262 635 262 639 q 259 636 261 635 l 258 637 l 256 637 q 254 642 253 638 m 220 557 q 224 557 221 557 l 227 556 l 229 556 q 235 559 235 555 q 231 559 233 558 l 229 559 l 226 559 q 220 557 220 560 m 205 565 q 208 565 205 566 l 210 565 l 212 564 q 218 567 218 564 q 214 567 216 567 l 212 568 l 210 568 q 205 565 204 568 m 906 498 q 900 490 903 496 l 897 485 l 895 479 q 881 473 888 466 q 887 480 884 475 l 890 486 l 892 492 q 906 498 900 504 m 915 548 q 909 541 911 546 l 907 537 l 905 533 q 894 519 899 522 q 900 543 892 531 q 915 548 909 554 m 919 616 q 918 611 919 613 q 917 609 918 609 q 915 610 916 608 q 915 616 914 612 q 911 627 913 621 q 908 638 910 631 q 902 658 903 652 q 906 649 901 665 q 909 643 907 647 l 911 640 l 913 636 q 919 616 918 627 m 927 548 q 932 557 932 551 q 929 570 932 562 l 928 572 l 927 575 q 925 580 926 578 q 927 586 924 585 q 931 576 928 583 l 933 570 l 936 564 q 936 544 942 550 q 932 547 935 548 l 930 546 q 929 546 930 546 q 927 548 928 546 m 952 477 q 948 493 951 484 l 944 508 q 936 540 938 528 q 952 511 946 531 q 952 477 959 490 m 973 800 q 960 798 967 800 l 954 796 l 948 794 q 919 792 933 790 q 919 798 920 795 q 918 800 918 799 l 916 802 q 919 809 912 807 q 921 804 920 807 q 925 800 923 802 q 931 800 930 794 q 927 806 928 801 q 927 812 927 808 l 927 814 l 927 817 q 940 825 937 817 q 950 821 943 824 l 956 819 q 960 817 958 818 q 973 800 972 811 m 982 855 q 969 852 977 850 q 957 859 962 854 q 964 859 959 859 l 968 859 l 972 860 q 982 855 981 861 m 1015 813 q 996 819 1004 812 q 989 824 993 821 l 985 827 l 982 830 q 1015 813 1002 825 m 1024 637 l 1032 637 l 1032 628 l 1024 628 l 1024 637 m 1007 834 q 1012 833 1009 833 q 1017 831 1015 832 q 1028 827 1023 829 q 1032 813 1040 820 q 1020 823 1029 817 q 1007 834 1010 830 m 1007 880 q 1013 880 1009 880 l 1017 880 l 1020 881 q 1028 876 1029 882 q 1022 876 1026 877 l 1019 876 l 1015 876 q 1007 880 1006 875 m 978 867 q 985 867 980 867 l 989 867 l 993 868 q 1003 863 1002 869 q 996 864 1000 864 l 991 863 l 987 863 q 978 867 978 862 m 952 1006 q 949 998 954 1000 l 946 997 l 944 996 q 940 994 941 995 q 943 1002 938 1000 l 946 1003 l 948 1004 q 952 1006 951 1005 m 931 842 q 937 842 933 842 l 939 842 l 942 842 q 948 838 947 842 q 941 836 943 839 l 939 834 l 938 833 q 936 830 937 831 q 931 834 935 835 l 931 842 m 927 825 q 921 825 924 823 q 918 830 919 827 q 919 836 918 833 q 923 838 920 839 q 927 834 924 833 l 927 825 m 894 1057 q 897 1052 895 1055 l 901 1046 q 906 1036 905 1041 q 898 1040 903 1037 q 890 1046 893 1042 q 894 1057 882 1053 m 969 1040 q 964 1028 964 1029 q 966 1033 964 1027 q 970 1041 968 1038 q 969 1040 971 1044 m 245 663 q 245 664 243 667 q 246 659 245 663 q 248 656 248 656 q 245 663 248 656 m 199 568 q 79 600 142 596 q -24 559 3 604 q -7 561 -18 557 q 5 574 3 566 q 13 571 8 567 l 15 573 l 16 576 q 20 578 18 578 q 20 576 18 578 q 27 576 23 576 q 37 577 32 575 q 46 585 42 580 q 72 582 60 581 q 98 590 83 583 q 94 584 95 587 l 93 581 l 93 578 q 86 565 92 570 q 94 568 89 565 q 98 570 95 569 l 102 574 q 125 581 116 582 q 114 572 122 577 l 111 570 l 108 569 q 102 564 104 566 q 108 565 102 562 q 115 572 113 568 q 116 568 119 570 l 114 568 l 113 566 q 112 564 111 565 q 119 567 115 565 l 123 568 l 126 570 q 140 576 134 575 q 129 567 137 572 l 126 565 l 123 563 q 117 559 119 561 q 127 562 119 557 l 132 564 l 135 566 q 143 568 140 568 q 138 562 142 564 l 136 562 l 135 561 q 132 558 133 559 q 144 560 138 560 l 149 559 l 154 559 q 174 566 166 558 q 168 557 176 562 l 163 555 l 160 552 q 155 547 156 549 q 165 550 157 545 l 168 552 l 172 554 q 178 556 176 556 q 174 551 178 553 l 172 551 l 171 550 q 168 549 169 549 q 174 546 174 547 q 170 538 175 545 q 175 539 172 539 l 178 539 l 180 538 q 188 543 185 538 q 189 541 189 543 l 189 539 l 190 538 q 195 540 192 535 q 176 534 194 532 q 168 534 172 534 l 159 536 q 144 537 150 537 q 143 534 142 536 l 143 533 l 144 532 q 144 529 144 530 q 83 519 114 538 q 41 477 60 505 q 45 477 43 474 q 48 479 46 477 l 50 481 l 50 483 q 55 486 54 486 q 57 479 57 486 q 67 495 60 488 l 71 498 l 73 501 q 79 507 77 505 q 80 503 81 505 l 80 502 l 79 501 q 78 498 79 500 q 82 498 79 496 q 85 499 83 498 l 87 500 l 89 501 q 96 495 97 507 q 102 499 99 497 l 106 502 l 109 505 q 123 512 116 511 q 118 501 121 507 l 115 496 l 111 492 q 119 496 114 493 q 123 500 120 498 l 127 505 q 149 519 140 517 q 142 513 146 516 l 136 507 q 124 494 128 499 q 137 501 128 493 l 140 505 l 144 508 q 151 513 148 512 q 149 508 154 511 l 147 507 l 145 505 q 142 501 142 503 q 144 502 143 502 l 146 503 l 147 503 q 151 506 150 504 q 150 501 154 505 l 149 500 l 146 499 q 145 496 144 497 q 154 500 149 498 l 159 502 l 163 503 q 182 515 175 507 q 176 505 184 511 q 163 498 170 500 q 170 498 164 494 q 176 505 175 501 q 168 492 179 496 l 163 490 l 159 488 q 149 483 153 485 q 147 479 149 481 l 146 477 l 146 475 q 139 473 144 470 q 155 470 143 467 l 159 471 l 164 473 q 175 474 170 475 q 140 462 163 468 l 132 459 l 122 456 q 104 451 111 454 q 109 450 105 448 l 111 450 l 113 451 q 117 451 115 452 q 119 452 118 452 q 119 452 119 453 q 119 452 119 452 q 118 450 119 451 q 115 448 117 448 q 109 448 112 447 q 115 446 111 444 l 117 447 l 119 448 q 122 448 121 448 q 112 442 123 446 l 108 441 l 103 439 q 96 436 98 438 q 113 437 102 432 l 118 439 l 123 441 q 132 442 128 443 q 85 418 115 433 q 87 416 85 416 q 90 416 88 416 l 92 417 q 95 418 94 418 q 95 413 96 417 q 82 409 85 414 q 83 406 82 406 q 86 407 84 406 q 90 406 90 410 q 80 396 87 399 q 73 393 77 395 l 69 393 l 66 391 q 74 388 75 389 q 63 384 73 387 q 64 382 63 383 l 65 381 l 66 380 q 68 376 68 379 q 57 369 56 378 q 60 368 58 366 l 60 368 l 62 368 q 65 368 63 369 q 49 353 50 356 q 57 356 50 351 l 60 357 l 63 359 q 70 360 66 361 q 58 353 67 356 l 55 351 l 52 350 q 46 346 48 348 q 64 351 62 349 q 56 342 63 345 q 50 338 52 340 q 45 330 47 335 q 50 334 47 332 l 52 336 l 54 338 q 66 342 60 342 q 66 323 65 334 l 66 318 l 67 314 q 67 304 68 309 q 70 315 72 307 l 69 318 l 68 321 q 68 327 68 325 q 73 319 73 327 l 73 316 l 73 313 q 75 309 73 310 q 76 316 77 309 l 75 319 l 75 323 q 76 329 75 327 q 81 317 79 325 l 83 310 l 85 303 q 85 315 88 307 l 83 319 l 82 323 q 81 332 81 328 q 86 321 85 330 l 87 318 l 87 315 q 90 311 88 312 q 92 316 94 312 l 91 319 l 90 321 q 91 326 90 323 q 96 321 95 317 q 94 334 96 326 q 98 330 95 336 q 100 325 99 328 q 101 320 100 322 q 103 328 106 323 l 101 330 l 100 332 q 99 336 98 334 q 104 332 102 335 l 104 330 l 105 328 q 106 326 106 326 q 110 330 109 326 l 110 332 l 111 333 q 112 335 111 335 q 114 335 115 339 l 113 333 l 113 331 q 112 328 112 329 q 120 342 122 328 l 122 342 l 123 340 q 125 337 125 339 q 128 344 125 342 q 130 345 129 345 l 133 346 q 139 357 139 348 q 135 359 138 359 q 132 358 133 357 q 129 360 130 358 q 132 361 130 359 l 134 362 l 137 363 q 141 357 142 366 q 146 362 146 359 q 144 368 146 364 l 142 370 l 142 372 q 140 376 140 374 q 140 385 138 380 q 144 370 144 381 l 146 372 l 147 374 q 149 378 149 377 q 153 372 151 381 q 153 389 155 376 l 153 393 l 152 399 q 151 408 151 405 q 159 392 156 404 l 161 388 l 162 383 q 165 374 163 378 q 167 379 170 375 l 166 380 l 165 382 q 165 387 165 385 l 167 386 l 168 385 q 170 382 169 383 q 178 381 173 380 q 177 395 180 387 l 176 397 l 175 400 q 174 407 174 404 q 186 406 180 408 q 192 404 189 406 l 197 403 q 218 403 209 399 q 215 399 217 400 q 210 397 214 397 q 205 395 206 395 q 202 391 203 393 q 212 395 206 392 l 217 397 l 222 399 q 243 407 234 406 q 237 401 241 404 l 233 399 l 229 397 q 214 387 218 393 q 220 389 218 387 l 223 389 l 225 391 q 235 394 231 394 q 230 389 233 391 l 227 388 l 223 387 q 212 377 214 382 q 221 380 216 376 l 222 382 l 224 383 q 230 384 227 385 q 219 374 227 378 q 213 370 217 372 l 206 367 q 220 370 210 365 l 224 372 l 229 374 q 237 376 233 376 q 220 366 231 372 l 212 360 l 203 355 q 208 354 203 351 l 210 355 l 212 356 q 216 357 214 357 q 197 342 209 346 q 205 341 202 340 q 208 342 207 341 l 211 343 q 223 343 217 347 q 204 330 215 338 l 201 326 l 197 323 q 189 317 193 319 q 195 316 189 313 q 199 319 197 317 q 201 321 201 320 q 201 315 206 318 q 197 313 200 314 l 195 312 l 194 311 l 193 311 q 197 306 193 308 l 199 305 l 200 304 q 203 303 202 304 q 199 298 203 300 l 198 297 l 197 296 q 195 293 195 295 q 211 302 205 298 q 203 291 210 298 l 200 288 l 197 285 q 192 278 194 281 q 201 283 196 280 l 210 289 q 229 299 222 296 l 234 289 l 240 279 q 250 257 246 267 q 248 271 251 262 q 243 286 247 278 q 269 290 258 288 q 268 296 269 293 l 267 298 l 266 301 q 262 313 262 307 q 266 313 269 307 q 264 317 266 314 l 263 320 q 260 326 261 324 q 290 287 277 320 q 295 271 292 281 l 298 263 l 300 254 q 315 218 308 233 q 414 118 344 157 l 370 98 q 318 72 340 84 q 266 37 288 55 q 205 -58 208 -8 q 273 -64 247 -65 q 336 -49 308 -63 q 337 -44 336 -47 l 338 -42 l 338 -40 q 338 -33 338 -36 q 346 -23 342 -30 l 348 -20 l 350 -18 q 354 -12 353 -14 q 378 12 366 5 q 439 58 405 37 q 444 49 441 54 l 447 44 l 450 39 q 456 22 456 28 q 455 -11 457 10 l 454 -18 l 454 -26 q 454 -43 453 -35 q 465 -43 458 -42 l 470 -43 l 475 -43 q 490 -42 486 -43 q 497 -34 495 -41 q 497 -12 499 -27 q 467 74 492 35 q 524 101 491 87 l 552 114 l 581 126 q 715 196 671 165 q 822 317 784 244 q 848 375 835 341 q 854 389 850 381 l 857 395 l 859 402 q 869 427 865 418 q 890 467 880 453 q 919 490 903 484 q 915 479 918 486 l 913 477 l 911 473 q 909 469 910 470 q 915 469 904 458 q 909 449 916 458 l 907 445 q 905 441 905 443 q 902 431 902 436 q 944 422 920 426 q 935 399 938 410 q 931 376 930 385 q 949 410 938 391 l 960 427 q 969 444 966 437 q 999 425 981 437 l 1006 420 l 1013 415 q 1028 406 1021 410 q 1019 418 1025 411 l 1015 423 l 1010 428 q 999 448 1000 440 q 1024 431 1006 439 q 1021 435 1023 433 l 1020 437 l 1017 439 q 1011 448 1012 443 q 1016 450 1013 449 l 1019 451 l 1021 452 q 1028 460 1027 455 l 1027 460 l 1025 461 q 1022 463 1023 462 q 1015 467 1017 465 q 1015 477 1007 473 q 1020 473 1017 475 q 1027 468 1023 470 q 1036 469 1036 463 q 1023 479 1030 473 l 1017 485 l 1011 490 q 982 515 995 506 q 994 517 989 517 q 1002 513 997 516 l 1004 512 l 1006 511 q 1010 509 1008 510 q 1024 511 1016 508 q 994 536 1005 518 q 1002 535 998 537 q 1004 533 1003 534 l 1008 531 q 1013 528 1011 528 q 1015 532 1015 528 l 1002 541 l 988 551 q 961 569 972 562 q 975 566 968 570 q 983 562 979 564 l 985 560 l 989 559 q 1011 553 1004 549 l 1006 555 l 1000 558 q 990 565 994 562 q 973 582 979 572 q 982 580 978 582 q 985 578 983 579 l 987 575 q 1003 569 995 569 q 985 585 999 578 l 979 588 q 974 591 976 589 q 965 599 968 595 q 975 597 970 599 q 979 595 977 596 l 982 593 q 999 586 991 587 q 977 604 994 595 l 970 607 q 963 610 966 609 q 952 620 956 614 q 987 606 968 617 l 996 602 l 1003 598 q 1020 590 1013 593 q 1015 597 1019 595 q 1011 600 1013 598 l 1007 601 q 994 611 996 605 q 1029 610 1009 606 l 1037 612 q 1046 614 1042 614 q 1066 616 1056 616 q 1065 604 1066 610 q 1063 600 1064 602 l 1061 595 q 1057 574 1056 584 q 1071 574 1066 571 q 1075 578 1073 576 l 1077 580 l 1078 582 q 1079 574 1080 578 q 1078 572 1078 573 l 1076 569 q 1074 564 1074 566 q 1078 561 1074 562 q 1084 575 1081 566 l 1086 583 l 1089 590 q 1103 616 1096 608 q 1102 600 1104 610 l 1101 591 l 1099 583 q 1099 557 1096 563 q 1105 566 1102 572 q 1109 559 1106 565 l 1110 556 q 1112 553 1112 554 q 1120 578 1113 571 q 1120 562 1123 570 q 1117 555 1119 559 l 1115 553 l 1114 550 q 1109 541 1109 543 q 1116 532 1109 535 q 1124 541 1115 546 q 1128 539 1126 541 l 1130 538 l 1132 536 q 1137 536 1136 534 q 1133 532 1135 532 q 1127 533 1131 532 l 1125 534 q 1123 534 1124 534 q 1120 532 1121 534 q 1123 517 1120 522 q 1130 513 1125 514 l 1132 511 l 1134 511 q 1137 509 1136 510 q 1141 498 1141 505 q 1145 503 1142 501 q 1147 505 1145 504 l 1150 507 q 1162 481 1146 484 q 1161 487 1162 483 l 1160 490 q 1160 494 1160 492 q 1162 494 1158 500 q 1165 490 1164 493 q 1166 488 1166 489 l 1166 484 q 1171 477 1166 477 q 1173 481 1172 479 l 1175 484 l 1175 487 q 1183 494 1179 493 q 1182 486 1185 490 q 1180 483 1181 485 l 1177 480 q 1179 469 1171 473 q 1182 475 1181 472 q 1185 484 1184 481 q 1192 490 1190 494 q 1188 469 1187 477 q 1196 477 1190 462 q 1197 469 1198 473 q 1196 465 1196 467 l 1195 463 l 1194 461 q 1192 456 1192 457 q 1196 452 1192 453 q 1202 458 1200 454 q 1203 464 1202 460 l 1204 469 q 1213 486 1207 482 q 1211 472 1214 479 q 1209 466 1211 469 l 1206 460 q 1204 439 1200 445 l 1208 450 l 1212 461 q 1221 481 1217 474 q 1222 471 1223 477 l 1221 465 l 1221 460 q 1221 448 1219 448 q 1225 454 1224 449 q 1225 459 1225 456 l 1225 465 q 1234 477 1226 477 q 1233 467 1234 473 l 1232 462 l 1230 456 q 1234 439 1227 444 q 1234 455 1234 447 l 1236 463 l 1237 470 q 1238 502 1240 488 q 1257 494 1249 502 l 1261 490 l 1264 487 q 1272 481 1268 483 q 1265 494 1270 489 q 1256 500 1262 496 l 1254 501 l 1251 502 q 1247 505 1249 504 q 1242 515 1243 509 q 1255 509 1251 510 l 1258 509 l 1260 509 l 1261 509 q 1272 507 1266 508 q 1263 513 1268 510 l 1257 515 l 1252 518 q 1234 532 1238 524 q 1244 529 1239 532 q 1249 526 1246 528 q 1254 523 1251 526 q 1267 519 1265 515 q 1242 544 1265 523 q 1247 544 1244 545 l 1249 543 l 1251 543 q 1255 544 1254 541 q 1238 557 1257 559 q 1241 564 1238 562 l 1242 566 l 1244 567 q 1246 569 1246 568 q 1229 577 1230 574 q 1242 582 1227 580 l 1236 584 l 1231 586 q 1219 591 1224 588 q 1204 607 1208 597 q 1206 611 1204 612 q 1208 610 1206 611 l 1209 610 l 1211 608 q 1215 606 1213 606 q 1217 611 1217 606 q 1196 620 1212 621 q 1196 627 1195 627 q 1202 625 1198 628 l 1204 625 l 1205 624 q 1208 623 1207 623 q 1213 628 1212 623 q 1137 670 1166 652 q 1153 667 1144 670 q 1160 663 1156 665 l 1168 660 q 1196 658 1185 651 q 1185 663 1193 661 l 1178 666 l 1171 669 q 1154 679 1152 675 q 1160 678 1156 680 l 1163 676 l 1166 675 q 1175 679 1173 671 q 1166 678 1171 676 q 1161 682 1163 679 q 1160 684 1160 684 q 1160 686 1159 686 q 1160 686 1160 686 q 1162 683 1161 685 q 1170 684 1166 684 q 1173 682 1171 683 l 1175 680 q 1180 678 1179 678 q 1183 683 1182 679 q 1155 692 1172 687 l 1140 697 l 1125 702 q 1070 725 1090 713 q 1087 722 1078 726 q 1095 720 1090 722 l 1099 718 l 1103 717 q 1129 721 1121 710 q 1118 724 1120 715 l 1116 728 l 1116 731 q 1112 737 1114 736 q 1098 746 1107 741 l 1090 749 q 1082 753 1085 751 q 1070 775 1065 762 q 1080 764 1072 769 q 1091 763 1089 757 q 1070 777 1080 767 q 1061 792 1059 787 q 1090 772 1072 780 l 1098 770 l 1105 766 q 1120 758 1114 763 q 1118 764 1121 761 q 1116 766 1117 765 l 1112 768 q 1112 775 1106 773 q 1118 770 1113 772 l 1120 770 l 1122 769 q 1124 767 1124 768 q 1121 773 1124 770 q 1118 776 1120 774 l 1114 779 q 1112 788 1107 785 q 1123 779 1116 785 l 1128 772 l 1134 767 q 1154 754 1148 753 q 1136 776 1148 763 l 1131 781 l 1126 785 q 1116 796 1120 791 q 1150 772 1131 793 l 1154 768 l 1157 765 q 1164 758 1161 760 q 1175 750 1171 751 q 1170 758 1173 753 l 1168 762 l 1165 765 q 1158 783 1160 774 q 1180 770 1168 781 l 1185 766 l 1190 762 q 1200 754 1196 757 q 1204 766 1200 765 q 1213 764 1206 768 l 1216 762 l 1219 760 q 1223 757 1221 758 q 1230 758 1229 754 q 1228 762 1230 760 l 1227 764 l 1227 766 q 1230 771 1225 769 q 1238 762 1232 768 l 1242 757 l 1247 752 q 1263 725 1258 739 q 1267 736 1263 736 q 1274 730 1269 736 l 1276 728 l 1278 724 q 1282 720 1280 722 q 1289 721 1286 715 q 1223 793 1259 768 q 1124 813 1175 826 q 1125 818 1124 815 l 1126 820 l 1126 821 q 1124 825 1128 825 q 1099 825 1116 827 l 1093 825 l 1086 824 q 1073 823 1078 823 q 1041 834 1044 821 q 1050 831 1047 826 q 1051 833 1050 831 l 1052 836 q 1053 838 1053 838 q 1067 831 1058 831 l 1070 831 l 1074 832 q 1082 830 1079 831 q 1076 842 1075 840 q 1087 846 1076 843 q 1082 849 1085 848 l 1080 850 l 1077 851 q 1070 859 1071 854 q 1082 856 1075 859 q 1087 852 1084 854 l 1092 849 q 1108 842 1105 840 q 1100 852 1107 847 q 1095 856 1098 854 l 1088 859 q 1078 867 1081 864 q 1078 876 1076 871 q 1110 863 1090 862 l 1114 863 l 1119 863 q 1127 863 1124 863 q 1145 859 1137 863 q 1141 863 1145 862 l 1139 865 l 1137 867 q 1129 876 1130 871 q 1141 873 1135 876 q 1147 869 1144 871 l 1153 866 q 1171 859 1167 857 q 1162 867 1167 863 l 1156 870 l 1152 873 q 1133 888 1139 882 q 1157 879 1143 887 l 1162 876 l 1167 873 q 1179 867 1173 869 q 1178 872 1180 869 l 1176 873 l 1173 876 q 1175 880 1168 879 q 1186 869 1178 875 q 1196 867 1195 863 q 1187 875 1192 871 l 1182 878 l 1177 882 q 1158 897 1164 890 q 1195 882 1174 897 l 1199 880 l 1203 877 q 1210 873 1207 874 q 1221 867 1217 868 q 1211 888 1212 876 l 1211 894 q 1211 899 1211 897 q 1204 909 1209 905 q 1246 894 1227 897 q 1289 897 1265 892 q 1304 884 1295 888 q 1319 880 1312 880 q 1330 882 1326 880 q 1331 884 1334 884 q 1336 880 1333 884 l 1339 876 q 1342 872 1341 873 q 1356 876 1349 865 q 1375 854 1357 863 q 1402 851 1392 846 q 1334 907 1381 889 q 1236 924 1293 924 q 1036 880 1133 923 q 1027 887 1034 883 l 1021 890 l 1015 893 q 1003 905 1000 901 q 1019 907 1005 903 q 1036 918 1033 912 q 1020 926 1023 919 l 1028 928 q 1036 929 1033 928 q 1049 935 1045 931 q 1040 938 1047 936 l 1034 940 q 1027 942 1030 941 q 1020 951 1015 947 q 1035 947 1025 950 l 1044 944 l 1052 941 q 1078 935 1072 934 q 1071 942 1076 939 q 1066 945 1069 943 l 1061 947 q 1045 960 1047 952 q 1063 959 1051 965 l 1069 956 q 1074 954 1072 954 q 1087 951 1081 951 q 1084 958 1086 956 q 1078 960 1082 959 q 1070 968 1070 963 q 1077 969 1074 970 q 1080 968 1079 968 l 1083 966 q 1088 964 1086 964 q 1091 968 1090 964 q 1078 977 1082 972 q 1087 978 1083 979 q 1090 976 1088 977 q 1093 973 1091 975 q 1097 970 1095 970 q 1099 972 1098 969 q 1073 996 1091 991 q 1036 996 1059 1000 l 1025 994 l 1015 991 q 996 987 1003 989 q 965 989 975 984 q 1003 1006 980 994 q 952 985 979 1003 q 989 1013 962 1002 q 1002 1018 994 1015 l 1013 1022 q 1036 1031 1028 1027 q 1027 1031 1032 1033 q 1022 1030 1025 1031 l 1017 1029 q 1003 1031 1007 1025 q 1009 1033 1005 1032 l 1012 1034 l 1015 1034 q 1024 1040 1021 1036 q 1017 1040 1021 1042 q 1014 1039 1015 1040 l 1010 1038 q 1006 1036 1008 1036 q 1003 1040 1004 1036 q 1053 1078 1019 1055 q 1036 1073 1046 1077 l 1027 1069 l 1019 1065 q 990 1057 998 1055 q 1029 1078 1003 1066 l 1040 1083 l 1050 1088 q 1070 1099 1062 1094 q 1061 1105 1059 1098 l 1061 1107 l 1062 1110 q 1061 1116 1063 1114 q 1065 1114 1063 1115 l 1067 1113 l 1068 1112 q 1078 1107 1072 1109 q 1082 1122 1075 1123 q 1088 1118 1084 1121 q 1095 1112 1092 1115 l 1095 1128 q 1103 1128 1101 1131 q 1103 1122 1104 1126 l 1103 1120 l 1103 1118 q 1103 1114 1103 1116 q 1108 1112 1104 1111 q 1108 1116 1108 1113 l 1108 1119 l 1108 1122 q 1112 1128 1109 1127 q 1114 1122 1114 1126 l 1114 1118 l 1115 1114 q 1124 1107 1117 1106 q 1122 1112 1124 1108 q 1120 1120 1120 1116 q 1124 1133 1118 1131 q 1145 1130 1125 1126 q 1153 1132 1148 1131 l 1161 1134 q 1175 1137 1171 1136 q 1145 1154 1163 1150 q 1113 1152 1133 1156 l 1105 1151 l 1097 1149 q 1082 1147 1088 1148 q 1057 1154 1067 1146 q 1049 1145 1057 1143 q 1046 1149 1045 1145 l 1047 1150 q 1047 1152 1047 1151 q 1045 1154 1047 1153 q 1021 1145 1037 1149 l 1015 1143 l 1008 1141 q 996 1138 1001 1139 q 969 1107 968 1128 q 960 1108 966 1106 l 956 1109 l 951 1111 q 936 1107 940 1114 q 952 1090 949 1103 q 942 1093 946 1093 q 939 1092 940 1093 q 936 1090 937 1091 q 931 1088 933 1088 q 923 1090 928 1087 q 926 1084 923 1088 q 930 1081 928 1083 l 933 1078 q 936 1069 941 1072 q 933 1072 935 1070 q 930 1074 932 1073 q 923 1079 926 1077 q 910 1078 913 1084 q 922 1074 918 1078 q 924 1070 923 1072 l 926 1067 l 927 1065 q 906 1069 914 1063 q 908 1065 906 1067 l 909 1063 l 911 1062 q 915 1053 916 1059 q 897 1056 909 1049 l 892 1059 l 887 1061 q 877 1065 881 1064 q 861 1101 872 1074 q 853 1122 857 1114 q 843 1143 848 1134 q 789 1225 818 1198 q 787 1220 789 1222 l 785 1219 l 783 1217 q 780 1208 779 1215 q 784 1197 781 1203 q 787 1192 785 1194 l 791 1186 q 797 1171 800 1173 q 794 1175 796 1173 q 791 1177 793 1177 l 789 1179 q 799 1162 797 1168 q 789 1166 801 1155 q 795 1155 790 1162 q 806 1143 799 1150 q 814 1133 817 1131 l 806 1138 l 799 1144 q 785 1156 789 1152 q 751 1175 767 1168 q 779 1142 758 1160 l 787 1135 q 795 1128 792 1131 q 810 1112 804 1120 q 792 1122 802 1115 l 785 1128 l 777 1134 q 738 1149 758 1148 q 738 1139 737 1145 l 738 1133 l 739 1128 q 734 1112 739 1114 q 729 1126 733 1128 q 726 1122 728 1125 q 726 1116 726 1118 q 722 1120 723 1116 q 722 1123 722 1121 l 722 1126 q 717 1137 722 1136 q 716 1127 715 1133 l 717 1122 l 718 1118 q 717 1107 720 1107 q 713 1115 715 1110 l 712 1120 l 711 1124 q 705 1141 709 1137 q 705 1136 705 1139 l 705 1133 l 704 1131 q 701 1124 704 1125 q 688 1154 701 1140 q 691 1134 688 1145 q 694 1124 692 1129 l 698 1114 q 705 1082 707 1091 q 696 1103 701 1090 l 693 1113 l 689 1123 q 671 1162 680 1148 q 674 1148 671 1156 l 677 1141 l 680 1135 q 684 1112 688 1119 q 677 1124 681 1115 l 673 1131 l 669 1138 q 654 1154 661 1156 q 663 1139 656 1147 l 669 1131 l 675 1122 q 684 1090 688 1103 q 663 1130 676 1111 q 637 1154 648 1151 q 642 1147 639 1151 l 645 1144 l 648 1141 q 660 1127 656 1133 q 671 1099 673 1109 l 668 1103 l 665 1107 q 658 1118 661 1114 q 643 1137 650 1129 q 612 1162 625 1159 q 616 1156 613 1158 l 618 1154 l 621 1152 q 625 1137 627 1146 q 618 1137 621 1135 q 616 1139 617 1137 q 614 1141 615 1139 q 610 1145 612 1144 q 608 1141 609 1145 q 612 1139 610 1141 q 616 1135 614 1138 q 616 1131 617 1133 q 612 1128 616 1128 q 601 1138 610 1135 l 597 1140 l 593 1141 q 587 1145 589 1143 q 589 1139 587 1141 q 592 1138 591 1139 l 595 1137 q 604 1128 604 1134 q 584 1131 595 1133 q 566 1124 574 1130 q 674 1093 628 1119 q 715 1067 692 1083 q 734 1052 722 1061 l 745 1044 l 755 1036 q 750 1036 753 1036 l 747 1036 l 745 1036 q 738 1031 739 1035 q 749 1031 747 1031 q 748 1029 750 1030 l 747 1028 l 745 1027 q 742 1025 743 1025 q 738 1019 739 1022 q 780 1002 764 1015 q 744 1004 767 999 l 734 1007 l 724 1010 q 703 1015 710 1013 q 665 1017 680 1020 q 637 994 646 1013 q 643 994 639 993 l 647 994 l 650 994 q 659 989 659 995 q 652 986 656 987 l 648 985 l 644 985 q 633 977 635 982 q 642 979 636 977 l 646 980 l 651 981 q 673 985 665 984 q 709 977 700 989 l 703 975 l 697 974 q 685 971 689 972 q 667 960 672 967 q 682 962 673 960 l 690 964 l 697 966 q 726 964 716 971 q 716 962 720 963 q 705 960 710 961 q 682 954 691 957 q 667 935 656 945 q 648 937 656 941 q 637 922 640 934 q 614 927 625 921 l 608 930 l 604 932 q 591 939 596 937 q 595 932 591 936 l 596 931 l 597 930 q 600 926 599 928 q 592 928 595 925 q 589 930 590 928 q 587 933 588 931 q 583 938 583 937 q 578 935 581 939 q 583 932 580 935 q 588 928 586 930 q 587 922 593 923 q 571 936 583 929 l 566 939 l 562 941 q 553 947 557 945 q 559 939 555 944 l 564 935 l 568 930 q 574 914 578 919 q 555 926 568 918 l 546 933 q 536 940 541 937 q 494 951 511 956 q 507 943 504 952 q 500 944 503 943 q 494 947 498 945 q 481 951 488 952 q 484 947 481 949 l 485 945 q 486 943 486 945 q 477 943 481 941 q 473 945 475 944 l 471 947 l 469 948 q 463 951 465 951 q 456 947 459 951 q 467 941 467 947 l 467 938 q 468 935 467 937 q 473 930 469 932 q 460 932 469 930 l 454 933 l 447 935 q 423 930 430 938 q 481 909 466 928 q 477 907 479 909 l 474 906 l 472 905 q 460 901 467 901 q 463 909 460 906 l 465 910 l 467 911 q 469 914 469 913 q 460 916 466 913 l 456 918 l 452 920 q 435 918 441 926 l 439 917 l 442 916 q 449 913 447 913 q 456 901 456 909 l 454 901 l 452 901 q 449 901 450 901 q 444 897 444 900 q 448 892 448 895 q 447 890 448 892 l 446 888 q 448 880 442 882 q 456 893 448 890 q 453 881 456 887 q 449 875 452 878 l 446 869 q 439 851 435 857 q 454 871 446 867 l 456 872 l 458 873 q 463 875 460 874 q 473 884 468 878 q 473 880 474 882 l 473 878 l 471 876 q 473 872 470 873 q 476 873 475 873 q 477 874 477 873 q 479 875 479 874 q 479 876 479 875 q 480 878 480 877 q 481 880 481 879 q 484 871 484 877 l 484 867 l 484 862 q 494 846 484 850 q 503 854 498 849 l 508 860 l 513 865 q 532 872 525 876 q 519 851 522 868 q 549 867 536 858 q 547 859 549 863 q 543 854 545 857 l 542 852 l 540 850 q 535 844 536 846 q 536 838 534 840 q 553 857 542 848 q 570 863 565 867 q 553 838 557 855 q 566 833 559 831 q 576 839 570 833 l 578 842 l 580 844 q 584 847 583 846 q 591 846 588 850 q 578 833 585 842 l 572 825 q 566 817 568 820 q 481 775 513 805 q 446 722 458 753 q 432 707 439 718 q 420 686 425 697 q 427 706 418 694 l 431 711 l 434 715 q 440 724 438 721 q 431 715 436 726 l 428 711 l 425 707 q 421 699 422 701 q 423 713 418 704 l 426 718 l 428 722 q 430 730 430 726 q 418 707 424 722 l 415 701 l 413 694 q 408 682 410 687 q 412 702 406 688 l 414 707 l 417 713 q 420 725 419 720 q 411 707 412 718 q 409 711 409 708 l 409 715 q 409 718 409 717 q 405 708 406 715 l 404 705 l 403 703 q 400 698 402 699 q 400 704 398 698 l 401 707 l 401 710 q 401 715 402 713 q 398 710 398 715 l 398 707 l 397 705 q 395 703 397 703 q 395 707 395 705 q 393 709 395 709 q 390 701 391 711 q 388 711 387 703 l 389 714 l 389 718 q 389 724 389 722 q 364 715 376 724 l 359 712 l 355 709 q 344 703 349 705 q 353 712 348 707 l 358 717 l 363 721 q 382 740 377 731 q 361 729 372 736 q 351 722 357 727 l 347 719 l 342 715 q 347 722 340 715 q 354 729 352 726 q 358 736 357 733 q 352 734 351 729 q 359 743 353 737 l 357 743 l 355 741 q 353 739 354 741 q 357 748 352 741 l 360 751 l 362 754 q 365 761 364 758 q 363 767 366 765 l 362 768 l 361 768 q 360 772 360 770 q 324 724 341 756 q 318 710 321 718 q 312 698 316 705 q 302 676 305 682 q 296 674 299 676 l 292 673 l 289 671 q 279 670 281 667 q 281 675 277 673 l 281 676 l 283 677 q 284 680 284 678 q 271 677 279 676 l 273 680 q 275 683 274 682 q 281 685 277 686 q 274 686 280 689 q 269 683 272 685 l 267 682 q 266 680 267 681 q 268 686 262 682 l 270 688 l 272 689 q 275 693 274 691 q 267 693 270 690 l 265 694 q 263 695 264 694 q 256 694 260 695 q 267 703 259 702 q 258 706 264 708 l 255 705 l 252 705 q 247 705 249 704 q 231 724 248 718 q 224 726 228 725 l 216 729 q 201 734 206 732 q 200 734 200 734 l 200 733 l 201 732 q 199 730 201 730 q 194 735 194 729 q 178 732 189 731 q 170 734 175 732 l 165 735 l 160 736 q 121 728 135 741 q 130 726 124 728 l 135 724 l 140 723 q 153 724 152 720 q 155 717 156 723 q 153 711 155 714 q 152 709 153 709 q 158 713 157 708 l 158 715 l 159 718 q 160 721 159 720 q 162 717 162 721 l 162 714 q 162 711 162 712 q 165 713 164 711 q 165 715 165 713 l 165 717 q 170 721 165 723 l 170 711 q 174 714 172 713 q 178 716 176 716 q 180 707 182 718 q 186 710 184 709 l 187 711 l 188 711 q 191 712 189 711 q 190 709 189 711 l 191 707 l 191 705 q 184 702 192 701 q 197 695 190 699 l 203 692 l 209 688 q 233 674 225 680 q 216 680 228 673 l 210 683 l 205 686 q 195 689 199 688 q 224 665 215 674 q 219 663 223 661 l 218 664 l 216 665 q 212 665 214 666 q 217 661 213 663 l 220 661 l 224 659 q 215 658 221 655 l 212 659 l 210 660 q 203 660 206 661 q 218 654 208 657 l 224 651 l 232 648 q 254 630 248 640 q 223 644 238 641 q 246 633 237 635 q 227 632 239 629 q 215 635 223 633 l 210 637 l 203 638 q 180 640 189 642 q 163 626 169 637 q 165 624 164 624 q 168 626 165 624 l 170 627 q 172 629 170 628 q 176 628 174 629 q 168 623 174 625 q 173 621 170 619 l 175 623 l 177 623 q 181 623 179 624 q 180 619 181 621 q 178 618 179 618 l 176 618 q 171 613 171 616 q 178 614 174 612 l 182 615 l 185 616 q 197 616 193 620 q 186 609 195 612 l 183 608 l 180 606 q 175 602 177 605 q 192 606 179 602 l 197 607 l 202 608 q 212 611 208 610 q 206 605 215 608 l 203 604 l 199 603 q 193 602 195 602 q 201 597 195 599 q 206 597 203 597 l 211 595 q 201 591 208 591 q 211 584 202 587 q 220 583 219 581 q 213 575 222 579 l 209 573 l 205 572 q 199 568 201 570 m 33 300 q 35 303 34 302 l 37 304 l 39 305 q 37 301 39 304 l 37 299 l 36 296 q 32 286 33 290 q 35 264 28 271 q 46 294 37 277 q 46 290 47 292 l 45 287 l 45 284 q 48 277 45 277 q 48 281 47 278 l 48 284 l 49 287 q 46 294 50 294 l 49 300 l 52 304 q 52 299 52 304 l 52 296 l 51 292 q 54 289 51 284 q 54 294 54 291 l 54 298 l 54 301 q 57 309 54 309 q 60 293 57 302 q 64 283 62 283 q 63 298 63 289 l 63 305 l 63 313 q 61 340 63 330 q 57 336 59 338 l 52 332 q 42 324 45 327 q 31 305 31 313 q 33 305 35 309 l 32 303 q 32 301 32 302 q 33 300 32 300 m 197 273 q 208 281 206 280 q 208 278 210 281 q 203 271 206 275 q 200 269 201 270 q 199 267 199 267 q 205 272 202 269 l 209 275 l 212 277 q 226 287 220 284 q 227 280 226 284 l 227 277 l 227 273 q 232 260 227 265 q 234 264 231 267 l 235 264 q 237 263 236 263 q 237 266 237 263 q 235 269 235 266 q 233 269 235 271 l 233 269 l 231 267 q 230 266 231 267 q 232 275 229 271 l 233 276 l 234 277 q 235 281 235 279 l 233 284 l 231 287 q 229 294 229 290 q 218 290 223 292 q 208 285 213 288 q 197 273 197 278 m 204 267 q 192 255 191 254 q 203 263 193 255 q 218 276 212 271 q 220 279 225 283 q 212 273 218 278 q 204 267 205 268 m 206 246 q 202 242 205 245 l 200 240 l 197 237 q 195 229 192 232 q 200 235 197 231 l 203 239 l 205 243 q 216 251 212 253 q 212 246 214 249 q 206 240 208 243 q 203 229 200 232 q 208 236 205 234 q 208 230 208 234 l 208 227 l 207 223 q 210 213 206 214 q 211 215 211 214 l 212 216 l 212 218 q 215 223 212 223 q 215 215 214 220 q 217 215 216 210 q 218 220 218 218 l 217 222 l 216 224 q 216 233 214 229 q 220 237 222 231 l 220 240 q 219 242 219 241 q 221 243 219 243 q 223 239 222 242 l 224 235 l 224 232 q 228 227 226 224 q 228 231 229 229 l 227 233 l 227 235 q 229 240 224 239 q 231 236 230 239 l 231 234 l 233 231 q 238 224 235 226 q 235 237 237 229 l 233 244 l 231 251 q 220 274 227 267 q 213 266 218 271 l 208 262 l 204 258 q 195 242 193 250 q 201 248 196 245 q 206 246 206 250 m 480 522 q 475 528 474 523 q 460 531 463 528 q 469 523 463 525 q 475 522 472 522 q 480 522 477 522 m 283 315 q 280 320 281 316 l 278 323 l 277 327 q 269 331 273 335 q 273 326 271 330 l 274 323 l 275 319 q 283 315 279 311 m 591 552 l 588 555 q 585 557 586 557 q 579 556 582 559 q 585 553 582 556 l 588 551 l 591 549 l 591 552 m 216 539 q 212 536 214 537 l 208 533 q 200 527 203 529 q 203 535 196 531 q 210 537 206 536 l 214 538 q 216 539 215 538 m 210 526 q 231 536 218 533 l 229 534 l 227 532 q 222 529 224 530 q 210 526 217 526 m 273 423 q 271 420 272 422 l 269 418 l 268 416 q 264 403 264 410 q 264 400 264 401 q 265 399 264 399 q 267 399 266 399 q 267 403 267 401 q 269 410 267 406 l 271 416 q 275 429 275 425 q 273 423 277 433 m 427 414 q 432 396 435 410 l 430 390 q 429 385 429 387 q 430 375 428 378 q 433 391 432 380 l 435 398 q 436 406 435 403 q 435 408 436 406 l 435 409 q 431 413 433 412 q 427 414 428 418 m 444 390 q 446 393 446 391 q 444 397 446 395 q 441 399 442 399 q 439 398 439 400 q 441 394 441 398 l 441 393 l 441 391 q 444 390 442 391 m 195 393 q 192 395 193 393 q 192 397 192 395 l 192 399 q 187 401 192 404 q 187 397 186 399 q 190 393 189 395 q 193 392 191 392 q 195 393 194 391 m 258 385 q 256 379 258 383 l 254 376 l 252 372 q 252 360 248 364 q 254 361 252 363 l 255 361 l 256 361 q 257 362 257 361 q 254 368 254 364 q 256 375 254 371 l 258 378 q 259 382 259 380 q 258 385 260 385 m 309 376 q 306 370 307 370 q 301 373 304 369 l 301 370 l 301 367 q 301 359 301 362 q 302 339 301 348 q 314 306 304 315 q 316 321 314 313 q 322 335 318 327 q 329 359 330 352 q 323 352 326 355 l 321 351 l 320 349 q 315 345 318 347 q 316 355 316 350 q 316 359 316 357 l 316 362 q 317 380 316 372 l 315 375 l 314 370 q 309 363 312 365 q 309 367 308 365 l 309 369 l 311 370 q 309 376 313 374 m 347 369 q 354 342 349 353 q 347 369 355 357 m 252 357 q 241 340 245 353 q 240 319 237 328 q 243 329 241 323 l 246 338 q 252 357 250 351 m 467 348 q 468 335 467 342 q 471 330 470 327 l 471 335 q 471 340 471 338 q 467 348 469 345 m 333 336 q 317 315 323 332 q 321 290 311 296 q 322 313 314 304 q 322 308 323 311 l 321 306 l 320 304 q 321 298 317 299 q 323 309 322 302 l 323 314 l 324 319 q 333 336 326 330 m 356 330 q 351 328 355 327 q 347 319 349 324 l 344 315 l 341 310 q 332 291 334 298 q 337 256 323 269 q 339 263 339 258 l 340 267 l 340 269 l 339 271 q 340 275 339 275 q 343 274 340 277 q 342 286 341 279 l 342 288 l 343 291 q 342 297 343 294 q 344 296 342 297 l 345 296 l 345 296 q 347 297 346 295 q 345 300 344 297 q 342 302 345 302 q 334 287 340 292 l 334 290 l 336 293 q 338 299 338 296 q 345 312 342 307 q 361 319 353 326 q 356 330 360 328 m 399 315 q 399 319 400 317 q 394 320 397 320 q 391 319 392 320 q 391 318 389 319 q 393 317 393 318 l 395 316 q 399 315 397 315 m 232 258 q 234 250 231 255 q 237 250 236 245 q 232 258 235 256 m 376 190 q 368 178 367 192 q 371 178 369 179 l 373 177 l 374 176 q 378 177 377 174 q 375 182 374 178 q 377 184 376 182 q 375 185 377 184 q 374 184 373 182 l 374 185 l 375 186 q 376 190 376 189 m 413 453 q 416 454 414 457 l 417 452 l 418 451 q 420 450 419 450 q 420 461 419 455 l 421 467 l 422 471 q 422 489 426 484 q 418 480 421 486 l 416 476 l 414 472 q 413 453 408 461 m 894 1057 q 890 1046 882 1053 q 898 1040 893 1042 q 906 1036 903 1037 q 901 1046 905 1041 l 897 1052 q 894 1057 895 1055 m 940 994 q 944 996 941 995 l 946 997 l 949 998 q 952 1006 954 1000 q 948 1004 951 1005 l 946 1003 l 943 1002 q 940 994 938 1000 m 722 989 l 723 987 l 725 984 q 729 979 728 981 q 743 972 734 973 l 741 975 l 739 979 q 734 984 736 982 q 722 989 729 989 m 692 943 q 682 947 687 947 q 677 945 678 947 q 679 941 675 941 q 692 943 683 940 m 726 926 q 733 922 728 922 q 739 924 737 922 q 738 927 741 926 q 726 926 734 928 m 1007 880 q 1015 876 1006 875 l 1019 876 l 1022 876 q 1028 876 1026 877 q 1020 881 1029 882 l 1017 880 l 1013 880 q 1007 880 1009 880 m 372 872 q 366 876 372 878 q 360 874 363 876 l 358 873 l 357 873 l 356 872 l 356 871 q 362 869 357 865 l 365 871 q 367 872 366 871 q 372 872 370 873 m 978 867 q 987 863 978 862 l 991 863 l 996 864 q 1003 863 1000 864 q 993 868 1002 869 l 989 867 l 985 867 q 978 867 980 867 m 982 855 q 972 860 981 861 l 968 859 l 964 859 q 957 859 959 859 q 969 852 962 854 q 982 855 977 850 m 814 846 l 815 844 l 817 842 q 820 838 818 840 q 831 834 824 833 l 829 836 l 828 839 q 825 843 826 842 q 814 846 821 847 m 797 846 l 799 844 l 801 840 q 806 835 804 837 q 822 830 812 829 l 820 833 l 818 836 q 813 842 815 840 q 797 846 807 848 m 948 838 q 942 842 947 842 l 939 842 l 937 842 q 931 842 933 842 l 931 834 q 936 830 935 835 q 938 833 937 831 l 939 834 l 941 836 q 948 838 943 839 m 923 838 q 919 836 920 839 q 918 830 918 833 q 921 825 919 827 q 927 825 924 823 l 927 834 q 923 838 924 833 m 797 800 q 794 808 798 806 q 789 808 792 808 l 787 809 l 785 809 q 797 800 787 800 m 864 763 q 868 767 863 766 q 852 775 867 777 q 856 763 856 768 l 864 763 m 1032 637 l 1024 637 l 1024 628 l 1032 628 l 1032 637 m 810 616 q 808 618 809 618 q 806 616 807 618 q 805 612 806 614 q 806 607 805 609 q 807 604 806 604 q 808 606 808 604 q 810 610 809 608 q 810 616 810 614 m 789 557 q 797 582 798 562 q 789 557 789 575 m 722 578 q 728 574 725 573 q 731 578 730 575 q 730 582 732 581 q 722 578 727 583 m 785 536 q 777 523 778 533 q 776 513 776 519 l 776 507 l 776 502 q 781 517 780 507 l 782 522 l 783 527 q 785 536 783 532 m 759 283 l 751 283 l 751 275 l 759 275 l 759 283 m 356 872 l 356 871 l 356 872 l 356 872 m 381 876 q 390 880 385 876 l 395 883 l 399 886 q 414 888 410 895 q 406 885 411 888 l 401 882 l 397 878 q 381 876 386 871 m 425 905 l 423 905 l 421 905 l 420 905 l 418 905 l 417 905 l 415 904 l 414 904 l 412 903 l 411 903 l 409 903 l 408 903 l 406 903 l 405 902 l 401 901 l 400 901 l 399 901 l 397 901 l 396 900 l 394 899 l 393 899 l 391 899 l 390 898 l 389 898 l 387 897 l 386 897 l 385 897 q 378 894 382 895 l 378 893 l 376 892 l 376 892 l 374 891 l 373 890 l 372 890 l 371 889 l 370 888 l 369 888 l 368 887 l 368 887 q 361 881 363 884 l 361 881 l 360 880 l 359 879 l 359 878 l 359 878 l 358 876 l 357 876 l 357 874 l 357 873 l 356 872 l 357 873 l 358 873 l 360 874 q 366 876 363 876 q 372 872 372 878 q 367 872 370 873 q 365 871 366 871 l 362 869 q 356 871 357 865 l 356 869 l 355 869 l 355 867 l 355 865 l 356 863 q 349 859 354 861 l 346 856 q 342 852 344 854 q 343 838 336 846 q 351 846 346 842 l 355 850 l 360 853 q 377 867 372 861 q 380 861 378 864 q 382 859 381 860 q 385 858 383 859 q 387 857 387 857 q 385 855 388 856 q 403 866 393 851 l 407 872 l 411 879 q 418 888 415 886 q 427 876 424 885 q 439 890 435 876 l 439 895 q 441 900 441 898 q 448 905 444 905 q 435 899 439 911 q 435 895 435 897 l 433 889 q 431 880 432 882 q 429 890 428 884 l 429 893 q 429 897 429 895 q 427 905 429 901 l 425 905 m 1293 439 q 1276 470 1294 452 q 1261 485 1272 475 l 1257 488 l 1253 492 q 1246 498 1249 495 q 1241 453 1242 482 l 1240 441 l 1240 429 q 1238 406 1239 414 q 1246 420 1240 404 q 1251 448 1251 436 q 1255 433 1256 446 l 1255 428 l 1255 423 q 1255 414 1254 417 q 1259 419 1259 406 q 1259 425 1259 421 l 1259 431 q 1259 439 1259 437 l 1263 431 l 1267 422 q 1263 410 1262 421 l 1263 406 l 1264 401 q 1263 393 1264 395 q 1268 405 1269 394 l 1267 409 l 1267 414 q 1267 422 1267 419 q 1284 372 1282 393 q 1290 406 1295 382 q 1284 425 1289 414 l 1283 429 l 1282 433 q 1280 439 1281 437 l 1283 437 q 1285 436 1284 437 q 1289 431 1288 434 q 1291 432 1291 429 q 1291 435 1291 433 q 1290 438 1291 436 q 1289 443 1289 442 q 1293 439 1289 444 m 969 435 q 964 422 969 428 l 962 420 l 960 418 q 957 414 958 416 q 959 408 958 411 l 961 406 l 962 403 q 965 389 966 397 q 962 391 964 389 l 961 393 l 960 395 q 957 393 958 397 q 952 389 958 389 q 954 385 952 385 q 956 386 955 385 l 958 387 q 961 380 962 390 q 971 400 969 387 l 971 406 l 972 412 q 973 422 972 418 q 996 406 983 418 l 1000 401 l 1005 397 q 1015 389 1010 392 q 1014 391 1015 389 q 1010 395 1012 393 q 1002 407 1004 403 q 1001 412 998 412 q 1020 397 1005 410 q 1002 418 1020 406 q 985 427 994 422 q 969 435 977 431 m 982 410 q 985 405 974 415 q 1009 382 994 395 q 1026 368 1025 368 q 1007 389 1028 368 q 996 399 1005 391 q 982 410 985 407 m 1020 347 q 1007 375 1024 359 l 1000 381 q 993 388 995 385 q 982 401 985 395 q 962 364 970 390 l 959 353 l 956 342 q 948 321 951 330 q 958 332 954 323 l 960 336 l 962 340 q 965 347 963 344 q 968 338 972 345 l 967 334 l 966 332 q 965 326 964 328 q 971 333 968 320 l 972 338 q 974 344 973 342 q 978 351 976 349 q 981 349 981 351 q 980 345 981 347 l 979 344 l 979 342 q 986 334 975 332 q 985 319 988 326 l 983 316 q 982 313 983 314 q 982 304 981 309 q 986 304 984 296 q 986 317 987 312 q 991 309 990 317 l 991 307 q 991 304 991 305 q 994 300 993 301 q 999 317 1000 303 l 999 322 l 998 328 q 999 338 998 334 q 1007 326 1004 334 q 1002 345 1011 332 q 994 355 998 349 q 986 363 990 359 q 1003 350 993 366 l 1008 343 l 1012 336 q 1020 326 1017 329 q 1016 340 1025 330 l 1013 344 l 1008 348 q 1003 355 1004 353 q 1011 356 1003 361 q 1020 347 1019 351 m 957 410 q 948 398 950 404 q 947 393 946 394 q 951 395 949 391 q 957 410 955 399 m 574 825 q 582 825 578 825 q 591 826 587 825 q 608 838 603 829 q 583 834 602 833 q 574 825 584 827 m 381 876 q 397 878 386 871 l 401 882 l 406 885 q 414 888 411 888 q 399 886 410 895 l 395 883 l 390 880 q 381 876 385 876 m 1007 834 q 1020 823 1010 830 q 1032 813 1029 817 q 1028 827 1040 820 q 1017 831 1023 829 q 1012 833 1015 832 q 1007 834 1009 833 m 982 830 l 985 827 l 989 824 q 996 819 993 821 q 1015 813 1004 812 q 982 830 1002 825 m 1032 595 q 1035 591 1033 591 q 1040 594 1037 592 q 1044 600 1042 597 q 1045 607 1046 604 q 1037 603 1037 610 l 1037 600 q 1036 597 1037 597 q 1032 595 1036 594 m 780 565 q 768 523 768 546 q 780 565 777 541 m 574 511 q 580 518 577 505 q 583 540 583 530 q 576 527 578 536 q 575 519 576 524 l 574 511 m 705 486 q 706 488 708 486 q 700 489 704 489 q 693 488 695 489 q 692 481 690 485 q 699 483 696 480 l 700 484 l 701 484 q 705 486 703 485 m 961 376 q 952 363 956 372 q 958 363 954 356 q 961 376 962 371 m 454 -43 l 454 -43 l 453 -43 l 454 -43 z "},"\\":{"ha":954,"x_min":-44,"x_max":902,"o":"m 380 1152 q 378 1152 379 1152 l 380 1152 m 220 800 q 220 791 218 796 l 214 789 q 220 800 216 797 m 224 793 l 224 798 l 223 802 q 224 808 223 805 q 231 815 225 815 q 231 804 231 810 q 230 800 231 802 l 229 796 l 224 793 m 230 690 q 229 697 229 694 l 229 699 l 229 708 l 229 709 l 229 711 q 237 718 231 715 q 231 688 233 710 l 230 690 m 239 819 l 239 815 l 241 811 q 243 802 242 806 q 234 798 239 800 q 239 819 234 814 m 251 821 q 250 825 250 823 q 251 821 250 823 m 266 821 l 267 815 l 268 810 l 267 809 q 266 821 266 815 m 294 827 q 287 845 290 836 q 294 827 290 838 m 414 598 q 416 624 416 609 q 417 635 416 629 l 417 622 q 415 596 416 607 q 395 554 411 567 q 414 598 409 566 m 484 644 q 482 651 484 646 l 481 654 l 483 651 q 485 644 484 646 q 481 633 487 635 q 484 644 486 635 m 587 878 q 581 886 583 880 q 589 884 583 884 q 595 885 591 884 l 603 885 l 599 883 l 587 878 m 613 890 q 623 897 610 896 q 608 909 612 900 q 620 904 612 909 q 625 901 622 903 l 628 899 l 630 897 l 613 890 m 610 885 q 618 883 615 884 q 614 887 616 885 q 634 879 623 885 q 625 878 630 879 q 610 885 617 882 m 633 902 l 628 905 q 620 911 623 909 q 615 924 611 918 q 641 912 625 912 l 655 912 q 669 911 664 912 q 636 899 654 906 l 633 902 m 669 914 l 667 915 l 665 916 q 660 924 661 919 q 671 920 665 924 q 677 917 674 919 l 682 914 l 672 911 q 669 914 671 912 m 689 915 l 682 919 l 675 924 q 664 935 667 930 q 703 917 683 927 l 701 917 q 689 915 695 916 m 698 924 q 701 924 696 927 l 703 923 l 705 922 q 710 918 709 919 l 707 918 l 704 918 q 698 924 702 922 m 716 919 q 709 924 713 922 l 704 927 l 701 930 q 686 942 690 936 q 709 934 696 942 l 713 930 l 718 927 q 728 920 724 922 q 716 919 722 920 m 488 629 q 489 646 494 634 l 487 651 l 484 656 q 481 665 481 661 q 484 656 481 662 l 487 651 l 490 646 q 488 629 494 635 m 179 895 l 182 897 q 179 895 183 897 m 227 607 q 227 610 227 609 q 227 607 228 610 m 663 899 l 661 900 q 662 900 661 901 l 663 899 m 348 488 q 350 498 345 495 q 348 488 349 493 m 348 488 l 349 484 q 351 481 351 482 q 350 472 352 476 q 346 478 347 473 l 347 483 l 348 488 m 783 520 q 798 476 795 494 q 802 507 807 485 q 798 523 802 513 l 797 526 l 795 530 q 794 536 794 534 l 797 534 l 799 533 q 802 528 801 531 q 804 530 804 527 q 804 532 804 531 l 803 535 q 805 536 801 541 q 791 563 806 547 q 777 576 787 568 l 774 579 l 770 583 q 764 588 766 585 q 759 548 760 574 l 758 538 l 758 527 q 757 506 758 514 q 763 519 759 505 q 768 543 768 533 q 772 530 773 541 l 772 526 l 771 521 q 772 513 771 516 q 776 518 775 506 l 776 528 q 776 536 775 534 l 779 528 l 783 520 m 680 996 q 657 984 669 992 q 680 996 670 989 m 508 469 q 511 479 511 475 q 503 469 507 476 q 508 469 505 462 m 284 578 q 279 580 283 580 q 273 578 275 580 q 272 572 271 576 q 278 574 275 572 l 279 575 l 280 576 q 283 576 281 576 q 284 578 286 578 m 170 614 q 169 606 169 611 l 168 599 q 173 606 170 594 q 175 625 175 617 q 170 614 172 622 m 576 671 q 581 673 578 671 q 585 679 583 676 q 585 684 586 682 q 578 681 578 688 l 578 678 q 578 675 578 677 q 574 673 577 673 q 576 671 574 671 m 552 479 l 545 484 l 539 490 q 529 502 532 497 q 512 469 519 492 l 509 460 l 506 450 q 500 431 503 438 q 508 441 505 433 l 510 444 l 511 448 q 514 454 513 452 q 517 446 521 452 l 516 443 l 515 440 q 514 435 513 437 q 520 441 517 430 l 521 446 l 522 451 q 526 457 524 456 q 528 455 528 458 q 528 452 528 454 l 526 449 q 533 442 524 440 q 531 429 534 435 l 530 427 l 530 424 q 529 416 528 420 q 533 416 531 408 q 533 427 534 423 q 537 420 536 427 l 538 418 l 538 416 q 541 412 539 414 q 545 427 545 415 l 544 432 l 544 437 q 544 446 544 443 q 552 435 549 443 q 547 452 555 439 q 540 461 544 456 q 533 469 536 465 q 548 456 539 471 l 552 450 l 555 445 q 563 435 560 437 q 560 448 568 439 l 557 451 l 553 455 q 548 460 549 459 q 555 462 548 466 q 563 454 562 458 q 552 479 567 465 m 532 505 q 553 485 541 496 q 568 473 567 473 q 552 491 570 472 q 542 500 550 492 q 529 510 532 507 q 532 505 522 515 m 44 944 q 43 940 44 943 l 43 935 q 41 927 41 929 q 38 936 37 930 l 39 939 l 39 942 q 37 949 39 945 l 33 949 l 31 949 l 28 949 l 26 948 l 25 948 l 23 948 l 22 948 l 20 947 l 20 947 l 18 947 l 17 947 l 14 946 l 13 945 l 12 945 l 10 945 l 9 945 l 7 944 l 7 944 l 5 943 l 4 943 l 2 943 l 2 943 l 0 942 l -1 941 q -6 939 -3 940 l -7 939 l -8 938 l -9 937 l -10 937 l -11 937 l -12 936 l -13 935 l -14 935 l -15 935 l -16 933 l -16 932 q -21 928 -19 930 l -22 928 l -22 927 l -23 926 l -24 925 l -24 924 l -24 924 l -24 923 l -25 922 l -26 922 l -26 920 l -26 920 l -26 919 l -26 918 l -26 912 q -32 907 -28 911 l -35 905 l -38 903 q -37 890 -44 897 q -31 897 -35 893 l -26 900 l -22 903 q -8 916 -12 911 q -5 910 -7 912 q -3 909 -4 909 l -1 907 l 1 906 q -1 905 2 906 q 15 914 6 901 l 18 920 l 22 926 q 29 935 26 932 q 37 924 33 931 q 47 936 44 924 l 48 940 q 50 945 49 943 q 56 949 52 949 q 44 944 47 955 m 663 899 q 682 894 670 899 l 692 890 l 703 885 q 743 878 728 875 l 743 879 q 727 890 739 885 q 717 895 722 893 l 712 897 l 711 897 l 709 899 q 736 899 717 903 l 745 897 l 753 896 q 766 892 762 893 q 781 889 772 892 l 789 886 l 797 884 q 826 882 818 878 q 798 918 828 909 q 737 922 776 924 q 734 929 734 924 l 734 933 l 733 937 q 727 953 732 948 q 784 938 747 942 l 799 937 l 806 936 l 813 935 q 839 931 829 934 q 852 922 844 930 l 857 920 l 860 917 q 867 910 865 912 q 902 901 888 895 q 818 959 878 945 q 712 963 773 970 q 612 940 661 957 q 607 939 611 940 q 657 984 629 966 q 578 960 631 972 q 563 968 580 965 q 589 976 577 968 l 587 977 l 585 977 l 583 977 q 578 979 581 978 q 573 981 575 980 q 563 991 558 987 q 576 987 568 989 l 584 984 l 591 981 q 615 976 610 975 q 608 982 613 979 q 604 984 607 983 l 599 986 q 585 998 587 991 q 604 997 591 1002 l 608 995 l 613 992 q 623 991 619 990 l 608 1005 q 612 1006 610 1006 l 616 1005 l 618 1003 q 626 1005 625 1000 l 615 1013 q 623 1013 619 1015 q 625 1012 624 1013 q 627 1010 626 1011 q 631 1006 630 1007 q 633 1009 633 1006 q 610 1031 626 1027 q 578 1029 599 1034 l 570 1027 l 562 1025 q 545 1021 551 1023 q 514 1024 526 1018 q 548 1039 532 1029 q 503 1021 526 1036 q 536 1045 512 1036 q 547 1050 541 1047 l 557 1053 q 578 1061 570 1058 q 569 1062 574 1063 l 565 1060 l 561 1059 q 548 1061 552 1055 q 553 1063 549 1062 l 556 1063 l 559 1064 q 566 1069 565 1065 q 562 1069 565 1070 l 559 1067 l 556 1067 q 548 1069 549 1064 q 593 1103 569 1087 q 577 1099 586 1101 l 570 1095 l 562 1091 q 536 1084 543 1083 q 572 1103 549 1093 l 581 1107 l 590 1112 q 608 1121 600 1117 q 599 1125 597 1120 l 600 1128 l 602 1131 q 600 1136 602 1134 q 615 1128 607 1132 q 618 1141 612 1142 q 624 1138 621 1141 q 630 1133 627 1135 q 631 1149 630 1146 q 633 1147 632 1151 l 634 1145 l 635 1143 q 637 1138 636 1139 q 641 1133 640 1133 q 645 1147 639 1141 q 656 1128 644 1133 q 665 1149 640 1143 q 686 1154 673 1152 l 691 1154 l 693 1154 l 695 1154 q 701 1155 700 1154 q 641 1171 686 1172 q 624 1171 633 1171 l 616 1170 l 608 1169 q 585 1169 591 1168 q 566 1163 580 1166 l 561 1162 l 555 1160 q 544 1157 549 1159 q 518 1128 517 1148 q 503 1128 510 1127 q 499 1129 501 1128 q 496 1131 497 1130 q 500 1125 498 1128 q 503 1114 501 1120 q 495 1115 499 1116 q 492 1114 494 1115 l 490 1113 q 477 1114 482 1110 q 479 1109 477 1112 l 482 1107 l 486 1104 q 488 1095 492 1097 q 466 1103 479 1107 q 475 1099 472 1103 q 479 1095 477 1098 l 479 1094 l 481 1091 l 462 1095 q 469 1080 469 1088 q 410 1143 452 1068 q 394 1172 404 1154 l 391 1179 l 387 1185 q 379 1199 382 1194 q 357 1233 363 1227 q 359 1224 357 1232 q 360 1206 359 1215 q 365 1185 363 1182 q 364 1190 364 1188 q 364 1192 364 1192 q 366 1190 365 1191 q 367 1185 366 1187 q 366 1178 367 1180 q 357 1181 363 1176 q 366 1166 359 1176 q 377 1153 373 1157 l 372 1158 l 366 1162 q 353 1172 358 1169 q 324 1188 338 1183 q 349 1160 330 1176 l 357 1154 l 364 1147 q 376 1133 372 1139 q 360 1141 369 1135 l 353 1147 l 346 1152 q 313 1166 328 1165 q 309 1133 316 1149 q 304 1144 309 1143 q 302 1136 302 1145 q 294 1155 299 1146 q 294 1146 293 1151 l 294 1142 l 295 1138 q 294 1128 297 1129 q 283 1158 289 1143 q 279 1143 286 1149 q 268 1169 279 1159 q 271 1152 268 1162 l 274 1143 l 277 1135 q 283 1106 286 1114 q 276 1124 280 1114 l 273 1133 l 269 1143 q 253 1177 261 1165 q 256 1164 253 1172 l 259 1159 l 262 1153 q 264 1133 269 1139 q 258 1143 262 1135 l 255 1149 l 252 1156 q 239 1169 244 1171 q 247 1156 241 1164 l 252 1149 l 256 1142 q 264 1114 268 1125 q 246 1149 258 1132 q 224 1169 233 1167 q 228 1164 225 1167 l 231 1162 l 233 1159 q 244 1146 239 1151 q 253 1121 255 1131 l 250 1125 l 248 1129 q 242 1138 244 1135 q 229 1155 234 1148 q 201 1177 212 1175 q 212 1155 211 1168 q 200 1162 203 1154 q 203 1156 200 1162 q 204 1150 204 1152 q 201 1147 204 1147 q 179 1162 193 1158 l 193 1147 q 160 1143 176 1154 q 250 1117 206 1140 q 328 1065 281 1101 q 313 1061 319 1067 q 322 1061 320 1061 q 321 1059 323 1060 l 320 1058 l 319 1057 q 317 1055 317 1057 q 313 1050 313 1053 q 350 1036 334 1048 q 301 1042 336 1032 q 274 1048 283 1047 q 250 1049 260 1050 q 203 1060 225 1057 l 200 1060 l 197 1061 q 190 1062 193 1061 q 171 1064 179 1063 q 128 1065 146 1066 q 77 1025 75 1060 q 106 1027 85 1021 l 114 1029 l 122 1031 q 136 1036 132 1034 q 151 1038 141 1036 l 159 1040 l 167 1042 q 195 1041 186 1046 l 193 1040 l 191 1040 l 186 1038 q 177 1034 180 1036 q 161 1022 165 1029 l 161 1021 q 197 1027 174 1018 l 205 1031 l 215 1034 q 233 1041 227 1039 q 228 1036 231 1039 l 220 1031 q 212 1027 216 1029 q 203 1015 205 1021 q 221 1017 211 1013 q 230 1021 225 1018 l 235 1023 l 239 1026 q 242 1024 241 1025 q 220 1013 229 1021 q 234 1016 224 1013 q 227 1010 229 1013 l 227 1010 l 226 1008 q 245 1010 234 1005 q 256 1015 250 1012 l 262 1018 l 268 1021 q 277 1020 273 1021 q 262 1006 265 1013 q 250 998 254 1003 q 261 1000 254 998 l 267 1001 l 273 1002 q 296 1005 288 1007 q 290 1000 294 1002 q 274 996 281 998 q 258 990 265 993 q 250 976 242 983 q 224 964 229 986 q 182 979 200 966 q 190 968 186 974 q 184 969 187 967 l 182 971 l 179 974 q 172 976 173 979 q 179 964 182 974 q 165 977 174 970 l 161 979 l 156 982 q 149 987 152 984 q 153 981 150 985 l 156 979 l 157 977 l 161 972 q 168 957 172 962 q 151 968 161 960 l 143 974 q 134 980 138 978 q 96 991 113 994 q 108 983 105 991 l 85 991 q 83 982 85 982 q 78 985 82 981 l 76 987 l 75 988 q 71 991 73 990 q 63 987 66 992 q 73 981 73 987 l 73 979 q 73 977 73 977 q 78 972 74 974 q 67 973 74 971 l 61 975 l 55 976 q 33 972 40 979 q 62 968 50 971 q 85 953 77 964 q 67 945 77 948 q 75 957 67 954 q 67 959 71 957 l 62 961 l 59 963 q 44 961 49 968 q 63 945 58 959 q 52 937 56 945 q 56 927 48 930 l 63 939 q 60 927 63 933 q 57 922 58 925 l 53 918 q 48 901 44 906 q 62 918 53 912 l 65 920 l 69 923 q 78 931 74 926 q 78 920 75 925 q 85 927 84 921 q 88 919 87 924 l 88 915 l 87 911 q 96 897 87 901 q 104 903 98 899 l 105 906 l 107 909 l 112 913 q 130 920 123 924 q 119 901 121 917 l 145 916 q 143 910 146 914 q 140 906 142 909 l 138 902 q 134 890 130 892 q 148 906 139 899 q 163 912 159 915 q 151 891 136 895 q 166 892 156 890 q 179 895 174 893 q 160 882 172 889 l 149 875 l 138 869 q 94 839 109 850 q 48 752 44 800 q 75 804 66 776 q 78 793 73 797 q 118 827 80 806 q 144 840 134 836 q 156 838 156 844 q 186 857 169 850 q 175 843 186 847 l 171 841 q 166 840 168 841 q 160 834 161 838 q 179 833 168 828 l 183 836 l 188 838 q 197 841 193 841 q 198 831 201 836 q 187 823 195 828 l 184 821 l 182 819 q 177 816 178 817 q 175 808 172 812 q 186 816 178 810 l 192 821 l 197 825 q 220 834 213 836 q 216 831 218 833 l 214 830 l 212 828 q 203 821 207 824 q 197 808 194 812 q 203 811 200 808 l 205 814 l 208 817 q 216 819 213 824 q 190 781 197 798 q 200 790 195 784 l 202 793 l 204 795 q 208 800 206 799 q 207 789 209 794 q 205 785 206 787 l 202 781 l 201 779 l 201 779 q 197 767 197 773 q 204 769 201 768 q 229 745 210 757 q 218 736 227 742 l 215 734 l 211 732 q 202 726 205 728 q 182 700 180 711 q 186 701 184 700 l 187 703 l 189 705 q 197 707 192 709 q 183 688 196 697 l 178 684 q 174 680 176 682 q 168 670 169 676 q 174 674 170 671 l 176 677 l 179 680 q 190 681 187 686 q 179 669 187 677 l 175 665 l 172 661 q 163 653 166 656 q 149 621 144 631 q 156 625 153 623 q 153 617 156 622 l 151 612 l 149 608 q 153 591 144 597 q 165 633 153 611 q 193 667 178 656 q 178 621 182 648 q 179 572 175 596 q 180 585 180 577 l 180 591 l 181 596 q 190 614 182 610 q 184 589 190 608 q 180 572 184 583 l 178 564 l 176 555 q 171 530 170 536 q 179 530 171 522 l 186 520 q 186 528 187 523 l 185 534 l 184 539 q 190 554 182 553 q 193 547 189 549 q 209 573 193 547 q 220 593 216 585 q 227 607 227 604 q 235 603 229 602 q 245 622 234 606 q 257 640 254 637 q 264 625 254 629 q 265 631 264 627 q 268 637 266 633 q 272 648 272 647 q 279 625 279 637 q 305 644 288 642 q 297 629 300 637 q 295 620 296 625 l 294 612 q 283 611 289 621 l 280 606 l 277 602 q 272 595 274 597 q 277 599 271 592 q 285 606 281 604 q 294 610 290 610 q 276 584 290 591 q 313 581 294 583 q 287 547 298 565 q 294 552 290 547 l 297 556 l 301 560 q 317 565 310 570 q 319 564 319 566 q 318 562 319 563 l 317 559 q 316 553 315 555 q 320 551 317 551 q 325 557 323 553 l 326 559 l 326 563 q 336 572 328 570 q 337 569 335 571 l 339 567 l 341 565 q 339 558 346 560 q 332 569 336 566 q 332 562 330 566 l 334 559 l 336 557 q 336 547 341 549 q 314 536 331 561 q 302 515 308 528 q 296 507 299 511 q 295 504 296 505 q 294 502 294 503 q 300 507 296 503 l 304 510 l 307 513 q 320 510 315 519 q 313 487 308 500 q 320 502 314 499 q 317 484 320 492 q 323 483 323 490 l 323 479 q 324 476 324 477 q 328 472 326 473 q 336 491 323 486 q 343 469 336 479 q 342 477 344 471 l 341 481 l 341 484 l 340 486 q 343 491 338 495 l 344 488 l 344 484 q 346 478 345 480 q 339 435 341 453 q 312 421 336 448 q 295 401 304 413 q 289 393 292 397 l 288 391 l 286 390 q 286 388 286 389 q 262 345 267 363 l 261 338 l 260 330 q 257 315 259 320 q 253 309 256 312 l 250 305 l 248 302 q 241 291 241 294 q 231 261 238 279 q 220 231 227 248 q 195 180 205 199 q 180 161 190 174 l 176 157 l 172 153 q 165 142 168 148 q 156 116 159 134 q 155 101 156 111 l 155 94 l 154 87 l 153 80 l 153 74 q 151 62 151 66 q 156 37 151 46 l 157 37 l 159 36 l 159 35 q 161 33 160 33 q 161 33 161 33 q 206 22 169 20 q 235 25 221 22 q 255 31 249 28 q 281 59 275 39 q 279 97 286 77 q 277 104 277 101 q 270 148 270 119 l 270 161 l 269 176 q 269 205 269 195 q 279 260 269 240 q 341 362 311 330 q 401 457 378 401 q 414 489 406 466 q 420 508 417 501 q 427 526 424 518 q 473 581 446 571 q 469 566 471 572 q 466 561 468 564 l 464 557 q 458 528 459 547 q 496 520 477 523 q 484 479 486 502 q 500 510 490 492 l 509 525 l 518 539 q 570 506 544 523 q 562 517 568 511 l 559 522 l 555 526 q 544 543 545 536 q 566 528 551 536 l 555 543 q 570 554 565 545 l 570 554 l 568 555 q 565 556 567 555 q 559 559 562 558 q 559 569 551 565 q 578 562 566 559 q 565 572 572 566 l 559 577 l 553 583 q 529 603 538 596 q 547 602 536 606 l 552 600 q 556 599 554 599 q 566 599 562 597 q 541 621 549 606 q 547 621 543 622 q 549 619 548 620 l 552 617 q 559 618 557 613 l 547 626 l 535 635 q 511 651 520 645 q 524 648 517 651 q 530 645 526 647 l 536 642 q 555 636 549 633 l 551 639 l 546 642 q 536 647 540 645 q 522 663 526 654 q 529 661 526 663 q 532 659 531 660 l 534 656 q 548 651 541 651 q 532 665 545 659 l 527 667 l 522 670 q 514 677 517 673 q 523 675 519 677 l 526 674 l 529 671 q 544 667 538 667 q 524 682 540 674 l 518 684 q 513 688 515 686 q 503 696 507 692 q 534 684 517 693 l 541 680 l 548 677 q 563 670 556 672 l 541 688 q 572 688 553 684 l 580 690 l 588 691 q 604 692 597 692 q 596 655 599 674 q 615 663 609 652 q 615 657 616 661 l 614 654 l 612 652 q 615 644 610 646 q 620 656 617 648 l 623 663 l 625 669 q 637 692 630 686 q 635 680 637 688 l 634 673 l 633 666 q 633 640 629 648 q 639 648 635 653 q 642 643 640 647 l 644 639 q 645 636 644 637 l 652 659 q 651 648 654 654 q 649 642 651 645 l 646 636 q 648 618 640 622 q 655 627 648 632 l 659 625 q 661 622 661 623 q 667 621 665 619 q 661 619 667 620 l 656 619 q 652 618 654 618 q 656 603 642 615 q 661 599 659 602 l 662 597 l 663 596 q 667 593 667 593 q 678 595 670 591 q 690 572 673 578 q 688 578 690 574 l 688 581 l 687 584 q 690 584 685 590 q 697 569 692 576 q 709 584 699 579 q 707 578 709 581 l 705 575 l 703 572 q 705 562 698 566 l 705 563 q 706 566 706 564 q 709 573 708 570 q 716 581 715 583 q 715 578 715 581 q 714 574 715 576 q 713 565 713 568 q 720 569 713 553 q 720 564 720 568 l 719 560 l 718 557 q 720 547 715 549 q 724 553 722 549 q 726 557 725 555 l 727 562 q 734 576 729 574 q 733 565 735 572 q 731 559 732 562 l 728 554 q 727 536 722 541 l 730 545 l 734 555 q 742 572 737 566 q 743 564 743 569 l 742 559 l 741 554 q 742 543 739 544 q 745 549 745 545 q 745 553 745 551 l 745 558 q 753 569 746 569 q 752 561 753 566 l 751 556 l 749 551 q 753 536 747 540 q 753 549 753 542 l 755 557 l 755 564 q 757 591 758 581 q 787 572 774 586 q 781 583 785 578 q 777 585 779 584 l 773 588 q 760 603 762 595 q 787 595 772 596 q 779 602 784 599 l 774 604 l 769 606 q 753 618 757 611 q 762 616 758 618 q 766 613 764 614 l 771 610 q 783 606 781 604 q 760 629 773 619 q 772 629 766 625 q 757 640 771 643 q 755 644 756 642 l 755 648 q 753 655 753 653 q 760 663 752 661 q 727 684 739 666 q 728 688 727 688 q 730 687 729 688 l 732 686 q 736 684 734 684 q 738 688 738 684 q 722 703 713 687 q 734 703 728 695 q 667 741 693 725 q 681 737 673 741 l 688 734 l 694 732 q 720 729 711 724 q 709 734 716 732 l 703 736 l 696 739 q 682 748 681 745 q 688 747 684 749 l 690 747 l 693 745 q 701 748 699 742 q 693 747 697 746 q 688 751 690 749 q 687 753 688 752 l 687 755 q 688 755 687 755 q 690 752 688 753 q 696 752 693 753 q 699 751 697 752 l 701 750 q 709 752 707 746 q 682 760 698 755 l 669 765 l 656 769 q 608 789 625 779 q 620 787 612 789 l 627 784 l 635 781 q 660 785 652 776 q 650 791 659 785 q 631 804 641 797 q 608 834 604 826 q 616 823 609 829 q 626 823 625 818 q 614 829 621 825 q 604 838 608 833 l 607 842 q 629 831 614 837 l 635 828 l 641 825 q 652 819 648 823 q 650 823 652 820 l 648 825 l 646 827 q 645 834 640 832 q 650 829 646 831 l 651 829 l 653 828 q 656 827 655 828 q 653 832 656 829 l 650 835 l 647 837 q 645 845 640 843 q 654 837 648 843 l 659 831 l 664 827 q 682 815 677 814 q 666 834 677 823 l 661 838 l 656 844 q 648 852 652 848 q 679 831 661 850 l 682 828 l 685 825 q 690 819 688 821 q 701 812 696 812 q 696 819 699 814 l 694 822 l 692 825 q 686 841 687 833 q 724 815 706 831 q 726 827 723 825 q 734 824 729 828 l 737 823 l 739 821 q 743 817 742 819 q 749 819 748 815 q 749 831 744 825 q 758 820 753 827 l 762 816 l 766 811 q 779 789 775 800 q 782 800 779 800 q 789 794 784 800 l 791 791 l 792 789 q 796 785 794 786 q 802 785 800 781 q 747 846 778 823 q 673 870 711 873 q 665 875 670 872 l 656 880 q 641 890 646 886 q 656 888 648 890 q 664 883 659 886 l 671 880 q 701 872 690 868 q 684 888 698 880 l 679 890 l 673 893 q 663 899 666 897 m 783 520 q 779 510 778 519 l 779 505 l 779 502 q 779 494 780 497 q 783 505 784 496 l 783 509 l 783 513 q 783 520 782 518 z "},"]":{"ha":1413,"x_min":-24,"x_max":1402,"o":"m 1086 671 q 1084 665 1080 669 q 1089 661 1086 663 q 1095 659 1092 660 q 1090 666 1093 662 l 1088 669 q 1086 671 1087 670 m 1124 642 q 1121 641 1123 642 l 1120 640 l 1118 640 q 1116 635 1115 639 q 1118 636 1117 635 l 1120 637 l 1122 637 q 1124 642 1125 638 m 985 623 q 988 620 987 621 q 996 616 991 616 l 994 620 q 991 623 992 622 q 983 626 988 626 l 985 623 m 966 597 q 960 600 963 600 q 957 597 958 599 q 958 595 956 595 q 966 597 961 595 m 1173 565 q 1168 568 1173 568 l 1166 568 l 1164 567 q 1160 567 1162 567 q 1165 564 1160 564 l 1167 565 l 1170 565 q 1173 565 1172 566 m 1158 557 q 1152 559 1158 560 l 1149 559 l 1147 559 q 1143 559 1144 558 q 1149 556 1143 555 l 1152 556 l 1154 557 q 1158 557 1157 557 m 1130 553 q 1138 549 1133 550 q 1145 551 1143 548 q 1139 553 1145 554 l 1137 553 l 1135 553 q 1130 553 1131 553 m 1052 537 q 1050 539 1051 538 q 1043 541 1047 542 l 1045 538 q 1047 536 1046 537 q 1054 534 1050 534 l 1052 537 m 1047 533 l 1046 535 q 1043 538 1044 537 q 1033 541 1039 542 l 1034 539 l 1036 537 q 1039 534 1038 535 q 1048 531 1042 530 l 1047 533 m 1118 534 q 1120 536 1119 535 l 1120 537 l 1121 538 q 1126 540 1122 540 q 1122 542 1125 542 l 1118 542 q 1115 542 1116 542 l 1116 537 q 1118 534 1118 537 m 1113 536 q 1110 539 1111 536 q 1107 538 1108 539 q 1107 534 1107 536 q 1109 531 1108 532 q 1113 532 1111 530 l 1113 536 m 1120 532 q 1114 526 1119 526 l 1114 523 q 1114 520 1114 521 q 1116 516 1114 517 q 1112 515 1116 512 q 1110 519 1111 517 q 1108 521 1109 520 q 1107 517 1104 520 l 1107 515 l 1109 514 q 1109 511 1109 513 q 1126 513 1118 510 l 1130 514 l 1134 515 q 1142 517 1138 517 q 1133 527 1141 524 l 1131 528 l 1127 530 q 1120 532 1123 531 m 1034 513 q 1032 517 1035 516 q 1029 517 1031 517 l 1026 517 q 1034 513 1028 512 m 1068 498 q 1071 491 1071 495 l 1076 492 q 1079 494 1076 494 q 1068 498 1078 500 m 1182 414 l 1182 419 l 1177 419 l 1177 414 l 1182 414 m 1044 395 q 1046 393 1045 393 q 1046 395 1046 393 q 1047 397 1047 395 q 1047 400 1047 399 q 1046 402 1046 402 q 1045 401 1045 402 q 1044 398 1044 399 q 1044 395 1044 396 m 942 385 q 940 382 939 390 l 940 378 l 940 375 q 941 370 941 371 q 943 373 943 365 l 943 376 l 943 380 q 942 385 942 385 m 937 375 q 935 372 935 380 l 935 368 l 935 365 q 936 359 936 360 q 938 363 939 355 l 938 366 l 938 370 q 937 375 937 374 m 1040 379 q 1036 363 1036 375 q 1040 379 1042 367 m 994 375 q 998 373 996 372 q 1000 375 1000 373 q 999 378 1000 377 q 994 375 998 378 m 930 364 q 928 359 928 369 l 928 356 l 928 352 q 928 346 928 347 q 931 351 931 342 l 930 355 l 930 358 q 930 364 930 363 m 1101 344 q 1107 353 1104 346 l 1108 355 l 1109 357 q 1113 362 1111 360 q 1104 358 1109 366 q 1101 344 1099 351 m 1034 351 q 1029 342 1029 349 q 1029 336 1029 340 l 1029 334 l 1029 330 q 1032 340 1031 333 l 1033 342 l 1033 345 q 1034 351 1033 349 m 1057 280 q 1054 294 1057 287 l 1053 296 l 1051 299 q 1048 305 1049 302 q 1048 291 1045 300 q 1057 280 1052 281 m 1020 191 l 1025 191 l 1025 196 l 1020 196 l 1020 191 m 1182 414 l 1177 414 l 1177 419 l 1182 419 l 1182 414 m 1162 539 q 1164 538 1163 538 l 1168 537 q 1175 535 1172 536 q 1177 527 1182 531 q 1169 533 1175 529 l 1165 536 q 1162 539 1163 537 m 1146 536 q 1167 526 1159 533 q 1155 529 1160 526 q 1151 532 1153 530 l 1148 534 l 1146 536 m 1130 553 q 1135 553 1131 553 l 1137 553 l 1139 553 q 1145 551 1145 554 q 1138 549 1143 548 q 1130 553 1133 550 m 1109 511 q 1109 514 1109 513 l 1107 515 l 1107 517 q 1108 521 1104 520 q 1110 519 1109 520 q 1112 515 1111 517 q 1116 516 1116 512 q 1114 520 1114 517 q 1114 523 1114 521 l 1114 526 q 1120 532 1119 526 q 1127 530 1123 531 l 1131 528 l 1133 527 q 1142 517 1141 524 q 1134 515 1138 517 l 1130 514 l 1126 513 q 1109 511 1118 510 m 1138 319 q 1135 329 1137 323 l 1132 338 q 1126 357 1128 351 q 1137 340 1133 353 q 1138 319 1141 328 m 1120 362 q 1123 368 1124 364 q 1121 375 1123 371 l 1120 378 q 1118 382 1119 380 q 1120 385 1118 385 q 1122 379 1120 383 l 1124 376 l 1125 372 q 1126 360 1129 364 q 1123 361 1125 363 l 1122 361 l 1122 361 q 1120 362 1121 361 m 1111 403 q 1109 410 1110 406 l 1106 416 q 1102 429 1103 425 q 1105 423 1101 433 q 1107 420 1105 422 l 1108 418 l 1109 416 q 1114 403 1113 410 q 1114 400 1114 401 q 1112 399 1113 399 q 1112 399 1112 399 q 1111 403 1111 401 m 1101 344 q 1104 358 1099 351 q 1113 362 1109 366 q 1109 357 1111 360 l 1108 355 l 1107 353 q 1101 344 1104 346 m 1095 315 q 1098 320 1096 316 l 1099 323 l 1101 327 q 1109 331 1105 335 q 1105 326 1107 330 l 1104 323 l 1102 319 q 1095 315 1099 311 m 1086 671 q 1088 669 1087 670 l 1090 666 q 1095 659 1093 662 q 1089 661 1092 660 q 1084 665 1086 663 q 1086 671 1080 669 m 1071 491 q 1068 498 1071 495 q 1079 494 1078 500 q 1076 492 1076 494 l 1071 491 m 1064 306 q 1061 321 1064 313 q 1055 335 1059 327 q 1048 359 1048 352 q 1055 352 1052 355 l 1056 351 l 1058 349 q 1062 345 1060 347 q 1061 355 1061 350 q 1061 359 1061 357 l 1061 362 q 1061 380 1062 372 l 1062 375 l 1063 370 q 1069 363 1065 365 q 1069 367 1070 365 l 1068 369 l 1067 370 q 1069 376 1065 374 q 1072 370 1072 370 q 1076 373 1074 369 l 1076 370 l 1076 367 q 1077 359 1076 362 q 1076 339 1077 348 q 1064 306 1074 315 m 1057 290 q 1056 313 1063 304 q 1055 308 1055 311 l 1057 306 l 1057 304 q 1057 298 1060 299 q 1055 309 1055 302 l 1054 314 l 1053 319 q 1044 336 1051 330 q 1061 315 1055 332 q 1057 290 1067 296 m 1048 305 q 1051 299 1049 302 l 1053 296 l 1054 294 q 1057 280 1057 287 q 1048 291 1052 281 q 1048 305 1045 300 m 1040 256 q 1038 263 1038 258 l 1038 267 l 1038 269 l 1038 271 q 1038 275 1038 275 q 1034 274 1037 277 q 1036 286 1037 279 l 1035 288 l 1035 291 q 1036 297 1035 294 q 1034 296 1035 297 l 1034 296 l 1033 296 q 1031 297 1031 295 q 1034 300 1034 297 q 1036 302 1034 302 q 1044 287 1038 292 l 1043 290 l 1042 293 q 1039 299 1040 296 q 1033 312 1036 307 q 1017 319 1024 326 q 1022 330 1017 328 q 1027 328 1023 327 q 1031 319 1029 324 l 1034 315 l 1036 310 q 1046 291 1043 298 q 1040 256 1055 269 m 930 364 q 930 358 930 363 l 930 355 l 931 351 q 928 346 931 342 q 928 352 928 347 l 928 356 l 928 359 q 930 364 928 369 m 935 390 q 932 393 932 391 q 934 397 932 395 q 937 399 935 399 q 939 398 939 400 q 937 394 937 398 l 937 393 l 936 391 q 935 390 935 391 m 937 375 q 938 370 937 374 l 938 366 l 938 363 q 936 359 939 355 q 935 365 936 360 l 935 368 l 935 372 q 937 375 935 380 m 942 385 q 943 380 942 385 l 943 376 l 943 373 q 941 370 943 365 q 940 375 941 371 l 940 378 l 940 382 q 942 385 939 390 m 947 375 q 944 391 946 380 l 943 398 q 941 406 942 403 q 942 408 942 406 l 943 409 q 946 413 945 412 q 951 414 950 418 q 946 396 942 410 l 947 390 q 949 385 948 387 q 947 375 949 378 m 1038 251 q 1031 236 1034 245 q 1029 222 1029 229 l 1029 224 l 1028 225 q 1026 227 1027 227 q 1004 204 1020 227 q 998 195 1002 200 l 996 191 l 993 186 q 985 175 987 177 q 968 157 975 162 q 943 146 962 154 l 937 130 q 755 206 831 177 q 715 224 724 218 q 686 252 703 231 q 672 271 683 255 q 667 277 669 275 l 663 283 q 652 298 656 292 q 614 334 625 334 q 611 331 612 334 l 610 328 q 610 326 610 326 q 606 349 609 337 q 593 372 601 363 q 595 385 592 378 l 597 387 q 597 389 597 388 q 597 397 599 393 q 600 385 604 394 l 598 381 q 597 377 597 378 q 597 368 595 372 q 603 376 602 370 l 604 380 l 604 382 q 606 389 606 387 q 610 390 610 391 q 608 383 610 389 l 608 380 l 607 378 l 606 373 q 606 363 605 367 q 611 375 610 366 l 612 378 l 612 382 q 614 389 613 387 q 622 382 621 388 q 623 368 623 378 q 627 372 626 368 q 627 376 627 374 l 627 380 q 629 385 628 384 q 635 380 631 385 q 635 386 636 384 q 634 388 635 387 l 633 390 q 631 401 629 395 q 640 385 639 397 q 640 397 646 387 q 635 404 639 400 q 633 408 634 406 q 631 410 632 408 q 646 414 637 420 q 649 411 647 413 l 652 407 q 661 401 657 403 q 618 460 642 439 q 615 457 616 460 l 615 454 q 614 452 614 452 q 613 463 608 455 l 615 466 q 618 469 616 468 q 618 477 620 473 q 610 465 614 473 q 608 472 603 467 l 610 474 l 612 477 q 614 481 614 479 q 625 470 623 477 l 625 467 q 626 463 625 465 q 631 456 627 459 q 636 459 636 456 q 634 465 637 461 l 633 467 l 633 469 q 632 471 632 470 q 635 473 631 473 q 652 467 643 478 l 656 463 q 660 458 659 460 q 669 452 665 453 q 661 461 665 455 l 659 466 l 655 471 q 640 490 648 486 q 650 490 645 489 l 654 491 l 659 492 q 682 494 670 496 q 666 507 671 498 q 662 523 663 512 q 671 519 666 523 q 680 511 675 515 l 682 509 l 684 507 q 686 505 685 505 q 686 507 688 503 q 680 513 684 508 l 677 519 l 673 524 q 662 526 666 534 l 661 530 l 661 534 q 659 543 660 539 q 648 561 656 553 q 663 556 652 565 q 677 540 673 548 q 680 545 680 542 q 680 549 680 547 l 680 552 q 686 565 679 562 q 689 569 688 570 q 689 564 690 568 q 687 558 689 561 q 682 557 685 555 q 684 551 681 553 q 686 550 684 551 l 689 549 q 694 540 696 547 q 703 557 705 541 q 711 532 710 550 q 728 515 732 536 q 736 523 735 513 q 742 521 739 524 q 745 514 744 518 q 745 507 746 510 q 741 502 744 503 q 745 496 742 499 l 748 494 q 751 491 749 492 q 753 473 756 484 q 759 468 754 470 l 763 467 l 767 466 q 774 452 777 463 q 777 454 777 452 l 778 457 q 779 460 778 459 q 785 456 783 459 q 784 447 785 453 l 783 444 l 783 441 q 782 435 782 438 q 783 422 781 428 q 786 427 784 424 l 787 429 l 787 430 q 789 433 788 432 q 791 422 791 435 q 804 427 798 427 q 798 452 802 439 q 793 464 796 457 l 789 475 q 779 528 777 504 q 788 508 786 524 l 789 501 l 789 494 q 791 481 789 486 q 789 538 795 505 q 792 543 791 540 l 795 548 q 801 556 799 554 q 805 552 803 555 q 800 544 800 550 q 806 532 801 540 l 808 528 l 811 525 q 815 517 814 520 q 820 502 820 509 q 825 518 830 508 q 823 522 825 519 l 820 527 q 817 537 817 533 l 817 539 q 819 538 818 539 l 821 536 q 825 536 824 535 q 823 547 827 540 l 825 548 q 828 549 827 549 q 835 555 831 551 q 835 553 835 554 l 834 551 l 833 550 q 835 547 833 548 q 836 549 836 548 q 838 549 837 549 q 838 549 838 549 q 839 550 838 549 q 839 551 839 551 q 840 553 840 552 q 842 547 841 551 l 842 545 l 842 542 q 848 533 842 534 q 854 538 850 534 l 857 541 l 859 545 q 871 549 866 552 q 863 536 865 547 q 881 547 873 541 q 880 541 882 545 l 878 538 l 876 536 q 874 529 871 530 q 884 541 878 534 q 894 545 890 547 q 884 529 886 540 q 892 526 888 526 q 898 530 895 527 l 901 533 q 903 536 902 535 q 907 535 905 537 q 900 526 904 532 l 897 522 l 892 517 q 842 489 861 508 q 825 463 831 477 q 819 431 817 446 q 836 468 832 450 l 836 466 l 836 463 q 839 460 837 460 q 842 469 840 465 l 844 473 l 846 476 q 856 477 850 469 l 859 481 l 861 484 q 865 490 864 489 q 873 488 869 486 q 878 492 875 490 l 879 493 l 881 495 q 888 500 886 499 q 891 494 890 500 q 911 507 896 500 q 904 498 911 501 l 901 496 l 898 495 q 894 491 895 494 q 907 492 899 487 l 909 493 l 913 495 q 919 497 916 497 q 913 484 924 492 l 909 481 q 906 479 907 480 q 905 473 903 476 q 912 479 907 475 l 916 483 l 920 486 q 935 493 930 494 q 932 491 934 492 l 930 489 q 924 484 926 486 q 920 474 918 477 q 924 477 922 474 l 926 479 l 927 481 q 932 483 931 486 q 916 456 921 467 q 923 463 920 458 l 924 464 l 925 466 q 928 469 927 468 q 926 457 929 464 l 924 455 l 923 452 q 922 446 922 450 q 930 456 928 447 l 932 460 l 932 464 q 936 470 934 468 q 936 467 936 469 l 937 464 q 939 460 937 460 q 939 466 939 462 l 939 469 l 938 473 q 943 480 938 480 q 943 472 944 476 l 943 469 l 942 465 q 945 452 941 458 q 946 460 945 455 l 946 464 l 946 468 q 948 484 945 479 q 955 445 954 466 q 951 442 953 444 l 949 441 l 947 440 q 943 437 944 437 q 947 434 947 435 q 945 433 947 433 q 943 433 943 433 q 941 431 941 432 q 943 427 940 430 q 936 428 936 428 q 932 423 935 427 q 930 420 931 420 l 929 420 q 928 420 928 420 q 923 418 926 420 q 924 416 922 418 l 924 414 l 925 414 q 926 413 926 413 q 923 412 925 413 q 918 410 921 411 q 913 399 912 404 q 916 401 915 399 l 917 401 l 918 403 q 923 405 920 406 q 914 391 923 398 l 911 389 q 908 386 909 387 q 904 378 905 382 q 908 381 905 379 l 910 383 l 912 385 q 919 387 917 390 q 911 376 917 384 l 907 371 l 901 365 q 892 345 890 350 q 895 346 893 344 l 896 347 l 897 347 q 898 347 897 347 q 896 340 898 345 l 895 337 l 893 334 q 896 324 890 328 q 899 334 896 328 l 901 339 l 903 341 l 904 344 q 903 355 910 354 q 908 361 906 358 q 910 363 909 362 l 911 366 q 922 377 915 372 q 914 345 916 366 q 915 312 911 326 q 916 320 915 315 l 916 324 l 916 328 q 921 340 916 338 q 916 309 922 326 l 913 302 q 911 294 912 298 q 908 279 909 286 q 916 276 912 279 q 917 283 916 284 q 918 281 918 282 l 919 279 q 921 277 920 277 q 922 284 922 280 l 920 288 l 920 292 q 923 300 918 298 l 923 298 l 924 296 q 926 295 924 295 q 929 304 924 301 l 932 304 l 935 305 q 938 308 937 307 q 939 319 936 315 l 941 321 l 942 323 q 945 326 944 325 q 942 329 943 327 q 942 334 941 331 q 943 338 942 336 q 947 339 945 340 q 952 334 947 333 q 962 345 949 347 q 966 361 962 357 q 972 351 966 351 q 975 357 970 355 l 977 357 q 978 358 978 357 q 979 361 979 359 q 976 362 977 360 q 975 366 975 363 q 975 368 974 368 q 977 366 975 369 q 981 359 981 364 l 981 357 l 981 355 q 982 351 981 353 q 991 361 985 356 q 1000 365 997 367 q 994 353 995 359 q 993 348 993 351 l 992 342 q 985 341 989 348 l 983 338 l 981 335 q 978 330 979 332 q 981 333 977 328 q 986 338 984 336 q 992 341 989 341 q 981 323 991 328 q 995 323 988 324 l 998 322 l 1000 321 q 1006 321 1004 321 q 998 310 1002 319 l 996 307 l 994 303 q 989 298 992 300 q 995 302 992 298 l 998 304 l 1000 307 q 1010 311 1005 315 q 1010 307 1013 312 q 1009 303 1009 304 q 1013 301 1010 301 q 1016 306 1015 303 l 1016 308 l 1016 310 q 1022 317 1017 315 q 1024 314 1022 316 l 1025 313 l 1027 312 q 1025 307 1029 309 q 1020 314 1023 312 q 1021 310 1019 312 l 1022 307 l 1023 306 q 1023 299 1027 301 l 1023 300 l 1022 302 q 1020 304 1022 304 q 996 267 1006 290 q 1001 271 998 268 l 1003 273 l 1005 275 q 1014 273 1010 279 q 1013 271 1013 272 l 1011 270 q 1008 265 1010 267 q 1010 257 1006 259 q 1014 268 1010 265 q 1014 261 1015 264 l 1013 260 l 1013 258 q 1012 255 1012 257 q 1017 255 1017 260 l 1017 252 l 1017 250 q 1020 248 1019 248 q 1025 260 1019 260 q 1026 256 1025 259 l 1027 254 l 1027 252 q 1031 245 1028 247 q 1030 251 1031 248 l 1029 254 l 1028 257 q 1030 260 1026 263 l 1031 257 l 1032 254 q 1036 248 1033 250 q 1036 254 1036 251 l 1035 256 l 1034 258 q 1035 266 1031 264 q 1035 262 1034 263 l 1036 260 l 1036 258 q 1038 251 1039 255 m 1020 196 l 1025 196 l 1025 191 l 1020 191 l 1020 196 m 1010 178 q 1006 178 1008 179 l 1005 177 l 1004 176 q 1000 177 1000 174 q 1002 182 1003 178 q 1001 184 1001 182 q 1002 185 1000 184 q 1004 184 1004 182 l 1004 185 l 1003 186 q 1002 190 1002 189 q 1010 178 1010 192 m 644 254 q 645 270 643 265 q 656 275 648 277 q 656 269 656 273 l 654 267 l 654 266 l 654 264 q 656 267 653 262 q 659 264 660 267 q 656 262 659 262 q 661 254 655 256 q 659 250 660 250 q 655 252 658 250 l 654 253 l 653 254 q 650 255 652 255 q 644 254 647 256 m 627 275 l 618 275 l 618 283 l 627 283 l 627 275 m 589 380 q 577 437 564 399 q 591 469 581 448 l 595 476 l 600 484 q 606 498 604 492 q 614 502 613 497 q 623 486 622 498 q 597 472 610 495 q 588 451 593 464 q 584 440 587 446 l 583 435 q 581 431 581 433 q 593 456 591 439 q 597 452 597 456 q 602 448 597 448 q 599 446 601 444 l 597 446 l 596 447 q 593 448 595 448 q 596 437 595 443 q 595 433 596 435 l 595 429 q 597 410 593 418 q 592 412 593 414 q 591 404 591 410 l 591 401 l 592 398 q 592 392 592 395 q 589 380 592 385 m 559 418 q 564 441 559 429 l 566 446 l 568 450 q 572 460 571 456 q 574 437 578 452 q 559 418 569 420 m 576 511 q 564 481 566 499 q 562 473 563 478 l 562 465 q 559 448 561 454 q 555 451 556 449 q 557 457 555 453 l 558 458 l 559 460 q 561 464 560 463 q 559 473 562 469 q 553 454 552 464 q 559 435 554 446 q 549 450 551 439 q 552 474 548 460 q 562 497 555 487 q 576 511 570 507 m 522 569 q 529 564 527 562 q 534 574 530 564 q 539 570 538 572 q 537 566 539 569 l 535 563 q 534 559 534 561 q 534 553 532 556 q 543 566 540 556 q 545 574 544 568 l 546 578 l 547 582 q 547 553 546 568 l 547 547 q 548 540 547 543 q 547 523 548 532 q 554 531 551 528 q 557 534 555 532 l 559 536 q 568 548 564 541 q 559 509 570 536 q 550 486 553 494 q 547 460 547 472 q 525 514 530 474 q 522 545 523 528 q 522 559 522 551 l 522 562 l 522 564 q 522 569 522 568 m 509 767 q 526 775 511 777 q 522 763 522 768 l 513 763 q 509 767 514 766 m 572 607 q 571 604 572 604 q 569 606 570 604 q 568 610 568 608 q 568 616 568 614 q 570 618 569 618 q 571 616 570 618 q 572 612 572 614 q 572 607 572 609 m 589 557 q 581 582 579 562 q 589 557 589 575 m 602 502 q 596 517 597 507 l 595 522 l 595 527 q 593 536 594 532 q 602 523 600 533 q 602 513 602 519 l 602 507 l 602 502 m 597 565 q 610 523 610 546 q 597 565 601 541 m 656 578 q 650 574 653 573 q 646 578 647 575 q 648 582 646 581 q 656 578 650 583 m 606 800 q 612 793 607 797 l 616 790 l 620 787 q 623 771 629 779 q 632 774 626 765 q 636 781 634 777 q 638 785 637 783 l 639 787 l 640 788 q 642 776 648 783 l 639 773 q 637 770 637 771 q 635 763 634 766 q 646 767 642 763 q 649 771 647 768 l 652 776 q 669 788 659 788 q 662 768 665 781 l 659 757 l 656 746 q 673 779 668 759 q 677 762 680 774 l 675 756 l 674 751 q 673 742 673 745 q 684 760 681 745 l 685 766 l 686 772 q 690 783 688 779 q 692 758 696 777 l 691 753 l 690 750 q 689 742 689 745 q 690 725 688 732 q 678 726 684 716 q 676 730 677 728 q 675 733 675 731 q 673 737 673 737 q 670 734 671 739 l 669 732 l 669 730 q 669 729 669 729 q 662 734 664 729 l 661 736 l 660 738 q 656 742 659 741 q 651 741 656 742 q 648 741 649 741 q 644 742 646 741 q 538 788 600 764 q 572 799 553 802 l 576 798 l 579 798 q 587 797 584 797 q 606 800 597 796 m 563 844 l 562 842 q 558 838 559 840 q 547 834 554 833 l 549 836 l 550 839 q 553 843 551 842 q 564 846 557 847 l 563 844 m 578 844 l 576 840 q 572 835 574 837 q 555 830 566 829 l 557 833 l 559 836 q 564 842 562 840 q 581 846 570 848 l 578 844 m 593 809 q 581 800 590 800 q 584 808 579 806 q 588 808 585 808 l 591 809 l 593 809 m 652 926 q 644 922 649 922 q 639 924 641 922 q 640 927 637 926 q 652 926 643 928 m 654 987 l 652 984 q 648 979 650 981 q 635 972 643 973 l 637 975 l 639 979 q 643 984 642 982 q 656 989 648 989 l 654 987 m 686 943 q 695 947 690 947 q 701 945 699 947 q 699 941 702 941 q 686 943 694 940 m 711 704 q 707 705 709 703 l 705 707 l 703 709 q 699 708 700 715 q 699 739 690 720 l 702 746 l 706 753 q 711 767 710 762 q 713 739 718 758 l 712 734 l 711 730 q 710 722 711 726 q 711 704 709 712 m 794 565 l 793 564 l 792 564 l 790 564 l 789 564 l 789 563 l 787 563 l 787 563 l 786 562 l 785 562 l 784 562 l 784 562 q 774 586 780 577 q 788 574 783 580 q 792 570 790 572 l 793 567 l 795 565 l 795 565 l 794 565 m 789 555 q 793 557 791 557 q 798 556 796 559 q 793 553 796 556 l 790 551 l 787 549 l 787 552 l 789 555 m 762 565 q 766 558 766 572 q 766 551 766 555 l 766 545 q 766 536 766 538 q 761 543 762 528 q 762 549 761 545 l 762 555 q 762 565 762 563 m 724 645 q 732 644 726 651 q 737 637 734 642 q 739 635 738 636 q 741 632 740 633 q 738 620 739 627 l 737 613 l 736 607 q 732 582 734 590 q 730 597 728 587 q 732 606 730 601 l 732 611 l 734 616 q 734 633 736 627 q 724 645 732 642 m 745 574 q 741 578 741 566 q 740 585 740 581 l 741 590 q 741 599 741 597 q 745 593 745 607 q 745 588 745 591 l 745 582 q 745 574 745 575 m 753 607 q 750 610 751 608 q 749 612 750 610 l 749 614 q 745 620 748 620 q 748 623 745 623 q 753 618 751 622 q 756 612 756 615 q 753 607 757 609 m 753 557 q 749 562 749 549 q 749 568 749 564 l 749 573 q 749 582 749 581 q 753 576 753 590 q 753 571 753 574 l 753 566 q 753 557 753 558 m 819 554 q 824 560 820 558 q 821 551 824 556 l 819 554 m 903 528 q 918 531 915 528 q 908 523 915 525 q 903 522 905 522 q 898 522 900 522 q 903 528 904 523 m 724 758 q 728 734 728 752 l 729 727 q 729 720 729 723 q 732 708 730 712 q 735 730 738 718 l 734 735 q 732 741 733 738 q 732 754 731 747 q 741 742 740 753 q 741 736 741 740 l 741 731 q 741 721 740 724 q 745 727 744 722 l 745 730 l 745 732 q 745 737 745 736 q 750 727 748 734 l 752 722 l 754 715 q 770 700 759 701 q 767 710 770 705 q 765 714 766 711 l 763 718 q 758 737 756 728 q 762 732 760 735 l 764 729 l 766 726 q 779 716 772 718 q 749 758 770 734 q 758 756 751 764 l 761 753 q 764 749 762 751 q 770 746 767 746 q 762 760 773 750 q 753 768 759 764 l 751 770 l 748 772 q 745 775 746 774 q 769 765 753 777 l 776 760 l 783 755 q 795 746 791 748 q 793 754 798 749 q 787 759 791 756 l 784 761 l 781 763 q 769 772 772 768 q 770 783 765 778 q 781 781 775 783 l 786 778 l 791 774 q 812 775 803 768 q 804 782 810 779 q 800 783 803 783 l 795 785 q 783 800 782 790 q 816 779 807 790 q 821 789 817 790 q 832 783 824 789 l 836 780 l 839 777 q 846 772 843 774 q 858 775 853 769 q 866 766 861 774 l 871 761 q 875 755 873 757 q 892 754 885 742 l 895 749 l 899 743 q 904 729 903 736 q 908 734 907 730 q 908 738 908 735 l 908 740 l 909 742 q 913 728 910 735 l 911 728 q 914 724 912 726 q 920 713 916 720 q 916 713 918 712 l 914 715 l 913 716 q 909 715 911 719 q 912 715 911 715 q 915 712 913 713 q 915 709 916 711 q 913 708 915 708 q 905 713 911 711 l 903 714 l 901 715 q 897 718 899 716 q 899 714 897 715 q 900 713 899 713 l 902 712 q 907 707 907 711 q 884 704 895 713 q 928 697 909 703 q 938 683 932 690 q 938 694 939 688 q 971 677 954 688 q 986 667 977 673 l 994 661 l 1002 655 q 999 655 1001 655 l 996 654 q 992 652 992 654 q 998 650 1000 652 l 998 650 l 996 650 l 995 648 q 992 644 993 646 q 1019 635 1008 643 q 996 636 1010 633 l 990 637 l 984 638 q 971 641 976 640 q 948 642 956 644 q 932 627 937 638 q 935 627 932 626 l 937 627 l 939 627 q 945 625 945 627 q 941 623 943 623 l 939 622 l 936 621 q 930 616 930 619 q 935 617 931 616 l 937 618 l 940 619 q 954 622 949 621 q 976 618 970 625 l 972 617 l 968 616 q 962 614 964 614 q 950 607 954 611 q 960 608 954 607 l 964 610 l 969 611 q 986 611 980 615 q 981 610 983 610 q 974 608 977 608 q 960 603 965 606 q 951 591 945 597 q 939 592 944 595 q 933 583 935 590 q 919 585 926 582 l 916 587 l 912 588 q 905 592 908 591 q 907 588 905 590 l 909 587 q 910 585 910 585 q 905 585 908 583 q 904 586 905 585 l 902 588 q 897 589 899 593 q 900 587 898 589 q 903 585 902 587 q 903 581 907 582 q 892 589 900 585 l 890 591 l 887 593 q 882 596 884 594 q 886 591 882 594 l 888 588 l 891 585 q 895 576 897 579 q 884 583 891 578 l 878 587 l 871 591 q 846 597 856 600 q 853 592 851 597 q 849 593 851 592 q 846 594 848 593 q 838 597 842 597 q 839 594 838 595 l 840 593 q 841 591 840 592 q 835 591 838 590 q 832 593 833 592 l 830 594 q 823 593 825 597 q 829 589 829 593 l 829 588 l 830 586 q 833 583 831 585 q 825 584 830 583 l 821 585 l 817 585 q 802 582 807 587 q 839 571 829 582 q 836 570 838 570 l 835 568 l 833 568 q 826 565 830 565 q 828 570 826 568 l 829 571 l 829 572 q 831 573 831 572 q 826 574 829 573 l 823 575 l 821 576 q 810 575 814 580 l 812 574 l 814 573 q 819 572 817 572 q 824 565 823 570 l 821 565 l 819 564 q 817 562 817 564 q 819 559 819 561 l 818 558 l 817 557 q 814 562 816 559 q 819 568 815 566 q 811 564 813 570 q 802 575 808 569 l 798 580 l 793 585 q 779 603 782 597 q 790 601 781 608 l 793 597 l 797 595 q 804 590 801 591 q 797 602 802 597 q 791 607 794 604 l 786 610 q 770 632 771 621 q 779 629 776 634 l 781 627 l 782 626 q 787 624 784 624 q 777 640 789 632 q 770 644 774 642 q 766 645 766 646 q 766 647 766 646 l 767 648 l 768 649 q 770 653 771 653 q 762 656 765 656 q 760 656 760 657 l 759 656 l 758 656 q 753 662 756 656 q 748 669 749 668 q 736 666 747 669 q 739 674 741 671 q 736 675 738 675 q 733 676 735 676 q 729 677 729 677 q 736 683 729 679 q 728 688 733 684 l 725 689 l 722 691 q 715 695 719 694 q 724 758 715 730 m 795 834 q 804 825 793 827 q 795 825 800 825 q 786 826 790 825 q 770 838 774 829 q 795 834 775 833 m 949 691 q 946 695 948 693 l 943 700 q 936 709 939 705 q 933 718 935 713 q 939 711 937 714 q 945 705 943 708 q 949 691 950 696 m 983 626 q 991 623 988 626 q 994 620 992 622 l 996 616 q 988 620 991 616 q 985 623 987 621 l 983 626 m 966 597 q 958 595 961 595 q 957 597 956 595 q 960 600 958 599 q 966 597 963 600 m 956 489 q 959 480 956 486 l 962 476 l 964 472 q 965 453 969 461 q 962 454 964 457 l 961 452 l 960 451 q 958 450 958 450 q 958 461 958 455 l 956 467 l 955 471 q 956 489 952 484 m 994 375 q 999 378 998 378 q 1000 375 1000 377 q 998 373 1000 373 q 994 375 996 372 m 1023 342 q 1030 369 1023 357 q 1023 342 1029 353 m 1034 351 q 1033 345 1033 349 l 1033 342 l 1032 340 q 1029 330 1031 333 l 1029 334 l 1029 336 q 1029 342 1029 340 q 1034 351 1029 349 m 1036 363 q 1040 379 1036 375 q 1036 363 1042 367 m 1044 395 q 1044 398 1044 396 q 1045 401 1044 399 q 1046 402 1045 402 q 1047 400 1046 402 q 1047 397 1047 399 q 1046 395 1047 395 q 1046 393 1046 393 q 1044 395 1045 393 m 1060 506 q 1027 490 1046 500 q 998 475 1007 481 q 995 475 996 475 q 993 475 994 474 q 989 475 990 475 q 987 473 988 474 l 987 471 l 987 470 q 982 467 985 467 q 982 468 982 467 l 982 469 l 981 470 q 979 472 981 473 q 979 469 979 472 l 978 467 l 977 465 q 970 464 974 458 q 970 474 970 468 l 968 479 l 968 484 q 968 500 964 495 q 970 493 969 497 l 971 489 l 972 486 q 979 474 975 477 q 979 480 979 477 l 977 484 l 977 486 q 979 497 974 494 q 989 477 982 485 l 987 484 l 985 490 q 981 503 983 498 q 991 496 987 503 l 994 493 q 996 490 994 492 q 1002 488 998 488 q 1001 492 1002 490 l 999 494 l 998 496 q 999 503 994 500 l 999 503 l 1000 502 l 1001 500 q 1004 495 1002 496 q 1009 494 1008 490 q 1010 503 1005 498 l 1013 505 l 1015 507 q 1019 512 1018 510 q 1030 510 1025 510 q 1035 511 1032 511 l 1040 512 q 1060 506 1050 514 m 1034 513 q 1026 517 1028 512 l 1029 517 q 1032 517 1031 517 q 1034 513 1035 516 m 1048 531 q 1039 534 1042 530 q 1036 537 1038 535 l 1034 539 l 1033 541 q 1043 538 1039 542 q 1046 535 1044 537 l 1047 533 l 1048 531 m 1054 534 q 1047 536 1050 534 q 1045 538 1046 537 l 1043 541 q 1050 539 1047 542 q 1052 537 1051 538 l 1054 534 m 1110 539 q 1113 536 1111 536 l 1113 532 q 1109 531 1111 530 q 1107 534 1108 532 q 1107 538 1107 536 q 1110 539 1108 539 m 1126 540 q 1121 538 1122 540 l 1120 537 l 1120 536 q 1118 534 1119 535 q 1116 537 1118 537 l 1115 542 q 1118 542 1116 542 l 1122 542 q 1126 540 1125 542 m 1124 642 q 1122 637 1125 638 l 1120 637 l 1118 636 q 1116 635 1117 635 q 1118 640 1115 639 l 1120 640 l 1121 641 q 1124 642 1123 642 m 1158 557 q 1154 557 1157 557 l 1152 556 l 1149 556 q 1143 559 1143 555 q 1147 559 1144 558 l 1149 559 l 1152 559 q 1158 557 1158 560 m 1173 565 q 1170 565 1172 566 l 1167 565 l 1165 564 q 1160 567 1160 564 q 1164 567 1162 567 l 1166 568 l 1168 568 q 1173 565 1173 568 m 471 498 q 485 492 478 504 l 488 486 l 490 480 q 496 473 494 475 q 484 479 490 466 l 481 485 l 477 490 q 471 498 475 496 m 463 548 q 477 543 469 554 q 484 519 486 531 q 473 533 479 522 l 471 537 l 469 541 q 463 548 466 546 m 459 616 q 465 636 459 627 l 467 640 l 469 643 q 471 649 471 647 q 475 658 477 665 q 470 638 475 652 q 466 627 467 631 q 463 616 464 621 q 463 610 463 612 q 460 609 462 608 q 459 611 460 609 q 459 616 458 613 m 450 548 q 449 546 450 546 q 448 546 448 546 l 446 547 q 442 544 443 548 q 441 564 436 550 l 444 570 l 447 576 q 450 586 450 583 q 452 580 454 585 q 450 575 452 578 l 450 572 l 448 570 q 446 557 446 562 q 450 548 446 551 m 425 477 q 425 511 419 490 q 442 540 431 531 q 434 508 439 528 l 429 493 q 425 477 427 484 m 404 800 q 417 817 406 811 q 422 819 420 818 l 428 821 q 438 825 435 824 q 450 817 441 817 l 450 814 l 450 812 q 450 806 451 808 q 446 800 450 801 q 452 800 447 794 q 456 804 454 802 q 459 809 458 807 q 462 802 466 807 l 460 800 q 459 798 459 799 q 459 792 458 795 q 429 794 445 790 l 424 796 l 418 798 q 404 800 410 800 m 396 855 q 406 860 396 861 l 410 859 l 414 859 q 421 859 418 859 q 409 852 416 854 q 396 855 400 850 m 362 813 q 396 830 375 825 l 393 827 l 389 824 q 382 819 385 821 q 362 813 373 812 m 354 628 l 345 628 l 345 637 l 354 637 l 354 628 m 370 834 q 358 823 367 830 q 345 813 349 817 q 350 827 338 820 q 361 831 354 829 q 366 833 363 832 q 370 834 368 833 m 370 880 q 363 876 371 875 l 359 876 l 355 876 q 349 876 351 877 q 357 881 349 882 l 361 880 l 365 880 q 370 880 369 880 m 400 867 q 390 863 399 862 l 386 863 l 382 864 q 375 863 377 864 q 385 868 375 869 l 389 867 l 393 867 q 400 867 397 867 m 425 1006 q 429 1004 427 1005 l 432 1003 l 434 1002 q 438 994 439 1000 q 434 996 437 995 l 431 997 l 429 998 q 425 1006 423 1000 m 446 834 q 442 830 442 835 q 439 833 441 831 l 438 834 l 437 836 q 429 838 434 839 q 436 842 430 842 l 439 842 l 441 842 q 446 842 445 842 l 446 834 m 450 834 q 454 838 454 833 q 459 836 458 839 q 460 830 460 833 q 456 825 459 827 q 450 825 454 823 l 450 834 m 484 1057 q 488 1046 496 1053 q 479 1040 485 1042 q 471 1036 475 1037 q 477 1046 473 1041 l 481 1052 q 484 1057 483 1055 m 408 1040 q 408 1041 406 1044 q 412 1033 409 1038 q 414 1028 414 1027 q 408 1040 413 1029 m 1133 663 q 1130 656 1131 656 q 1131 659 1130 656 q 1133 664 1133 663 q 1133 663 1134 667 m 1178 568 q 1173 572 1177 570 l 1168 573 l 1164 575 q 1157 583 1156 579 q 1166 584 1158 581 q 1177 591 1175 587 q 1166 595 1169 591 l 1172 597 q 1177 597 1175 597 q 1184 602 1182 599 q 1179 603 1183 602 l 1175 604 l 1171 605 q 1166 611 1163 608 q 1175 608 1170 610 l 1181 607 l 1186 606 q 1202 602 1199 602 q 1198 606 1201 605 l 1194 608 l 1192 609 q 1181 616 1183 612 q 1193 616 1185 620 l 1196 615 l 1200 614 q 1207 613 1204 612 q 1202 618 1206 616 l 1200 618 q 1198 619 1199 618 q 1196 623 1196 621 q 1200 623 1198 624 l 1202 623 l 1204 621 q 1209 623 1208 619 q 1201 628 1204 625 q 1206 629 1204 629 q 1208 627 1207 628 l 1210 626 q 1213 624 1212 624 q 1214 626 1213 624 q 1198 640 1208 637 q 1175 638 1189 642 l 1168 637 l 1162 635 q 1151 632 1155 633 q 1132 633 1138 629 q 1154 644 1141 635 q 1124 630 1139 641 q 1146 648 1130 640 l 1153 651 l 1160 654 q 1174 660 1169 657 q 1168 660 1171 661 l 1165 659 l 1162 658 q 1154 659 1156 655 l 1157 661 l 1161 661 q 1166 665 1165 663 q 1162 665 1164 666 l 1160 664 l 1158 663 q 1154 665 1155 661 q 1183 689 1163 674 q 1173 686 1179 688 l 1167 683 l 1162 680 q 1145 674 1149 673 q 1168 688 1153 680 l 1175 692 l 1181 695 q 1193 702 1188 699 q 1187 705 1186 701 l 1187 707 l 1187 709 q 1187 712 1188 711 q 1190 711 1189 711 l 1190 711 l 1191 710 q 1198 707 1194 709 q 1200 716 1195 718 q 1204 714 1201 716 q 1208 711 1206 713 l 1207 721 q 1213 717 1213 723 l 1213 715 q 1213 713 1213 713 q 1215 711 1213 711 q 1215 714 1216 712 l 1215 717 q 1218 721 1215 721 q 1219 718 1219 720 l 1219 715 l 1220 713 q 1226 709 1221 708 q 1224 711 1225 709 q 1223 717 1223 714 q 1225 724 1221 723 q 1238 723 1225 720 l 1242 724 l 1247 726 q 1256 728 1253 728 q 1217 736 1243 741 l 1213 735 l 1208 734 q 1199 732 1202 732 q 1183 735 1190 731 q 1179 730 1183 729 q 1177 732 1176 730 l 1177 733 l 1177 734 q 1176 734 1177 734 q 1162 729 1171 732 l 1154 726 q 1147 724 1149 725 q 1131 705 1130 718 q 1126 705 1129 704 l 1122 705 l 1120 706 q 1111 703 1113 708 q 1121 694 1119 702 q 1115 695 1117 695 q 1113 694 1114 694 l 1112 693 q 1103 693 1108 690 q 1105 689 1103 691 l 1107 688 l 1110 686 q 1112 680 1115 682 q 1110 682 1111 681 l 1108 683 q 1103 686 1105 685 q 1096 685 1097 689 q 1103 683 1100 686 q 1105 680 1104 682 l 1107 677 q 1094 680 1099 676 q 1095 677 1094 678 l 1096 676 l 1097 675 q 1099 670 1100 673 q 1088 671 1096 667 l 1086 673 l 1082 674 q 1076 676 1078 676 q 1065 698 1073 682 q 1060 710 1062 705 q 1053 724 1057 718 q 1018 772 1036 756 q 1017 768 1018 770 l 1016 768 l 1015 767 q 1013 761 1012 765 q 1015 754 1013 758 l 1018 751 l 1020 748 q 1024 739 1025 741 q 1022 741 1024 741 l 1021 743 l 1019 743 q 1025 734 1024 737 q 1019 736 1027 729 q 1023 729 1020 733 q 1030 722 1026 726 q 1036 715 1038 715 l 1031 719 l 1026 722 q 1017 729 1020 727 q 996 740 1006 736 q 1015 721 1001 731 l 1019 717 l 1025 712 q 1034 703 1030 707 q 1023 709 1029 705 l 1018 712 l 1013 715 q 989 724 1001 724 q 989 718 989 722 l 989 714 l 990 711 q 987 701 991 703 q 984 709 986 711 q 983 707 983 709 q 982 703 982 705 q 980 705 981 703 l 980 707 l 979 710 q 977 715 979 715 q 976 710 976 713 l 977 707 l 977 704 q 977 698 979 698 q 975 703 976 699 l 974 705 l 973 708 q 968 718 971 715 q 968 715 968 717 l 969 711 q 966 707 968 708 q 958 725 966 718 q 961 713 958 720 l 963 707 l 966 702 q 970 682 971 688 q 965 694 968 687 l 962 701 l 960 707 q 947 730 954 722 q 950 722 947 726 l 952 718 l 954 713 q 957 699 960 704 q 952 707 955 701 l 949 711 l 947 715 q 937 724 941 726 q 943 715 939 721 l 947 711 l 951 706 q 957 686 959 694 q 946 707 953 697 q 931 722 938 718 q 896 775 920 753 q 812 817 865 805 q 806 825 809 820 l 800 833 q 787 846 793 842 q 793 847 789 850 q 798 844 795 846 l 800 842 l 802 839 q 812 833 808 833 q 825 838 819 831 q 808 863 821 855 q 825 857 813 867 q 841 838 836 848 q 843 844 844 840 q 838 850 842 846 l 836 852 l 834 854 q 831 859 832 857 q 829 867 828 863 q 858 851 842 858 q 846 872 856 868 q 865 865 852 876 l 869 860 l 874 854 q 883 846 880 849 q 894 862 894 850 l 894 867 l 893 871 q 896 880 894 877 q 897 878 897 879 q 898 876 898 877 q 899 875 899 875 q 900 874 899 874 q 901 873 901 873 q 904 872 903 873 q 906 876 907 873 l 905 878 l 905 880 q 904 884 904 882 q 915 875 909 878 q 920 873 917 874 l 921 872 l 923 871 q 938 851 931 867 q 932 869 942 857 l 928 875 q 925 881 926 878 q 921 893 921 887 q 930 880 930 890 q 932 888 935 882 l 931 890 q 930 892 930 892 q 934 897 930 895 q 929 901 933 900 q 925 901 928 901 l 923 901 l 921 901 q 928 913 922 909 q 935 916 931 913 l 939 917 l 942 918 q 926 920 937 926 l 922 918 l 917 916 q 909 914 912 913 q 911 911 909 913 l 913 910 l 914 909 q 917 901 918 906 q 905 905 911 901 l 903 906 l 901 907 q 896 909 899 909 q 955 930 911 928 q 930 935 947 938 l 924 933 l 917 932 q 904 930 909 930 q 910 935 909 932 q 910 938 910 937 l 910 941 q 921 947 911 947 q 916 951 919 951 q 909 948 913 951 l 907 947 l 905 945 q 901 943 903 944 q 892 943 897 941 q 892 945 892 945 l 894 947 q 896 951 896 949 q 883 947 890 952 q 878 944 880 945 q 871 943 875 943 q 883 951 873 952 q 842 940 866 956 q 831 933 838 937 l 822 926 q 804 914 810 918 q 810 930 800 919 l 814 935 l 818 939 q 825 947 823 944 q 816 941 821 945 l 811 939 l 806 936 q 791 922 795 929 q 790 928 784 923 q 795 932 792 930 q 799 935 798 935 q 795 938 798 939 q 791 933 794 937 q 789 930 790 931 q 786 928 787 928 q 779 926 783 925 q 780 930 779 928 l 781 931 l 783 932 q 787 939 786 936 q 774 932 781 937 l 769 930 l 764 927 q 741 922 753 921 q 730 937 739 934 q 711 935 722 941 q 696 954 721 945 q 673 960 686 957 q 662 962 668 961 q 652 964 658 963 q 680 966 662 971 l 688 964 l 696 962 q 711 960 705 960 q 692 971 705 967 q 681 974 688 972 l 675 975 l 669 977 q 705 985 678 989 q 727 981 713 984 l 732 980 l 736 979 q 745 977 741 977 q 733 985 743 982 l 730 985 l 726 986 q 720 989 722 987 q 727 994 719 995 l 731 994 l 734 994 q 741 994 739 993 q 713 1017 731 1013 q 675 1015 699 1020 q 654 1010 667 1013 l 644 1007 l 633 1004 q 597 1002 610 999 q 640 1019 614 1015 q 635 1025 639 1022 q 633 1027 634 1025 l 631 1028 l 630 1029 q 629 1031 627 1030 q 640 1031 631 1031 q 633 1036 639 1035 l 631 1036 l 628 1036 q 623 1036 625 1036 l 633 1044 l 644 1052 q 663 1067 655 1061 q 703 1093 685 1083 q 812 1124 750 1119 q 794 1131 804 1130 q 774 1128 783 1133 q 783 1137 774 1134 l 785 1138 q 788 1139 787 1139 q 791 1145 791 1141 q 784 1141 788 1143 l 781 1140 l 777 1138 q 766 1128 768 1135 q 761 1131 762 1128 q 762 1135 760 1133 q 766 1139 763 1138 q 770 1141 768 1141 q 767 1145 768 1145 q 764 1141 766 1144 q 762 1139 763 1139 q 760 1137 761 1137 q 753 1137 756 1135 q 757 1152 751 1146 l 760 1154 l 762 1156 q 766 1162 765 1158 q 734 1137 753 1159 q 720 1118 728 1129 q 713 1107 717 1114 l 710 1103 l 707 1099 q 718 1127 704 1109 q 730 1141 722 1133 l 732 1144 l 735 1147 q 741 1154 739 1151 q 715 1130 729 1151 q 694 1090 702 1111 q 703 1122 690 1103 l 709 1131 l 714 1139 q 724 1154 721 1147 q 708 1138 718 1156 l 705 1131 l 701 1124 q 694 1112 696 1115 q 697 1135 689 1119 l 701 1141 l 703 1148 q 707 1162 707 1156 q 688 1123 698 1148 l 685 1113 l 681 1103 q 673 1082 677 1090 q 680 1114 671 1091 l 683 1124 q 686 1134 685 1129 q 690 1154 690 1145 q 677 1124 677 1140 q 673 1131 674 1125 l 673 1133 l 673 1136 q 673 1141 673 1139 q 667 1124 669 1137 l 665 1120 l 665 1115 q 661 1107 663 1110 q 660 1118 657 1107 l 661 1122 l 661 1127 q 661 1137 662 1133 q 656 1126 656 1136 l 656 1123 q 655 1120 656 1121 q 652 1116 654 1116 q 651 1122 652 1118 q 648 1126 650 1125 q 644 1112 645 1128 q 639 1128 638 1114 l 640 1133 l 640 1139 q 640 1149 640 1145 q 600 1134 619 1148 l 593 1128 l 585 1122 q 568 1112 576 1115 q 582 1128 574 1120 q 590 1135 585 1131 l 598 1142 q 627 1175 619 1160 q 593 1156 610 1168 q 578 1144 588 1152 l 571 1138 l 564 1133 q 572 1143 561 1131 q 583 1155 578 1150 q 589 1166 588 1162 q 579 1162 576 1155 q 589 1179 581 1168 l 587 1177 q 584 1175 585 1177 q 581 1171 581 1173 q 587 1186 578 1173 l 591 1192 q 594 1197 593 1194 q 597 1208 597 1203 q 595 1217 600 1215 l 593 1219 l 591 1220 q 589 1225 589 1222 q 534 1143 559 1198 q 525 1122 530 1134 q 516 1101 522 1114 q 501 1065 505 1074 q 490 1061 496 1064 l 486 1059 l 480 1056 q 463 1053 469 1049 q 466 1062 461 1059 l 468 1063 l 470 1065 q 471 1069 471 1067 q 450 1065 463 1063 l 452 1067 l 453 1070 q 456 1074 455 1072 q 467 1078 460 1078 q 454 1079 465 1084 q 447 1074 451 1077 q 444 1072 446 1073 q 442 1069 443 1070 q 444 1078 437 1072 l 448 1081 q 451 1084 450 1083 q 454 1090 454 1088 q 446 1088 450 1087 q 441 1090 445 1088 q 439 1092 440 1091 q 436 1093 437 1093 q 425 1090 432 1093 q 442 1107 429 1103 q 427 1111 438 1114 l 422 1109 l 417 1108 q 408 1107 412 1106 q 381 1138 409 1128 q 369 1141 376 1139 l 363 1143 l 356 1145 q 333 1154 341 1149 q 330 1152 330 1153 q 331 1150 330 1151 l 331 1149 q 328 1145 332 1145 q 320 1154 321 1143 q 295 1147 311 1146 q 280 1149 290 1148 l 273 1151 l 264 1152 q 233 1154 245 1156 q 203 1137 215 1150 q 216 1134 206 1136 l 224 1132 q 233 1130 230 1131 q 253 1133 253 1126 q 258 1120 259 1131 q 256 1112 257 1116 q 253 1107 254 1108 q 262 1114 260 1106 l 263 1118 l 264 1122 q 266 1128 264 1126 q 269 1122 269 1127 l 270 1119 l 270 1116 q 270 1112 269 1113 q 274 1114 273 1111 q 274 1118 275 1116 l 274 1120 l 274 1122 q 275 1128 274 1126 q 282 1128 277 1131 l 282 1112 q 289 1118 286 1115 q 296 1122 293 1121 q 299 1107 302 1123 q 310 1112 306 1109 l 311 1113 l 313 1114 q 316 1116 314 1115 q 315 1110 315 1114 l 316 1107 l 317 1105 q 308 1099 319 1098 q 328 1088 316 1094 l 338 1083 l 348 1078 q 387 1057 375 1066 q 359 1065 380 1055 l 351 1069 l 342 1073 q 324 1078 332 1077 q 375 1040 359 1055 q 372 1036 374 1036 q 367 1038 370 1036 l 364 1039 q 361 1040 362 1040 q 354 1040 357 1042 q 363 1034 356 1036 l 366 1034 l 369 1033 q 375 1031 373 1032 q 360 1029 370 1025 l 356 1030 q 351 1031 353 1031 q 341 1031 346 1033 q 364 1022 349 1027 l 376 1018 q 388 1013 383 1015 q 425 985 415 1002 q 375 1006 399 1003 q 412 989 397 994 q 381 987 402 984 q 362 991 375 989 l 352 994 l 342 996 q 304 996 319 1000 q 278 972 286 991 q 281 970 279 969 q 285 973 282 970 q 288 976 287 975 q 291 978 290 977 q 299 977 295 979 q 287 968 296 972 q 290 964 288 964 q 294 966 292 964 l 297 968 q 300 969 299 968 q 308 968 304 970 q 299 960 307 963 q 294 958 295 959 q 291 951 291 956 q 303 954 296 951 q 309 956 306 954 l 314 959 q 333 960 326 965 q 317 947 330 952 l 312 945 q 307 942 309 943 q 299 935 301 939 q 326 941 305 934 l 334 944 l 342 947 q 358 951 353 950 q 350 942 363 947 q 344 940 347 941 l 338 938 q 328 935 331 936 q 342 929 333 931 q 350 928 345 928 l 358 926 q 341 918 354 919 q 359 907 345 912 q 375 905 372 903 q 363 893 378 901 l 357 890 l 351 887 q 341 880 344 883 q 142 924 244 923 q 43 907 85 924 q -24 851 -3 889 q 3 854 -14 846 q 22 876 20 863 q 36 872 28 865 q 39 876 37 873 l 41 880 q 47 884 45 884 q 47 882 44 884 q 58 880 52 880 q 74 884 66 880 q 89 897 83 888 q 131 894 113 892 q 173 909 150 897 q 167 899 168 905 q 166 894 167 897 l 166 888 q 156 867 166 876 q 168 873 161 868 q 175 877 170 874 l 178 880 l 182 882 q 219 897 203 897 q 201 882 214 890 l 196 878 l 191 875 q 182 867 185 871 q 192 869 183 863 q 203 880 200 875 q 204 876 209 879 l 202 873 l 199 872 q 198 867 197 869 q 210 873 204 869 l 216 876 l 220 879 q 245 888 234 887 q 227 873 239 882 l 221 870 l 216 867 q 207 859 210 863 q 224 866 211 857 l 230 869 q 236 873 233 871 q 249 876 243 876 q 241 867 248 871 l 239 865 l 236 863 q 232 859 233 862 q 250 863 240 863 q 259 863 254 863 l 263 863 l 267 863 q 299 876 288 862 q 299 867 302 871 q 290 859 297 864 l 283 856 q 277 852 279 854 q 270 842 271 847 q 286 849 273 840 l 291 852 q 296 856 294 854 q 308 859 302 859 q 301 851 307 854 l 298 850 l 296 849 q 291 846 292 848 q 302 842 301 843 q 295 830 303 840 q 304 832 299 831 l 307 831 l 311 831 q 324 838 319 831 q 326 836 325 838 l 327 833 q 328 831 328 831 q 337 834 331 826 q 304 823 334 821 q 292 824 300 823 l 285 825 l 278 825 q 253 825 262 827 q 251 821 250 825 l 252 820 l 253 818 q 253 813 254 815 q 155 793 203 826 q 89 721 119 768 q 96 720 91 715 q 100 724 97 722 l 102 728 l 104 730 q 111 736 109 736 q 114 725 114 736 q 130 752 119 739 l 135 757 l 140 762 q 148 771 145 768 q 151 766 153 769 l 150 764 l 149 762 q 148 758 148 760 q 154 757 149 754 q 159 760 156 758 l 162 762 l 165 764 q 174 766 171 768 q 177 754 178 765 q 188 762 182 757 l 193 766 l 197 770 q 219 783 209 781 q 212 765 218 774 l 210 762 l 208 758 q 203 750 204 753 q 214 758 208 751 q 220 765 216 760 l 224 768 l 227 772 q 261 796 247 793 q 252 785 258 791 l 247 781 l 242 776 q 224 754 229 763 q 243 767 230 753 l 249 772 l 255 779 q 266 788 261 785 q 263 779 271 785 l 260 776 q 256 773 258 774 q 253 767 253 770 q 256 769 254 768 l 258 770 l 260 770 q 266 775 265 772 q 265 768 272 773 l 262 766 q 260 764 260 765 q 257 758 257 761 q 272 766 263 763 l 279 770 l 287 772 q 316 792 306 780 q 308 777 319 787 q 287 763 297 767 q 298 764 289 757 q 308 775 306 769 q 296 753 313 762 q 288 749 293 751 l 280 746 q 266 737 270 741 q 262 731 264 736 l 261 728 l 260 724 q 249 721 257 715 q 275 717 256 710 l 279 718 l 283 720 q 291 722 288 722 q 308 725 300 726 q 252 702 288 713 l 238 697 l 223 692 q 194 683 205 687 q 197 678 195 679 q 202 680 199 678 l 205 682 q 208 684 207 683 q 215 683 212 684 q 217 686 216 685 q 218 686 218 686 q 218 684 218 686 q 216 682 218 684 q 211 678 214 679 q 203 679 207 676 q 212 675 205 671 l 214 676 l 218 678 q 224 679 221 680 q 208 669 225 675 l 200 666 l 193 663 q 182 658 184 661 q 210 660 192 651 l 217 663 q 224 667 222 665 q 240 670 233 670 q 165 628 212 652 q 169 623 165 623 q 172 624 170 623 l 174 625 l 176 625 q 181 627 180 628 q 182 620 183 627 q 161 611 166 621 q 163 606 161 606 q 168 608 164 606 l 169 610 l 170 610 q 172 611 171 611 q 173 607 174 612 q 158 591 170 597 q 147 586 154 588 l 141 584 l 135 582 q 149 577 150 580 q 131 569 148 574 q 134 567 132 568 l 135 566 l 137 564 q 140 557 140 562 q 123 544 121 559 q 127 543 123 541 l 129 543 l 130 544 q 135 544 133 545 q 110 519 113 523 q 123 523 113 515 q 128 526 127 526 q 133 529 131 528 q 144 532 139 532 q 125 518 140 524 l 120 515 l 115 513 q 106 507 109 510 q 116 509 111 508 l 118 509 l 119 509 l 122 509 q 135 515 127 510 q 130 505 134 509 q 126 502 129 504 l 124 501 l 121 500 q 113 494 115 496 q 106 481 108 489 q 114 487 110 483 l 117 490 l 121 494 q 140 502 130 502 q 141 470 138 488 l 142 463 l 143 455 q 144 439 144 447 q 148 456 151 444 l 146 462 l 144 467 q 144 477 143 473 q 152 465 151 477 l 153 459 q 153 454 153 456 q 156 448 153 449 q 157 460 159 448 l 156 465 l 155 471 q 156 481 155 477 q 165 461 161 474 l 170 450 l 173 439 q 172 460 178 445 l 169 466 q 166 472 168 469 q 165 486 164 479 q 174 469 170 482 l 174 464 q 176 458 175 460 q 182 452 178 454 q 186 456 185 453 q 184 461 186 457 l 182 463 l 182 465 q 180 469 181 467 q 182 477 180 473 q 189 469 188 462 q 186 490 191 477 q 192 484 187 494 q 196 475 194 481 q 198 469 197 472 q 201 480 206 473 l 198 483 q 195 486 197 485 q 194 494 193 490 q 202 487 199 493 l 203 484 l 204 481 q 207 477 205 479 q 212 484 211 477 l 212 488 q 212 490 212 489 q 215 494 213 493 q 218 494 220 500 q 218 490 218 492 l 216 487 q 215 481 215 483 q 228 507 231 484 l 231 505 q 233 503 232 504 q 236 498 235 501 q 241 509 237 505 q 244 511 242 510 l 246 511 l 248 513 q 254 517 253 514 q 257 532 258 522 q 255 534 257 534 q 253 534 254 534 l 250 533 q 245 532 247 532 q 240 536 242 532 q 245 536 241 534 l 248 538 l 250 539 q 253 541 252 541 q 261 532 262 546 q 269 541 269 535 q 264 550 269 543 l 262 553 l 260 555 q 258 562 258 559 q 257 578 254 570 q 266 553 264 571 q 267 556 267 554 l 269 559 q 272 566 271 565 q 278 557 276 572 q 278 583 281 563 l 277 591 l 275 600 q 274 616 274 610 q 288 590 282 608 l 291 583 l 294 575 q 299 561 296 566 q 304 564 303 562 q 302 569 304 566 l 300 572 q 298 574 299 573 q 299 582 297 578 l 301 580 l 302 578 q 307 574 304 576 q 320 574 311 571 q 317 595 321 584 l 315 600 q 313 604 313 602 q 312 616 311 610 q 332 614 321 616 q 341 612 336 614 l 349 610 q 383 611 368 606 q 370 601 382 605 l 366 600 q 363 597 364 598 q 358 590 359 595 q 374 598 366 593 l 382 602 l 390 606 q 425 620 410 617 q 414 610 422 614 q 408 607 412 609 l 401 604 q 379 586 384 595 q 396 593 387 587 l 399 595 q 404 597 401 596 q 412 599 408 599 q 404 591 410 595 q 398 588 401 589 l 393 585 q 375 569 378 578 q 390 575 382 569 l 393 578 q 396 580 394 579 q 404 582 399 582 q 388 565 399 572 q 377 558 384 562 l 372 555 l 366 553 q 389 559 373 549 l 392 560 l 395 562 q 402 566 399 564 q 417 569 410 570 q 389 551 406 562 l 376 541 l 362 532 q 366 528 363 528 q 370 531 367 528 l 373 533 q 376 535 375 534 q 383 536 380 537 q 354 511 372 518 q 368 509 361 508 q 372 511 370 510 l 374 512 l 376 513 q 384 517 381 516 q 396 515 389 517 q 366 490 382 506 l 360 485 l 354 479 q 341 469 347 473 q 351 468 342 463 q 357 473 354 470 q 362 477 361 475 q 363 467 370 473 q 355 463 360 465 q 352 461 354 462 l 351 460 l 349 460 q 356 452 351 455 l 359 451 l 361 450 q 366 448 365 449 q 360 439 366 443 l 358 437 l 356 435 q 354 431 354 433 q 379 448 371 439 q 367 428 378 440 l 363 423 l 358 418 q 349 406 353 411 q 364 415 356 410 l 372 420 l 378 425 q 408 444 397 437 q 418 427 412 437 l 428 410 q 446 376 439 391 q 443 399 447 385 q 433 422 439 410 q 475 431 458 426 q 473 441 475 436 q 471 445 472 443 l 469 449 q 463 469 463 458 q 469 469 473 458 q 466 473 468 470 l 465 477 l 463 479 q 459 490 460 486 q 487 467 475 484 q 509 427 498 453 q 519 402 513 418 l 522 395 l 524 389 q 530 375 527 381 q 555 317 543 341 q 663 196 593 244 q 798 126 707 165 l 826 114 l 854 101 q 911 74 886 87 q 880 -12 886 35 q 881 -34 879 -27 q 888 -42 882 -41 q 903 -43 892 -43 l 907 -43 l 913 -43 q 924 -43 919 -42 q 924 -26 924 -35 l 924 -18 l 923 -11 q 922 22 921 10 q 928 39 922 28 l 930 44 l 933 49 q 939 58 937 54 q 1000 12 972 37 q 1023 -12 1012 5 q 1028 -18 1025 -14 l 1030 -20 l 1031 -23 q 1040 -33 1036 -30 q 1040 -40 1039 -36 l 1040 -42 l 1040 -44 q 1041 -49 1041 -47 q 1105 -64 1069 -63 q 1173 -58 1131 -65 q 1112 37 1170 -8 q 1059 72 1090 55 q 1008 98 1038 84 l 964 118 q 1063 218 1034 157 q 1077 254 1069 233 l 1080 263 l 1082 271 q 1088 287 1086 281 q 1117 326 1101 320 q 1115 320 1116 324 l 1113 317 q 1112 313 1112 314 q 1115 313 1109 307 q 1112 301 1116 307 l 1111 298 l 1109 296 q 1108 290 1108 293 q 1134 286 1119 288 q 1129 271 1131 278 q 1128 257 1127 262 q 1138 279 1131 267 l 1143 289 l 1149 299 q 1168 289 1156 296 l 1177 283 q 1186 278 1181 280 q 1180 285 1183 281 l 1177 288 l 1175 291 q 1166 302 1168 298 q 1183 293 1172 298 q 1181 296 1182 295 l 1180 297 l 1179 298 q 1175 303 1175 300 q 1177 304 1175 304 l 1179 305 l 1181 306 q 1184 311 1184 308 l 1183 311 l 1183 312 l 1181 313 q 1176 315 1178 314 q 1176 321 1171 318 q 1179 319 1177 320 q 1183 316 1181 317 q 1190 317 1189 313 q 1181 323 1185 319 l 1177 326 l 1173 330 q 1155 343 1163 338 q 1167 343 1160 347 l 1169 342 q 1173 341 1171 341 q 1181 342 1176 340 q 1162 357 1169 346 q 1166 356 1164 357 l 1168 355 l 1170 354 q 1175 355 1174 351 l 1166 360 l 1158 366 q 1141 376 1147 372 q 1149 374 1145 376 l 1154 372 l 1158 370 q 1172 367 1168 365 l 1165 370 q 1158 374 1161 372 q 1147 384 1151 378 q 1153 383 1151 385 l 1155 382 l 1157 380 q 1166 377 1161 376 q 1155 387 1164 382 l 1151 388 l 1147 389 q 1142 394 1144 391 q 1153 391 1147 394 l 1155 389 l 1157 389 q 1163 387 1160 387 q 1149 397 1160 393 l 1145 399 l 1141 401 q 1134 407 1137 404 q 1156 399 1143 406 l 1160 397 l 1165 395 q 1176 391 1171 392 q 1173 395 1175 393 q 1168 397 1171 395 q 1163 399 1164 397 q 1160 403 1160 400 q 1181 403 1169 399 l 1185 404 q 1191 406 1189 406 q 1203 407 1197 408 q 1203 400 1204 404 l 1202 397 l 1201 395 q 1199 381 1198 387 q 1208 382 1204 380 q 1210 385 1208 383 l 1211 386 l 1212 387 q 1213 382 1213 385 l 1212 380 l 1211 379 q 1213 374 1208 375 q 1215 383 1214 378 l 1217 388 l 1218 392 q 1226 408 1221 404 q 1226 399 1227 405 l 1225 393 l 1225 389 q 1225 372 1223 376 q 1229 378 1226 381 q 1231 374 1230 377 l 1232 372 l 1233 370 q 1238 385 1233 381 q 1238 376 1240 380 q 1236 372 1237 374 l 1235 370 l 1234 368 q 1232 362 1232 364 q 1236 357 1232 359 q 1241 363 1235 366 l 1243 362 l 1246 361 q 1249 360 1249 359 q 1246 358 1248 358 q 1243 359 1245 357 q 1239 357 1239 359 q 1245 346 1239 348 l 1247 345 q 1250 344 1249 345 q 1253 337 1252 342 q 1255 340 1253 339 l 1256 342 l 1257 342 q 1266 328 1256 328 q 1265 331 1265 329 l 1264 333 l 1263 335 q 1265 335 1263 339 q 1267 333 1267 335 l 1267 332 l 1268 330 q 1271 326 1269 326 q 1272 328 1272 326 l 1273 330 l 1274 332 q 1278 336 1275 335 q 1278 332 1279 334 l 1276 330 l 1275 328 q 1276 320 1272 323 q 1278 325 1277 322 q 1280 330 1279 328 q 1284 334 1282 336 q 1282 321 1281 326 q 1286 326 1283 317 q 1287 321 1288 323 l 1286 319 l 1286 316 q 1287 311 1284 312 q 1291 315 1289 312 l 1291 318 l 1292 321 q 1297 332 1293 330 q 1296 323 1297 328 l 1295 319 l 1293 315 q 1293 303 1289 307 l 1295 310 l 1297 317 q 1301 329 1299 325 q 1303 323 1303 327 l 1302 319 l 1302 316 q 1303 309 1301 309 q 1305 313 1304 310 l 1305 316 l 1305 319 q 1310 327 1305 327 q 1309 321 1310 325 l 1308 318 l 1308 315 q 1310 304 1306 307 q 1310 314 1310 309 l 1311 318 l 1312 323 q 1312 342 1313 334 q 1323 338 1318 342 l 1325 336 l 1327 334 q 1333 330 1330 332 q 1328 338 1331 335 q 1322 342 1326 340 q 1314 351 1315 345 q 1332 346 1315 349 q 1326 350 1330 348 l 1322 351 l 1319 353 q 1308 360 1311 356 q 1314 359 1311 361 l 1318 357 l 1320 356 q 1329 353 1327 351 q 1313 368 1327 356 q 1316 368 1314 369 l 1317 368 l 1318 368 q 1320 369 1320 366 q 1310 376 1321 378 q 1312 380 1310 379 l 1312 381 l 1313 382 q 1315 384 1314 383 q 1303 388 1304 387 q 1312 391 1303 389 l 1308 393 l 1305 393 q 1298 396 1301 395 q 1288 406 1291 399 q 1291 407 1288 410 q 1295 406 1293 406 q 1296 409 1296 406 q 1282 413 1292 414 q 1282 418 1282 417 q 1286 417 1283 418 l 1288 416 q 1290 416 1289 416 q 1293 418 1293 416 q 1245 442 1263 433 q 1255 441 1249 443 l 1259 439 l 1264 437 q 1282 436 1276 432 q 1274 439 1280 438 l 1270 441 l 1265 442 q 1255 448 1255 446 q 1259 448 1257 448 l 1261 447 l 1263 446 q 1268 448 1267 444 q 1263 448 1265 447 q 1259 450 1261 448 q 1259 452 1259 451 q 1259 452 1258 452 q 1259 452 1259 453 q 1261 451 1259 452 q 1265 451 1263 452 l 1267 450 l 1268 450 q 1273 451 1272 448 q 1255 456 1266 454 l 1246 459 l 1237 462 q 1203 474 1215 468 q 1213 473 1207 475 l 1218 471 l 1223 470 q 1239 473 1234 467 q 1232 475 1234 470 l 1231 477 l 1230 479 q 1228 483 1230 481 q 1219 488 1225 485 l 1214 490 l 1209 492 q 1202 505 1198 496 q 1208 498 1202 501 q 1215 498 1214 494 q 1202 505 1208 500 q 1196 515 1194 511 q 1214 503 1202 507 l 1219 502 l 1223 500 q 1233 496 1229 498 q 1231 499 1233 497 l 1230 500 l 1227 501 q 1227 506 1223 505 q 1231 503 1227 504 l 1232 503 l 1233 502 q 1235 501 1234 502 q 1233 505 1235 503 l 1231 507 l 1229 508 q 1227 513 1223 511 q 1234 508 1230 512 l 1237 505 l 1241 501 q 1253 494 1250 493 q 1242 507 1250 499 l 1235 513 q 1229 519 1232 516 q 1251 505 1238 517 l 1255 500 q 1259 496 1257 498 q 1266 492 1263 493 l 1263 496 l 1260 501 q 1255 512 1256 507 q 1269 505 1261 511 l 1272 502 l 1275 499 q 1282 495 1278 497 q 1289 501 1280 507 l 1291 500 l 1293 499 q 1295 498 1295 498 q 1299 498 1299 496 q 1299 501 1299 500 l 1298 502 l 1297 503 q 1299 507 1297 505 q 1304 501 1301 505 l 1308 498 l 1310 495 q 1321 479 1317 488 q 1322 486 1320 486 q 1327 483 1324 486 l 1329 481 l 1330 479 q 1333 477 1331 477 q 1336 477 1335 474 q 1294 519 1317 505 q 1234 529 1264 538 q 1234 532 1234 530 l 1234 533 l 1235 534 q 1234 537 1236 536 q 1218 536 1228 537 l 1210 534 q 1202 534 1205 534 q 1182 540 1184 532 q 1187 538 1186 535 l 1188 539 l 1189 541 q 1190 543 1190 543 q 1198 538 1193 538 l 1200 539 l 1202 539 q 1208 538 1205 539 q 1203 546 1202 545 q 1210 549 1204 547 q 1207 550 1208 549 l 1205 551 l 1204 551 q 1199 556 1200 553 q 1206 554 1202 556 l 1210 552 l 1213 550 q 1223 547 1221 545 q 1218 552 1222 549 l 1214 555 l 1211 557 q 1204 566 1201 562 q 1224 559 1211 558 l 1229 559 l 1234 560 q 1245 558 1240 560 q 1243 561 1244 559 l 1241 562 l 1240 562 q 1235 568 1236 564 q 1242 566 1238 568 l 1246 564 l 1250 562 q 1261 559 1259 557 q 1255 563 1259 561 l 1252 565 l 1249 567 q 1237 576 1240 572 q 1252 570 1243 575 l 1255 568 l 1258 567 q 1265 564 1262 565 q 1265 566 1266 565 l 1263 568 l 1262 568 q 1263 572 1259 570 q 1270 565 1265 568 q 1276 564 1276 562 q 1270 569 1274 566 l 1267 570 l 1263 572 q 1252 581 1255 577 q 1275 574 1262 582 l 1280 570 q 1284 568 1282 569 q 1291 565 1289 565 q 1284 578 1285 570 l 1284 581 l 1284 584 q 1280 590 1283 587 q 1306 582 1294 583 q 1332 585 1317 581 q 1341 577 1336 580 q 1351 576 1346 575 q 1357 576 1355 576 q 1358 578 1360 578 q 1361 576 1359 578 l 1363 573 l 1364 571 q 1373 574 1369 567 q 1385 561 1375 566 q 1402 559 1396 557 q 1299 600 1375 604 q 1178 568 1236 596 m 1344 300 q 1346 301 1346 300 q 1345 303 1345 302 l 1345 305 q 1346 305 1343 309 q 1336 324 1347 313 q 1326 332 1333 327 l 1321 336 q 1316 340 1318 338 q 1314 313 1314 330 l 1314 305 l 1314 298 q 1314 283 1314 289 q 1318 293 1316 283 q 1320 309 1320 302 q 1324 301 1324 309 l 1324 298 l 1324 294 q 1324 289 1324 291 q 1326 292 1326 284 l 1326 296 l 1326 299 q 1326 304 1326 304 l 1329 300 l 1331 294 q 1329 287 1329 294 l 1329 284 l 1330 281 q 1330 277 1330 278 q 1333 284 1333 277 l 1332 287 l 1331 290 q 1331 294 1331 292 q 1343 264 1341 277 q 1345 286 1349 271 q 1342 296 1344 290 l 1341 299 l 1340 301 q 1339 305 1339 304 l 1341 304 l 1342 303 q 1344 300 1343 302 m 1181 273 q 1169 285 1181 278 q 1159 290 1165 288 q 1149 294 1154 292 q 1147 287 1149 290 l 1144 284 l 1142 281 q 1144 277 1143 279 l 1145 276 l 1146 275 q 1147 266 1148 271 q 1146 267 1147 267 l 1145 269 l 1145 269 q 1143 269 1143 271 q 1140 266 1143 266 q 1141 263 1140 263 q 1142 264 1141 263 l 1143 264 q 1145 260 1146 267 q 1151 273 1150 265 l 1152 277 l 1152 280 q 1152 287 1152 284 q 1166 277 1158 284 l 1169 275 l 1172 272 q 1179 267 1175 269 q 1177 269 1179 267 q 1175 271 1177 270 q 1170 278 1171 275 q 1169 281 1167 281 q 1181 273 1172 280 m 1173 267 q 1166 273 1173 268 q 1158 279 1160 278 q 1160 276 1152 283 q 1175 263 1166 271 q 1185 255 1185 255 q 1173 267 1187 254 m 1172 246 q 1177 248 1172 250 q 1182 242 1182 245 q 1174 258 1185 250 l 1169 262 l 1164 266 q 1158 274 1160 271 q 1147 251 1151 267 l 1145 244 l 1143 237 q 1139 224 1141 229 q 1145 231 1143 226 l 1146 234 l 1147 236 q 1149 240 1148 239 q 1152 235 1154 239 l 1151 233 l 1149 231 q 1149 227 1149 229 q 1153 232 1152 224 l 1154 235 l 1154 239 q 1156 243 1156 242 q 1158 242 1158 243 q 1158 240 1158 241 l 1157 237 q 1162 233 1156 231 q 1162 224 1163 229 l 1161 222 l 1160 220 q 1160 215 1160 218 q 1163 215 1162 210 q 1162 223 1164 220 q 1166 218 1165 223 l 1166 216 l 1166 215 q 1168 213 1167 214 q 1171 223 1171 214 l 1170 227 l 1170 230 q 1170 236 1169 234 q 1175 229 1173 234 q 1171 240 1177 232 q 1166 246 1169 243 q 1161 251 1164 249 q 1172 243 1165 253 l 1175 239 l 1178 235 q 1183 229 1181 231 q 1180 237 1185 232 l 1178 240 l 1175 242 q 1172 246 1173 245 m 898 522 q 903 522 900 522 q 908 523 905 522 q 918 531 915 525 q 903 528 915 528 q 898 522 904 523 m 1095 315 q 1102 319 1099 311 l 1104 323 l 1105 326 q 1109 331 1107 330 q 1101 327 1105 335 l 1099 323 l 1098 320 q 1095 315 1096 316 m 787 549 l 790 551 l 793 553 q 798 556 796 556 q 793 557 796 559 q 789 555 791 557 l 787 552 l 787 549 m 1162 539 q 1165 536 1163 537 l 1169 533 q 1177 527 1175 529 q 1175 535 1182 531 q 1168 537 1172 536 l 1164 538 q 1162 539 1163 538 m 1167 526 q 1146 536 1159 533 l 1148 534 l 1151 532 q 1155 529 1153 530 q 1167 526 1160 526 m 1105 423 q 1102 429 1101 433 q 1106 416 1103 425 l 1109 410 q 1111 403 1110 406 q 1112 399 1111 401 q 1112 399 1112 399 q 1114 400 1113 399 q 1114 403 1114 401 q 1109 416 1113 410 l 1108 418 l 1107 420 q 1105 423 1105 422 m 951 414 q 946 413 950 418 q 943 409 945 412 l 942 408 q 941 406 942 406 q 943 398 942 403 l 944 391 q 947 375 946 380 q 949 385 949 378 q 947 390 948 387 l 946 396 q 951 414 942 410 m 935 390 q 936 391 935 391 l 937 393 l 937 394 q 939 398 937 398 q 937 399 939 400 q 934 397 935 399 q 932 393 932 395 q 935 390 932 391 m 1183 393 q 1185 392 1183 391 q 1188 393 1186 392 q 1190 397 1190 395 q 1191 401 1191 399 q 1186 399 1185 404 l 1186 397 q 1185 395 1186 395 q 1183 393 1185 393 m 1120 385 q 1118 382 1118 385 q 1120 378 1119 380 l 1121 375 q 1123 368 1123 371 q 1120 362 1124 364 q 1122 361 1121 361 l 1122 361 l 1123 361 q 1126 360 1125 363 q 1125 372 1129 364 l 1124 376 l 1122 379 q 1120 385 1120 383 m 1069 376 q 1067 370 1065 374 l 1068 369 l 1069 367 q 1069 363 1070 365 q 1063 370 1065 365 l 1062 375 l 1061 380 q 1061 362 1062 372 l 1061 359 q 1061 355 1061 357 q 1062 345 1061 350 q 1058 349 1060 347 l 1056 351 l 1055 352 q 1048 359 1052 355 q 1055 335 1048 352 q 1061 321 1059 327 q 1064 306 1064 313 q 1076 339 1074 315 q 1077 359 1077 348 q 1076 367 1076 362 l 1076 370 l 1076 373 q 1072 370 1074 369 q 1069 376 1072 370 m 1030 369 q 1023 342 1023 357 q 1030 369 1029 353 m 1126 357 q 1132 338 1128 351 l 1135 329 q 1138 319 1137 323 q 1137 340 1141 328 q 1126 357 1133 353 m 910 348 q 907 340 908 345 q 907 335 907 338 l 906 330 q 909 335 908 327 q 910 348 911 342 m 1044 336 q 1053 319 1051 330 l 1054 314 l 1055 309 q 1057 298 1055 302 q 1057 304 1060 299 l 1057 306 l 1055 308 q 1056 313 1055 311 q 1057 290 1063 304 q 1061 315 1067 296 q 1044 336 1055 332 m 1022 330 q 1017 319 1017 328 q 1033 312 1024 326 q 1039 299 1036 307 q 1042 293 1040 296 l 1043 290 l 1044 287 q 1036 302 1038 292 q 1034 300 1034 302 q 1031 297 1034 297 q 1033 296 1031 295 l 1034 296 l 1034 296 q 1036 297 1035 297 q 1035 291 1035 294 l 1035 288 l 1036 286 q 1034 274 1037 279 q 1038 275 1037 277 q 1038 271 1038 275 l 1038 269 l 1038 267 l 1038 263 q 1040 256 1038 258 q 1046 291 1055 269 q 1036 310 1043 298 l 1034 315 l 1031 319 q 1027 328 1029 324 q 1022 330 1023 327 m 979 315 q 983 316 981 315 l 984 317 q 986 318 985 318 q 987 319 989 319 q 983 320 986 320 q 979 319 981 320 q 979 315 977 317 m 1145 258 q 1141 250 1143 256 q 1144 250 1142 245 q 1145 258 1146 255 m 1002 190 q 1003 186 1002 189 l 1004 185 l 1004 184 q 1002 185 1004 182 q 1001 184 1000 184 q 1002 182 1001 182 q 1000 177 1003 178 q 1004 176 1000 174 l 1005 177 l 1006 178 q 1010 178 1008 179 q 1002 190 1010 192 m 1009 494 q 1004 495 1008 490 q 1001 500 1002 496 l 1000 502 l 999 503 l 999 503 q 998 496 994 500 l 999 494 l 1001 492 q 1002 488 1002 490 q 996 490 998 488 q 994 493 994 492 l 991 496 q 981 503 987 503 q 985 490 983 498 l 987 484 l 989 477 q 979 497 982 485 q 977 486 974 494 l 977 484 l 979 480 q 979 474 979 477 q 972 486 975 477 l 971 489 l 970 493 q 968 500 969 497 q 968 484 964 495 l 968 479 l 970 474 q 970 464 970 468 q 977 465 974 458 l 978 467 l 979 469 q 979 472 979 472 q 981 470 981 473 l 982 469 l 982 468 q 982 467 982 467 q 987 470 985 467 l 987 471 l 987 473 q 989 475 988 474 q 993 475 990 475 q 995 475 994 474 q 998 475 996 475 q 1027 490 1007 481 q 1060 506 1046 500 q 1040 512 1050 514 l 1035 511 q 1030 510 1032 511 q 1019 512 1025 510 q 1015 507 1018 510 l 1013 505 l 1010 503 q 1009 494 1005 498 m 965 453 q 964 472 969 461 l 962 476 l 959 480 q 956 489 956 486 q 955 471 952 484 l 956 467 l 958 461 q 958 450 958 455 q 960 451 958 450 l 961 452 l 962 454 q 965 453 964 457 m 484 1057 q 481 1052 483 1055 l 477 1046 q 471 1036 473 1041 q 479 1040 475 1037 q 488 1046 485 1042 q 484 1057 496 1053 m 438 994 q 434 1002 439 1000 l 432 1003 l 429 1004 q 425 1006 427 1005 q 429 998 423 1000 l 431 997 l 434 996 q 438 994 437 995 m 656 989 q 643 984 648 989 q 639 979 642 982 l 637 975 l 635 972 q 648 979 643 973 q 652 984 650 981 l 654 987 l 656 989 m 686 943 q 699 941 694 940 q 701 945 702 941 q 695 947 699 947 q 686 943 690 947 m 652 926 q 640 927 643 928 q 639 924 637 926 q 644 922 641 922 q 652 926 649 922 m 370 880 q 365 880 369 880 l 361 880 l 357 881 q 349 876 349 882 q 355 876 351 877 l 359 876 l 363 876 q 370 880 371 875 m 1005 872 q 1010 872 1008 873 q 1013 871 1012 871 l 1015 869 q 1022 871 1020 865 l 1021 872 l 1021 873 l 1020 873 l 1017 874 q 1012 876 1015 876 q 1005 872 1006 878 m 400 867 q 393 867 397 867 l 389 867 l 385 868 q 375 863 375 869 q 382 864 377 864 l 386 863 l 390 863 q 400 867 399 862 m 396 855 q 409 852 400 850 q 421 859 416 854 q 414 859 418 859 l 410 859 l 406 860 q 396 855 396 861 m 564 846 q 553 843 557 847 q 550 839 551 842 l 549 836 l 547 834 q 558 838 554 833 q 562 842 559 840 l 563 844 l 564 846 m 581 846 q 564 842 570 848 q 559 836 562 840 l 557 833 l 555 830 q 572 835 566 829 q 576 840 574 837 l 578 844 l 581 846 m 429 838 q 437 836 434 839 l 438 834 l 439 833 q 442 830 441 831 q 446 834 442 835 l 446 842 q 441 842 445 842 l 439 842 l 436 842 q 429 838 430 842 m 454 838 q 450 834 454 833 l 450 825 q 456 825 454 823 q 460 830 459 827 q 459 836 460 833 q 454 838 458 839 m 459 792 q 459 798 458 795 q 460 800 459 799 l 462 802 q 459 809 466 807 q 456 804 458 807 q 452 800 454 802 q 446 800 447 794 q 450 806 450 801 q 450 812 451 808 l 450 814 l 450 817 q 438 825 441 817 q 428 821 435 824 l 422 819 q 417 817 420 818 q 404 800 406 811 q 418 798 410 800 l 424 796 l 429 794 q 459 792 445 790 m 581 800 q 593 809 590 800 l 591 809 l 588 808 q 584 808 585 808 q 581 800 579 806 m 522 763 q 526 775 522 768 q 509 767 511 777 q 513 763 514 766 l 522 763 m 345 628 l 354 628 l 354 637 l 345 637 l 345 628 m 568 616 q 568 610 568 614 q 569 606 568 608 q 571 604 570 604 q 572 607 572 604 q 572 612 572 609 q 571 616 572 614 q 570 618 570 618 q 568 616 569 618 m 741 599 q 741 590 741 597 l 740 585 q 741 578 740 581 q 745 574 741 566 q 745 582 745 575 l 745 588 q 745 593 745 591 q 741 599 745 607 m 749 582 q 749 573 749 581 l 749 568 q 749 562 749 564 q 753 557 749 549 q 753 566 753 558 l 753 571 q 753 576 753 574 q 749 582 753 590 m 589 557 q 581 582 589 575 q 589 557 579 562 m 656 578 q 648 582 650 583 q 646 578 646 581 q 650 574 647 575 q 656 578 653 573 m 766 536 q 766 545 766 538 l 766 551 q 766 558 766 555 q 762 565 766 572 q 762 555 762 563 l 762 549 q 761 543 761 545 q 766 536 762 528 m 484 519 q 477 543 486 531 q 463 548 469 554 q 469 541 466 546 l 471 537 l 473 533 q 484 519 479 522 m 593 536 q 595 527 594 532 l 595 522 l 596 517 q 602 502 597 507 l 602 507 l 602 513 q 602 523 602 519 q 593 536 600 533 m 572 460 q 568 450 571 456 l 566 446 l 564 441 q 559 418 559 429 q 574 437 569 420 q 572 460 578 452 m 618 275 l 627 275 l 627 283 l 618 283 l 618 275 m 1021 872 l 1022 871 l 1022 872 l 1021 872 m 997 876 q 981 878 992 871 l 977 882 l 972 885 q 963 888 967 888 q 979 886 968 895 l 983 883 l 987 880 q 997 876 993 876 m 951 905 q 949 897 949 901 q 949 893 949 895 l 949 890 q 946 880 950 884 q 944 889 945 882 l 943 895 q 942 899 943 897 q 930 905 939 911 q 937 900 934 905 q 938 895 937 898 l 939 890 q 951 876 942 876 q 959 888 954 885 q 967 879 962 886 l 971 872 l 975 866 q 993 855 985 851 q 990 857 990 856 q 993 858 991 857 q 996 859 994 859 q 998 861 997 860 q 1001 867 1000 864 q 1017 853 1006 861 l 1022 850 l 1027 846 q 1034 838 1031 842 q 1035 852 1042 846 q 1031 856 1034 854 l 1028 859 q 1022 863 1023 861 l 1022 865 l 1022 867 l 1022 869 l 1022 869 l 1022 871 q 1015 869 1020 865 l 1013 871 q 1010 872 1012 871 q 1005 872 1008 873 q 1012 876 1006 878 q 1017 874 1015 876 l 1020 873 l 1021 873 l 1021 872 l 1021 873 l 1021 874 l 1020 876 l 1020 876 l 1019 878 l 1019 878 l 1018 879 l 1017 880 l 1017 881 l 1017 881 q 1010 887 1014 884 l 1010 887 l 1008 888 l 1008 888 l 1006 889 l 1006 890 l 1004 890 l 1004 891 l 1002 892 l 1001 892 l 1000 893 l 999 894 q 993 897 996 895 l 992 897 l 990 897 l 989 898 l 987 898 l 986 899 l 985 899 l 983 899 l 982 900 l 981 901 l 979 901 l 977 901 l 976 901 l 973 902 l 972 903 l 970 903 l 968 903 l 967 903 l 966 903 l 964 904 l 962 904 l 961 905 l 960 905 l 958 905 l 956 905 l 954 905 l 954 905 l 951 905 m 85 439 q 89 443 88 444 q 87 438 89 442 q 87 435 87 436 q 86 432 86 433 q 89 431 86 429 q 92 436 90 434 q 95 437 93 437 l 98 439 q 96 433 97 437 l 94 429 l 93 425 q 88 406 90 414 q 93 372 83 382 q 110 422 96 393 q 111 414 111 419 l 110 409 l 110 405 q 114 393 109 394 q 114 401 113 395 l 115 406 l 115 410 q 111 422 115 421 l 115 431 l 119 439 q 119 431 119 437 l 118 425 q 118 419 118 421 q 123 414 119 406 q 123 423 123 417 l 123 428 l 122 433 q 127 448 121 446 q 132 420 127 436 q 140 406 137 404 q 138 429 138 414 l 138 441 l 137 453 q 131 498 135 482 q 124 492 128 495 l 121 488 l 117 485 q 101 470 106 475 q 85 439 83 452 m 408 435 q 393 427 400 431 q 376 418 383 422 q 358 397 357 406 q 376 412 372 410 q 376 407 380 412 q 368 395 374 403 q 364 391 366 393 q 362 389 362 389 q 372 397 367 392 l 378 401 l 382 406 q 404 422 395 418 q 406 412 406 418 l 406 406 l 407 400 q 417 380 408 387 q 420 387 415 390 l 422 386 q 423 385 422 385 q 425 389 425 385 q 421 393 420 389 q 418 395 420 397 l 416 393 l 415 391 q 412 389 414 389 q 415 403 412 397 l 417 406 l 418 408 q 421 414 420 411 q 417 418 420 416 l 415 420 l 413 422 q 408 435 409 428 m 396 410 q 382 399 392 407 q 370 389 372 391 q 351 368 349 368 q 368 382 353 368 q 393 405 383 395 q 396 410 404 415 m 358 347 q 366 356 358 351 q 375 355 374 361 q 369 348 374 353 l 366 344 l 361 340 q 358 326 353 330 q 366 336 361 329 l 370 343 l 374 350 q 391 363 385 366 q 384 355 388 359 q 376 345 379 349 q 370 326 367 332 q 379 338 374 334 q 379 328 380 334 l 379 322 l 378 317 q 383 300 378 303 q 386 304 385 301 q 387 307 386 305 l 387 309 q 391 317 387 317 q 392 304 391 312 q 396 304 393 296 q 395 313 397 309 q 395 316 395 314 l 393 319 q 391 334 390 326 q 399 342 403 332 l 399 344 l 398 345 q 397 349 397 347 q 400 351 397 351 q 404 344 402 349 q 405 338 404 342 l 406 333 q 412 326 410 320 q 412 332 414 328 l 410 334 l 409 338 q 412 347 406 345 q 416 340 414 344 l 418 336 l 419 332 q 429 321 423 323 q 422 342 426 330 l 419 353 l 416 364 q 396 401 407 390 q 385 388 393 395 q 378 381 382 385 l 371 375 q 358 347 353 359 m 421 410 q 426 395 423 399 q 430 393 429 391 q 429 398 431 394 q 421 410 427 404 m 804 825 q 795 834 793 827 q 770 838 775 833 q 786 826 774 829 q 795 825 790 825 q 804 825 800 825 m 471 498 q 477 490 475 496 l 481 485 l 484 479 q 496 473 490 466 q 490 480 494 475 l 488 486 l 485 492 q 471 498 478 504 m 997 876 q 987 880 993 876 l 983 883 l 979 886 q 963 888 968 895 q 972 885 967 888 l 977 882 l 981 878 q 997 876 992 871 m 370 834 q 366 833 368 833 q 361 831 363 832 q 350 827 354 829 q 345 813 338 820 q 358 823 349 817 q 370 834 367 830 m 396 830 q 362 813 375 825 q 382 819 373 812 q 389 824 385 821 l 393 827 l 396 830 m 463 616 q 466 627 464 621 q 470 638 467 631 q 475 658 475 652 q 471 649 477 665 q 469 643 471 647 l 467 640 l 465 636 q 459 616 459 627 q 459 611 458 613 q 460 609 460 609 q 463 610 462 608 q 463 616 463 612 m 732 582 q 736 607 734 590 l 737 613 l 738 620 q 741 632 739 627 q 739 635 740 633 q 737 637 738 636 q 732 644 734 642 q 724 645 726 651 q 734 633 732 642 q 734 616 736 627 l 732 611 l 732 606 q 730 597 730 601 q 732 582 728 587 m 745 620 q 749 614 748 620 l 749 612 q 750 610 750 610 q 753 607 751 608 q 756 612 757 609 q 753 618 756 615 q 748 623 751 622 q 745 620 745 623 m 345 595 q 341 597 342 594 q 341 600 341 597 l 341 603 q 333 607 341 610 q 334 600 332 604 q 338 594 335 597 q 342 591 340 592 q 345 595 345 591 m 450 586 q 447 576 450 583 l 444 570 l 441 564 q 442 544 436 550 q 446 547 443 548 l 448 546 q 449 546 448 546 q 450 548 450 546 q 446 557 446 551 q 448 570 446 562 l 450 572 l 450 575 q 452 580 452 578 q 450 586 454 585 m 568 548 q 559 536 564 541 l 557 534 q 554 531 555 532 q 547 523 551 528 q 548 540 548 532 q 547 547 547 543 l 547 553 q 547 582 546 568 l 546 578 l 545 574 q 543 566 544 568 q 534 553 540 556 q 534 559 532 556 q 535 563 534 561 l 537 566 q 539 570 539 569 q 534 574 538 572 q 529 564 530 564 q 522 569 527 562 q 522 564 522 568 l 522 562 l 522 559 q 522 545 522 551 q 525 514 523 528 q 547 460 530 474 q 550 486 547 472 q 559 509 553 494 q 568 548 570 536 m 597 565 q 610 523 601 541 q 597 565 610 546 m 425 477 q 429 493 427 484 l 434 508 q 442 540 439 528 q 425 511 431 531 q 425 477 419 490 m 802 519 q 801 527 802 524 q 795 540 799 536 q 798 518 795 530 q 804 511 801 505 l 802 519 m 559 473 q 561 464 562 469 q 559 460 560 463 l 558 458 l 557 457 q 555 451 555 453 q 559 448 556 449 q 562 465 561 454 l 562 473 q 564 481 563 478 q 576 511 566 499 q 562 497 570 507 q 552 474 555 487 q 549 450 548 460 q 559 435 551 439 q 553 454 554 446 q 559 473 552 464 m 597 410 q 595 429 593 418 l 595 433 q 596 437 596 435 q 593 448 595 443 q 596 447 595 448 l 597 446 l 599 446 q 602 448 601 444 q 597 452 597 448 q 593 456 597 456 q 581 431 591 439 q 583 435 581 433 l 584 440 q 588 451 587 446 q 597 472 593 464 q 623 486 610 495 q 614 502 622 498 q 606 498 613 497 q 600 484 604 492 l 595 476 l 591 469 q 577 437 581 448 q 589 380 564 399 q 592 392 592 385 q 592 398 592 395 l 591 401 l 591 404 q 592 412 591 410 q 597 410 593 414 m 673 486 q 676 484 675 485 l 677 484 l 679 483 q 686 481 682 480 q 685 488 688 485 q 677 489 682 489 q 671 488 673 489 q 673 486 669 486 m 417 376 q 420 363 416 371 q 425 363 424 356 q 417 376 422 372 m 656 262 q 659 264 659 262 q 656 267 660 267 q 654 264 653 262 l 654 266 l 654 267 l 656 269 q 656 275 656 273 q 645 270 648 277 q 644 254 643 265 q 650 255 647 256 q 653 254 652 255 l 654 253 l 655 252 q 659 250 658 250 q 661 254 660 250 q 656 262 655 256 m 656 742 q 660 738 659 741 l 661 736 l 662 734 q 669 729 664 729 q 669 730 669 729 l 669 732 l 670 734 q 673 737 671 739 q 675 733 673 737 q 676 730 675 731 q 678 726 677 728 q 690 725 684 716 q 689 742 688 732 q 690 750 689 745 l 691 753 l 692 758 q 690 783 696 777 q 686 772 688 779 l 685 766 l 684 760 q 673 742 681 745 q 674 751 673 745 l 675 756 l 677 762 q 673 779 680 774 q 656 746 668 759 l 659 757 l 662 768 q 669 788 665 781 q 652 776 659 788 l 649 771 q 646 767 647 768 q 635 763 642 763 q 637 770 634 766 q 639 773 637 771 l 642 776 q 640 788 648 783 l 639 787 l 638 785 q 636 781 637 783 q 632 774 634 777 q 623 771 626 765 q 620 787 629 779 l 616 790 l 612 793 q 606 800 607 797 q 587 797 597 796 q 579 798 584 797 l 576 798 l 572 799 q 538 788 553 802 q 644 742 600 764 q 648 741 646 741 q 651 741 649 741 q 656 742 656 742 m 699 708 q 703 709 700 715 l 705 707 l 707 705 q 711 704 709 703 q 710 722 709 712 q 711 730 711 726 l 712 734 l 713 739 q 711 767 718 758 q 706 753 710 762 l 702 746 l 699 739 q 699 708 690 720 m 924 -43 l 924 -43 l 924 -43 l 924 -43 z "},"^":{"ha":1257,"x_min":27,"x_max":1213,"o":"m 191 328 l 184 327 q 169 326 174 326 q 139 321 151 323 q 88 294 106 313 q 542 243 86 250 q 895 243 702 241 q 1138 249 1046 245 q 1135 252 1136 252 q 1033 288 1114 288 q 968 284 1006 288 q 954 283 962 283 l 947 282 l 940 281 q 917 279 924 279 q 831 272 888 277 l 789 268 q 747 264 765 266 q 578 256 648 256 q 243 301 389 253 q 362 325 288 317 q 199 329 265 336 l 191 328 m 285 130 q 239 144 260 137 q 455 169 336 159 q 672 182 532 175 l 726 184 l 780 188 q 888 194 841 191 q 1103 216 1008 203 q 837 216 1000 222 l 770 214 l 704 211 q 571 208 627 208 q 437 212 515 208 q 370 216 412 213 l 336 217 l 303 219 q 36 220 137 228 q 37 210 37 216 q 39 201 38 207 q 41 186 41 190 q 48 166 44 172 q 64 155 53 159 q 98 149 75 152 q 145 144 116 148 l 168 141 l 191 138 q 285 130 247 132 m 938 4 q 920 0 930 1 q 850 -12 876 -9 q 792 -13 824 -14 l 848 -17 q 905 -21 882 -20 q 1017 -26 968 -25 q 1023 -26 1019 -26 l 1025 -26 l 1027 -26 q 1033 -26 1030 -26 q 1057 -27 1046 -27 q 1091 14 1076 -8 l 1077 15 l 1063 16 q 1036 17 1047 17 q 938 4 1000 16 m 159 375 q 359 363 227 369 l 409 361 q 459 358 437 359 q 559 351 515 355 q 597 348 574 350 l 617 347 l 637 345 q 715 336 684 341 q 829 335 758 336 l 886 334 q 944 334 920 334 q 1001 332 969 333 l 1057 331 q 1171 328 1133 328 q 1192 329 1179 328 l 1197 330 l 1202 330 l 1213 330 q 1166 561 1213 451 q 1039 749 1121 667 q 850 876 957 831 q 620 922 741 922 q 397 880 504 922 q 213 762 294 838 q 84 585 132 685 q 27 368 35 482 q 66 370 44 368 q 85 372 74 371 l 94 372 l 103 373 q 159 375 146 376 m 628 80 q 256 80 398 77 q 166 83 220 81 l 121 86 l 77 88 q 97 47 86 66 q 239 47 189 51 q 368 35 292 43 l 399 31 l 431 28 q 494 21 471 24 q 711 26 580 33 q 764 24 730 26 l 791 22 l 819 21 q 927 18 882 18 q 979 20 958 18 q 1036 24 1010 20 q 1143 49 1102 31 l 1149 60 q 1076 62 1118 61 l 1040 62 l 1004 62 q 858 66 910 62 q 745 73 821 68 l 716 75 l 686 76 q 628 80 654 78 m 1111 178 q 1006 184 1065 186 q 898 176 966 182 l 871 174 l 844 171 q 790 166 812 168 q 684 165 729 162 l 669 163 q 622 161 646 163 q 667 136 620 138 q 774 143 700 134 q 804 146 785 144 l 819 149 l 834 151 q 891 156 869 155 q 966 151 950 161 q 984 150 979 151 q 998 143 987 149 q 972 143 987 142 q 959 144 967 143 l 945 146 q 895 144 912 150 q 985 119 880 119 q 1026 120 1003 119 q 1066 122 1043 121 q 1119 125 1113 125 q 1173 155 1172 142 q 1111 178 1174 168 z "},"_":{"ha":488,"x_min":48,"x_max":439,"o":"m 62 -189 l 439 -189 l 426 20 l 48 -1 l 62 -189 z "},"`":{"ha":338,"x_min":29,"x_max":308,"o":"m 238 1019 l 29 955 l 209 749 l 308 773 l 238 1019 z "},"a":{"ha":704,"x_min":-22,"x_max":716,"o":"m 427 235 l 193 314 l 239 517 l 469 467 l 427 235 m 716 116 l 647 648 l 513 636 q 353 723 445 710 q 231 710 291 731 q 124 644 173 689 q -1 396 21 549 q 52 124 -22 243 q 136 32 86 67 q 249 -13 188 -5 q 382 5 317 -22 q 497 85 446 31 l 500 23 l 716 116 z "},"b":{"ha":684,"x_min":5,"x_max":705,"o":"m 450 182 l 283 179 l 274 453 l 463 468 l 450 182 m 692 333 q 585 570 680 479 q 484 633 539 614 q 366 645 426 653 q 256 604 308 637 l 247 954 l 5 849 l 115 -35 l 230 -4 q 426 -59 319 -74 q 627 73 549 -42 q 692 333 705 187 z "},"c":{"ha":684,"x_min":4,"x_max":682,"o":"m 301 467 l 334 211 l 682 181 q 561 63 638 104 q 385 25 481 20 q 127 143 237 33 q 8 399 16 252 q 28 535 4 471 q 99 644 52 597 q 208 713 146 690 q 345 733 273 737 q 539 668 449 727 q 676 519 627 610 l 301 467 z "},"d":{"ha":675,"x_min":-22,"x_max":679,"o":"m 220 514 l 409 499 l 401 225 l 234 228 l 220 514 m 258 -13 q 454 42 364 -28 l 569 11 l 679 895 l 437 1000 l 427 650 q 318 691 376 683 q 200 679 258 699 q 99 616 144 660 q -9 379 3 525 q 56 119 -22 233 q 258 -13 134 4 z "},"e":{"ha":689,"x_min":4,"x_max":682,"o":"m 465 496 l 307 397 l 294 510 l 465 496 m 334 171 l 321 272 l 675 479 q 538 628 627 570 q 345 693 449 687 q 208 673 273 697 q 99 604 145 650 q 28 495 52 557 q 8 359 4 431 q 126 103 16 212 q 385 -15 237 -7 q 561 23 481 -20 q 682 141 638 64 l 334 171 z "},"f":{"ha":568,"x_min":-4,"x_max":695,"o":"m 513 1065 q 306 1069 395 1107 q 184 958 234 1038 q 115 758 128 865 l 98 599 l 1 604 l -4 595 l -3 459 l 83 451 l 37 -22 l 296 -45 q 332 429 313 229 l 471 416 l 484 580 l 348 587 q 397 855 376 828 q 467 853 429 870 q 530 808 498 841 q 594 729 568 771 l 695 964 q 513 1065 568 1050 z "},"g":{"ha":784,"x_min":8,"x_max":767,"o":"m 429 244 l 229 258 l 236 544 l 463 542 l 429 244 m 767 662 l 591 656 q 357 735 488 741 q 109 617 209 730 q 14 351 8 505 q 129 94 20 198 q 245 19 180 45 q 385 -5 313 -7 q 486 15 437 -3 q 384 -114 456 -71 q 244 -152 326 -148 q 69 -130 151 -157 l 45 -351 q 652 -157 486 -382 q 722 1 703 -87 q 729 74 730 44 l 767 662 z "},"h":{"ha":736,"x_min":22,"x_max":723,"o":"m 298 657 l 287 939 l 22 907 l 56 -16 l 323 -9 l 323 -7 l 336 -7 q 325 341 325 338 q 336 393 324 369 q 375 429 351 420 q 444 408 411 444 q 463 365 458 391 q 465 342 464 355 l 465 330 l 465 318 l 466 279 l 467 241 q 469 155 468 206 l 469 70 l 470 31 l 707 -2 l 723 431 q 715 469 722 446 q 666 550 700 513 q 539 629 618 601 q 298 657 441 663 l 298 657 z "},"i":{"ha":357,"x_min":24,"x_max":322,"o":"m 24 549 l 322 591 l 300 -2 l 75 26 l 24 549 m 45 661 l 308 690 l 286 854 l 42 861 l 45 661 z "},"j":{"ha":357,"x_min":-318,"x_max":310,"o":"m -287 -179 q -243 -196 -269 -189 q -199 -205 -220 -203 q -146 -204 -171 -209 q 17 71 -2 -180 l 59 589 l 294 588 l 236 2 q 222 -75 234 -29 q 197 -151 212 -114 q 153 -235 178 -197 q -13 -378 89 -334 q -318 -399 -140 -433 l -287 -179 m 58 688 l 297 698 l 310 918 l 65 956 l 58 688 z "},"k":{"ha":692,"x_min":5,"x_max":711,"o":"m 711 256 l 399 373 l 625 618 l 422 699 l 320 544 l 254 976 l 5 970 l 125 -16 l 362 26 l 354 133 l 587 60 l 711 256 z "},"l":{"ha":376,"x_min":22,"x_max":355,"o":"m 74 -16 l 22 909 l 355 937 l 343 40 l 74 -16 z "},"m":{"ha":1022,"x_min":28,"x_max":1034,"o":"m 1034 116 q 954 551 1024 381 q 886 669 919 636 q 733 710 810 727 q 612 637 672 696 q 572 699 597 673 q 410 734 510 764 q 245 642 336 713 l 244 727 l 37 739 l 28 18 l 256 -16 l 252 231 l 254 252 q 257 273 256 264 q 264 313 260 296 q 300 385 275 355 q 330 414 314 400 q 369 437 351 429 q 436 410 416 455 q 446 333 441 397 q 452 199 450 281 q 456 15 455 104 l 656 34 q 654 324 660 153 q 765 425 722 439 q 816 319 800 413 q 828 61 834 211 l 1034 116 z "},"n":{"ha":816,"x_min":25,"x_max":803,"o":"m 791 404 q 789 443 789 429 q 785 483 787 465 q 772 562 781 528 q 694 699 750 651 q 494 734 618 764 q 292 642 402 713 l 290 727 l 29 689 l 25 18 l 305 -16 l 300 230 l 303 252 q 307 273 305 264 q 315 313 310 296 q 360 385 329 355 q 397 414 376 400 q 444 437 421 429 q 527 410 503 455 q 538 333 534 397 q 546 199 543 281 q 551 15 550 104 l 798 34 q 791 404 803 170 z "},"o":{"ha":695,"x_min":-31,"x_max":720,"o":"m 406 507 l 420 229 l 223 207 l 185 471 l 406 507 m -1 256 q 151 40 28 117 q 416 -7 273 -37 q 640 144 559 24 q 690 404 720 264 q 538 620 661 543 q 273 667 416 697 q 50 516 130 636 q -1 256 -31 396 z "},"p":{"ha":728,"x_min":-31,"x_max":753,"o":"m 488 195 l 232 224 l 243 438 l 538 463 l 488 195 m 415 676 q 254 648 331 680 l 258 715 l 97 707 l -31 -198 l 209 -217 l 222 45 q 380 0 296 4 q 634 86 526 -7 q 715 190 686 131 q 749 320 746 251 q 729 453 753 389 q 659 564 705 515 q 550 642 612 614 q 415 676 486 673 z "},"q":{"ha":759,"x_min":4,"x_max":782,"o":"m 253 249 l 225 425 l 487 478 l 507 278 l 253 249 m 782 -165 l 656 688 l 505 693 l 505 657 q 321 701 420 706 q 92 595 184 694 q 27 492 49 549 q 7 366 4 431 q 39 245 10 302 q 115 147 67 189 q 224 84 163 105 q 353 66 286 62 q 509 112 437 71 l 510 -155 l 782 -165 z "},"r":{"ha":612,"x_min":16,"x_max":611,"o":"m 247 666 l 16 647 l 64 -16 l 349 16 l 290 396 q 469 455 354 482 q 570 412 526 442 l 611 673 q 403 688 503 720 q 258 594 326 664 l 247 666 z "}}}
